<svg width="47" height="55" viewBox="0 0 47 55" fill="none" xmlns="http://www.w3.org/2000/svg">
<path d="M0 2.06L0.019989 1.99001L2.54001 10.25L10.69 8.32001L4.72 14.62L10.73 21.19L2.56 19.26L0.0299988 27.06V27.01H0.0100098V26.98V29.05L0.0299988 28.98L2.56 37.24L10.67 35.32L4.70001 41.34L10.76 48.18L2.56 46.24L0.0100098 54.04V54.01V54.97H0.309998L2.94 46.91L11.45 48.92L17.68 54.97H18.47L18.49 54.95L12.49 49.12L20.62 50.83L23.04 42.58L25.57 50.84L33.68 48.92L27.71 54.95H27.72L28.51 54.96L34.75 48.65L43.24 46.59L45.73 54.95H46.03V53.96L43.63 45.91L35.41 47.9L41.49 41L35.55 35.22L43.64 37.2L46.03 28.74V26.63L43.63 18.89L35.48 20.87L41.52 14.57L35.47 8.19L43.63 10.19L46.04 1.95V0.940002H45.75L43.25 9.50999L34.76 7.42999L28.55 0.949997H27.76L33.75 7.2L25.61 5.28L23.08 13.59L20.66 5.28L12.5 7.25999L18.51 0.960007H17.72L11.46 7.52L2.98001 9.53L0.369995 0.960007H0.0599976V2.02L0 2.06ZM2.94 36.57L0.320007 28L2.94 19.93L11.45 21.94L17.68 27.99L11.42 34.56L2.95999 36.56L2.94 36.57ZM20.21 50.2L11.7 48.41L5.47 41.38L11.72 35.06L20.2 33.01L22.71 41.63L20.2 50.21L20.21 50.2ZM40.67 41.07L34.4 48.19L25.94 50.19L23.32 41.62L25.94 33L34.43 35.01L40.67 41.08V41.07ZM43.21 19.63L45.72 27.7L43.21 36.57L34.71 34.49L28.49 28L34.73 21.7L43.22 19.64L43.21 19.63ZM25.94 6L34.42 8L40.7 14.62L34.41 21.19L25.94 23.19L23.32 14.62L25.94 6ZM25.55 23.87L33.66 21.95L27.69 27.98L33.68 34.23L33.62 34.21L33.64 34.23L25.56 32.32L23.03 40.63L20.61 32.32L12.45 34.3L18.47 27.98L12.47 22.15L20.6 23.86L23.02 15.6L25.55 23.86V23.87ZM11.72 8.06L20.21 6L22.72 14.62L20.21 23.2L11.7 21.41L5.48999 14.63L11.71 8.06H11.72Z" fill="white"/>
</svg>
