<svg width="57" height="51" viewBox="0 0 57 51" fill="none" xmlns="http://www.w3.org/2000/svg">
<path d="M39.86 43.97L38.91 42.16H42.31L44.39 45.33L44.68 45.84C44.75 45.97 44.89 46.05 45.03 46.05H45.05C45.05 46.05 45.07 46.05 45.08 46.05H45.1C45.25 46.05 45.38 45.96 45.45 45.84L45.88 45.05L47.63 42.16H51.41L46.96 49.83L46.83 50.04H47.8L52.37 42.16H56.85V41.33H48.1L53.26 31.86L54.32 30.27L55.44 31.98L56.2 33.32L53.95 37.14C53.95 37.14 53.93 37.18 53.92 37.2C53.92 37.21 53.91 37.22 53.9 37.24C53.9 37.26 53.9 37.28 53.9 37.3C53.9 37.31 53.9 37.33 53.9 37.34C53.9 37.36 53.9 37.38 53.9 37.4C53.9 37.41 53.9 37.43 53.9 37.44C53.9 37.46 53.91 37.48 53.92 37.5C53.92 37.51 53.92 37.53 53.94 37.54C53.94 37.56 53.96 37.57 53.98 37.59C53.98 37.6 54 37.62 54.01 37.63C54.03 37.65 54.05 37.66 54.06 37.67C54.06 37.67 54.08 37.69 54.09 37.69C54.11 37.7 54.14 37.71 54.16 37.72C54.16 37.72 54.18 37.72 54.19 37.73C54.23 37.73 54.26 37.74 54.3 37.74H56.86V36.91H55.05L56.86 34.05V32.61L56.15 31.53L54.79 29.13C54.72 29.01 54.59 28.93 54.45 28.92C54.43 28.92 54.41 28.92 54.39 28.92C54.32 28.88 54.25 28.86 54.17 28.87C54.03 28.87 53.89 28.96 53.83 29.08L52.57 31.4L51.66 32.76H48.08L52.33 25.09L54.45 21.78L56.87 25.98V24.14L53.12 17.51H56.49L56.87 18.1V15.98L56.47 16.69H52.42C52.42 16.69 52.35 16.69 52.31 16.7C52.3 16.7 52.28 16.71 52.27 16.72C52.25 16.72 52.23 16.73 52.21 16.74C52.2 16.74 52.18 16.76 52.17 16.77C52.15 16.78 52.14 16.79 52.13 16.8C52.13 16.8 52.11 16.82 52.1 16.83C52.09 16.85 52.07 16.86 52.06 16.88C52.06 16.88 52.06 16.9 52.05 16.91C52.04 16.93 52.03 16.95 52.02 16.98C52.02 17 52.02 17.01 52.02 17.03C52.02 17.05 52.02 17.07 52.02 17.09C52.02 17.11 52.02 17.13 52.02 17.14C52.02 17.16 52.02 17.17 52.02 17.19C52.02 17.21 52.03 17.23 52.04 17.25C52.04 17.26 52.04 17.28 52.05 17.29V17.3L53.98 20.97L51.98 24.1L45.7 13.37H56.87V12.54H54.56L52.62 9.23001H56.87V8.39999H52.13L47.81 1.02002H46.84L45.14 3.70999L43.52 1.02002H42.37L46.61 8.29001H42.81L40.28 4.42999C40.2 4.30999 40.07 4.24002 39.93 4.24002C39.93 4.24002 39.9 4.24002 39.88 4.24002C39.86 4.24002 39.84 4.24002 39.82 4.24002C39.8 4.24002 39.79 4.25001 39.77 4.26001C39.75 4.26001 39.74 4.27 39.72 4.28C39.7 4.28 39.69 4.3 39.68 4.31C39.67 4.32 39.65 4.33 39.64 4.34C39.64 4.34 39.62 4.36 39.62 4.37C39.61 4.39 39.59 4.41001 39.58 4.42001L37.47 8.25L33.95 8.28L38 0.980011H37.06L33.01 8.29001L23.73 8.36002L19.41 0.980011H18.44L16.74 3.67001L15.12 0.980011H13.97L18.21 8.25H14.41L11.88 4.39001C11.8 4.27001 11.66 4.19001 11.52 4.20001C11.52 4.20001 11.49 4.20001 11.48 4.20001C11.46 4.20001 11.44 4.19999 11.42 4.20999C11.42 4.20999 11.41 4.20999 11.4 4.20999C11.37 4.20999 11.35 4.23 11.32 4.25C11.32 4.25 11.31 4.26002 11.3 4.27002C11.28 4.28002 11.26 4.30001 11.24 4.32001C11.24 4.32001 11.24 4.33 11.23 4.34C11.21 4.36 11.19 4.38 11.18 4.41L9.07001 8.24002L5.55 8.27002L9.59 0.970001H8.65L4.61 8.28L0.0600052 8.31V9.14001L4.59 9.11002C4.59 9.11002 4.6 9.12 4.61 9.13C4.67 9.17 4.74001 9.17999 4.81001 9.17999C4.89001 9.17999 4.97 9.15002 5.04 9.11002L8.61 9.08002L2.41 20.12L0.500004 16.85L2.7 13.13C2.78 13 2.78 12.84 2.7 12.72C2.63 12.59 2.49 12.51 2.34 12.51H0.0500031V13.34H1.52L0.0500031 15.94V18.07L2.07 21.18C2.07 21.18 2.09 21.2 2.1 21.21C2.11 21.22 2.12 21.24 2.13 21.25C2.14 21.26 2.16 21.27 2.17 21.28C2.18 21.28 2.2 21.3 2.21 21.31C2.23 21.31 2.25 21.33 2.26 21.33C2.27 21.33 2.29 21.34 2.3 21.35C2.32 21.35 2.35 21.35 2.37 21.35C2.38 21.35 2.39 21.35 2.41 21.35H2.43C2.43 21.35 2.45 21.35 2.46 21.35C2.49 21.35 2.51 21.35 2.54 21.34C2.54 21.34 2.55001 21.34 2.56001 21.34C2.59001 21.34 2.61 21.32 2.64 21.31C2.65 21.31 2.66 21.29 2.67 21.28C2.69 21.27 2.70001 21.26 2.72001 21.24C2.73001 21.23 2.74 21.21 2.76 21.2C2.76 21.19 2.78 21.18 2.79 21.16L5.03 17.46H8.81001L4.36 25.13L2.38 28.26L0.0800018 24.15V25.94L3.99001 32.71H0.180004L0.0800018 32.57V34.05L0.370003 33.55H4.71C4.71 33.55 4.8 33.55 4.84 33.53C4.97 33.52 5.09 33.45 5.16 33.33C5.24 33.21 5.24 33.05 5.17 32.92L3 28.83L4.7 26.13L10.99 36.86H0.0800018V37.69H2.2L4.25 41.26H0.090004V42.09H4.73L8.97 49.47L8.69 49.97H9.63L9.79 49.68L11.91 46.37L13.99 49.98H15.24L10.6 41.95H13.87L16.35 45.8C16.43 45.92 16.56 46 16.7 45.99C16.7 45.99 16.71 45.99 16.72 45.99H16.74H16.76C16.91 45.99 17.04 45.9 17.1 45.78L17.53 44.99L19.28 42.1H23.06L18.61 49.77L18.48 49.98H19.45L24.02 42.1H33.14L37.38 49.48L37.1 49.98H38.04L38.2 49.69L40.32 46.38L42.4 49.99H43.57L39.92 43.92L39.86 43.97ZM51.16 33.62L45.16 44.63L45.04 44.82L43.15 41.45L45.32 37.56C45.39 37.43 45.39 37.28 45.32 37.15C45.25 37.02 45.11 36.95 44.96 36.95H40.28L38.34 33.63H51.16V33.62ZM28.02 16.71H23.97C23.97 16.71 23.9 16.71 23.86 16.72C23.85 16.72 23.83 16.73 23.82 16.74C23.8 16.74 23.78 16.75 23.76 16.76C23.74 16.76 23.73 16.78 23.72 16.79C23.71 16.79 23.69 16.81 23.68 16.82C23.67 16.83 23.65 16.85 23.64 16.87C23.64 16.88 23.62 16.89 23.61 16.91C23.61 16.92 23.6 16.94 23.59 16.95C23.59 16.97 23.57 16.98 23.57 17C23.57 17.02 23.57 17.03 23.57 17.05C23.57 17.07 23.57 17.09 23.57 17.11C23.57 17.13 23.57 17.14 23.57 17.16C23.57 17.18 23.57 17.2 23.57 17.21C23.57 17.23 23.58 17.24 23.59 17.26C23.59 17.28 23.59 17.29 23.61 17.31L25.55 20.99L23.55 24.12L17.26 13.39H29.9L28.03 16.7L28.02 16.71ZM28.04 17.54L30.44 21.25C30.44 21.25 30.46 21.27 30.47 21.28C30.48 21.29 30.49 21.31 30.51 21.32C30.52 21.33 30.54 21.34 30.55 21.35C30.56 21.35 30.58 21.37 30.59 21.38C30.61 21.38 30.63 21.4 30.64 21.4C30.66 21.4 30.67 21.41 30.68 21.42C30.7 21.42 30.73 21.42 30.75 21.42C30.76 21.42 30.77 21.42 30.78 21.42H30.8C30.8 21.42 30.83 21.42 30.84 21.42C30.86 21.42 30.88 21.42 30.9 21.42C30.92 21.42 30.93 21.41 30.94 21.4C30.96 21.4 30.98 21.39 30.99 21.38C31 21.38 31.02 21.36 31.03 21.35C31.04 21.34 31.06 21.33 31.07 21.31C31.08 21.3 31.09 21.29 31.1 21.27C31.11 21.26 31.12 21.24 31.13 21.23L33.37 17.53H37.15L32.7 25.2L30.73 28.33L24.68 17.53H28.04V17.54ZM23.87 25.12L25.99 21.81L32.32 32.78H28.51L26.11 29.13C26.11 29.12 26.09 29.11 26.08 29.09C26.07 29.08 26.06 29.06 26.05 29.05C26.03 29.04 26.01 29.02 26 29.01C26 29.01 25.98 29 25.97 28.99C25.94 28.98 25.92 28.96 25.89 28.96C25.87 28.96 25.84 28.96 25.82 28.96C25.82 28.96 25.8 28.96 25.79 28.96C25.78 28.96 25.76 28.96 25.75 28.96C25.73 28.96 25.71 28.96 25.69 28.96C25.67 28.96 25.66 28.97 25.64 28.98C25.62 28.98 25.61 28.99 25.59 29C25.57 29 25.56 29.02 25.55 29.03C25.54 29.04 25.52 29.05 25.51 29.06C25.5 29.07 25.49 29.09 25.48 29.1C25.48 29.11 25.46 29.12 25.45 29.13L23.23 32.78H19.66L23.91 25.11L23.87 25.12ZM28.71 33.62H33.05C33.05 33.62 33.14 33.62 33.18 33.6C33.31 33.59 33.43 33.52 33.5 33.4C33.57 33.28 33.58 33.12 33.51 32.99L31.34 28.9L33.04 26.2L39.32 36.93H26.64L28.71 33.61V33.62ZM51.47 24.92L47.11 32.8H37.86L33.54 25.42L38.11 17.54H47.14L51.47 24.92ZM42.81 9.14001H47.4C47.55 9.14001 47.68 9.06 47.75 8.94C47.82 8.82 47.83 8.66 47.75 8.53L45.58 4.53L47.28 1.83002L53.56 12.55H40.91L42.79 9.13L42.81 9.14001ZM39.94 5.51001L42.02 8.86002L39.76 12.78C39.69 12.91 39.69 13.06 39.76 13.19C39.83 13.32 39.97 13.4 40.12 13.4H44.72L46.66 16.71H33.84L39.94 5.51001ZM33.21 9.17999L36.97 9.14999L30.77 20.19L28.86 16.92L31.06 13.2C31.14 13.07 31.14 12.91 31.06 12.79C30.99 12.66 30.85 12.58 30.7 12.58H26.1L24.16 9.26001L33.2 9.19L33.21 9.17999ZM14.39 9.14001H18.98C19.12 9.14001 19.26 9.06 19.33 8.94C19.4 8.82 19.41 8.66 19.33 8.53L17.16 4.53L18.86 1.83002L25.14 12.55H12.49L14.37 9.13L14.39 9.14001ZM5.42 16.71L11.53 5.49002L13.66 8.74002L11.34 12.77C11.27 12.9 11.27 13.05 11.34 13.18C11.41 13.31 11.55 13.39 11.7 13.39H16.3L18.24 16.7H5.42V16.71ZM5.11 25.42L9.68 17.54H18.71L23.03 24.92L18.67 32.8H9.42001L5.1 25.42H5.11ZM13.77 41.19H9.8C9.8 41.19 9.73 41.19 9.69 41.2C9.68 41.2 9.66 41.21 9.65 41.22C9.63 41.22 9.61 41.23 9.59 41.24C9.58 41.24 9.56 41.26 9.55 41.27C9.54 41.28 9.52 41.29 9.51 41.3C9.5 41.31 9.49 41.33 9.48 41.34C9.48 41.35 9.46 41.36 9.45 41.38C9.45 41.39 9.44 41.41 9.43 41.42C9.43 41.44 9.41 41.45 9.41 41.47C9.41 41.49 9.41 41.5 9.41 41.52C9.41 41.54 9.41 41.56 9.41 41.57C9.41 41.59 9.41 41.6 9.41 41.62C9.41 41.64 9.41 41.66 9.41 41.67C9.41 41.69 9.42 41.7 9.43 41.72C9.43 41.73 9.43 41.75 9.45 41.76L11.39 45.59L9.39001 48.71L3.09 37.74H15.78L13.8 41.16L13.77 41.19ZM16.74 44.64L16.62 44.83L14.49 41.59L16.82 37.56C16.89 37.43 16.89 37.27 16.82 37.15C16.75 37.02 16.61 36.94 16.46 36.94H11.85L9.91 33.62H22.73L16.73 44.63L16.74 44.64ZM19.67 41.33L25.79 30.17L27.76 33.33L25.55 37.14C25.55 37.14 25.53 37.18 25.53 37.19C25.53 37.2 25.52 37.22 25.51 37.23C25.51 37.25 25.51 37.27 25.51 37.29C25.51 37.31 25.51 37.32 25.51 37.34C25.51 37.36 25.51 37.38 25.51 37.4C25.51 37.42 25.51 37.43 25.51 37.45C25.51 37.47 25.52 37.49 25.53 37.51C25.53 37.52 25.53 37.54 25.55 37.55C25.55 37.57 25.57 37.58 25.59 37.6C25.59 37.61 25.61 37.63 25.62 37.64C25.64 37.66 25.65 37.67 25.67 37.68C25.68 37.68 25.69 37.7 25.71 37.71C25.73 37.72 25.75 37.73 25.77 37.74C25.78 37.74 25.79 37.75 25.81 37.76C25.85 37.76 25.88 37.77 25.92 37.77H30.55L32.6 41.34H19.68L19.67 41.33ZM37.79 48.74L31.49 37.77H44.07L42.19 41.19H37.95C37.8 41.19 37.66 41.27 37.59 41.4C37.52 41.53 37.52 41.69 37.59 41.82L39.13 44.39L39.78 45.63L37.78 48.75L37.79 48.74Z" fill="white"/>
</svg>
