<svg width="75" height="128" viewBox="0 0 75 128" fill="none" xmlns="http://www.w3.org/2000/svg">
<path d="M60.65 127L63.03 123.55H67.17L68.66 127H69.61C69.61 126.94 69.6 126.88 69.57 126.82L68.16 123.55H72.15C72.33 123.55 72.49 123.44 72.57 123.28L74.01 119.94V118.3L72.57 114.95C72.5 114.78 72.33 114.68 72.15 114.68H67.98L72.27 107.18C72.35 107.04 72.35 106.87 72.27 106.73C72.19 106.59 72.04 106.51 71.88 106.51H63.5L65.44 103.28C65.52 103.14 65.52 102.96 65.44 102.82L63.55 99.67H67.36C67.52 99.67 67.67 99.59 67.75 99.45L69.54 96.4L73.63 103.09C73.71 103.22 73.85 103.3 74.01 103.31V102L70.05 95.52C70.12 95.39 70.12 95.23 70.05 95.09L74.01 88.3V86.96C73.85 86.96 73.71 87.05 73.63 87.18L69.53 94.2L67.75 91.17C67.67 91.03 67.52 90.95 67.36 90.95H63.54L65.45 87.63C65.53 87.49 65.53 87.32 65.45 87.18L63.47 83.74H69.35C69.6 83.74 69.8 83.54 69.8 83.29V71.71L74.02 69.33V68.37C73.94 68.37 73.87 68.39 73.8 68.43L69.8 70.68V66.14C69.8 65.98 69.72 65.84 69.58 65.75L65.94 63.58L69.73 61.3C69.87 61.22 69.95 61.07 69.95 60.91V56.65L73.81 58.83C73.88 58.87 73.95 58.89 74.03 58.89V57.93L69.95 55.63V43.38C69.95 43.13 69.75 42.93 69.49 42.93H63.2L64.88 39.74C64.95 39.6 64.95 39.44 64.87 39.3L62.97 36.1H66.78C66.94 36.1 67.09 36.01 67.17 35.88L69.13 32.5L73.65 39.72C73.73 39.85 73.88 39.93 74.03 39.93V38.61L69.66 31.64L74.03 24.59V23.28C73.87 23.28 73.73 23.36 73.65 23.49L69.1 30.83L67.17 27.5C67.09 27.36 66.94 27.28 66.78 27.28H62.95L64.87 23.9C64.95 23.76 64.95 23.59 64.87 23.45L62.88 20.08H71.63C71.79 20.08 71.94 19.99 72.02 19.85C72.1 19.71 72.09 19.53 72.01 19.4L67.68 12.54H71.26C71.42 12.54 71.56 12.46 71.65 12.33L74.03 8.49001V7.7L71.65 3.86001C71.57 3.73001 71.42 3.64001 71.26 3.64001H67.62L69.57 0.220009C69.61 0.150009 69.63 0.0800098 69.63 0.0100098H68.63L66.56 3.64001H62.47L60.63 0.0100098H59.57L56.23 5.59L47.21 0.0100098H45.34L41.35 2.11001C41.2 2.19001 41.11 2.34 41.11 2.51V7.05001L37.02 4.79C36.88 4.72 36.72 4.72 36.58 4.79L32.58 7.05001V2.51C32.58 2.36 32.49 2.22001 32.37 2.14001L29.12 0.0300064H27.34L17.62 5.61001L14.61 0.0300064H13.53L11.06 3.84H6.93999L4.92999 0.0300064H3.95C3.95 0.100006 3.97 0.160011 4 0.230011L5.90999 3.84H2.03C1.85 3.84 1.69 3.95001 1.61 4.11001L0 7.68V8.56001L1.61 12.25C1.68 12.42 1.85 12.52 2.03 12.52H6.14999L1.81999 19.42C1.72999 19.56 1.73 19.73 1.81 19.87C1.89 20.01 2.04 20.1 2.2 20.1H11.1L9.00999 23.74C8.92999 23.88 8.92999 24.05 9.00999 24.19L10.94 27.54H7.09C6.93 27.54 6.78 27.63 6.7 27.76L4.81999 30.99L0.399994 23.52C0.319994 23.39 0.179989 23.3 0.019989 23.3V24.63L4.18999 31.67L0.019989 38.64V39.96C0.179989 39.96 0.319994 39.87 0.399994 39.74L4.67 32.6L6.70999 36.1C6.78999 36.24 6.93999 36.32 7.09999 36.32H10.91L9.00999 39.5C8.92999 39.64 8.92999 39.82 9.00999 39.96L10.9 43.13H4.76999C4.51999 43.13 4.31999 43.33 4.31999 43.58V55.53L0.00999451 57.98V58.94C0.0899945 58.94 0.159996 58.92 0.229996 58.88L4.31 56.56V61.02C4.31 61.18 4.39 61.33 4.53 61.41L8.23 63.63L4.53 65.81C4.39 65.89 4.31 66.04 4.31 66.2V70.74L0.220001 68.48C0.150001 68.44 0.08 68.42 0 68.42V69.38L4.31 71.75V83.34C4.31 83.59 4.50999 83.79 4.75999 83.79H11.1L9.17999 87.14C9.09999 87.28 9.09999 87.45 9.17999 87.58L11.1 90.93H7.26999C7.10999 90.93 6.95999 91.02 6.87999 91.15L4.92999 94.5L0.37999 87.2C0.29999 87.07 0.15 86.98 0 86.99V88.32V88.3L4.39 95.33L0.00999451 102.05V102.03V103.33C0.159995 103.33 0.299999 103.25 0.389999 103.13L4.93999 96.15L6.89 99.5C6.97 99.64 7.12 99.72 7.28 99.72H11.09L9.18999 102.9C9.10999 103.04 9.10999 103.22 9.18999 103.36L11.09 106.54H2.40999C2.24999 106.54 2.09999 106.62 2.01999 106.76C1.93999 106.9 1.93999 107.07 2.01999 107.21L6.31 114.71H2.39C2.23 114.71 2.08 114.79 2 114.93L0.0299988 118.24V118.22L0.019989 120.08V120.06L2.00999 123.37C2.08999 123.51 2.23999 123.59 2.39999 123.59H6.22L4.04999 126.78C3.99999 126.86 3.97 126.94 3.97 127.03H4.97L7.31999 123.59H11.5L13.57 127.03H14.63L18.02 121.3L27.41 127.03H27.4H29.19L29.16 127.01L32.98 124.6C33.11 124.52 33.19 124.37 33.19 124.22V119.72L37.22 121.99C37.29 122.03 37.36 122.05 37.44 122.05C37.52 122.05 37.59 122.03 37.66 121.99L41.53 119.86V124.28C41.53 124.44 41.61 124.58 41.74 124.66L45.46 127.02L45.42 127.04H47.23H47.22L56.63 121.32L59.61 127.03H60.68L60.65 127ZM71.85 115.57L73.37 119.12L71.85 122.64H67.73L65.65 119.1L67.73 115.56H71.85V115.57ZM71.1 107.4L66.94 114.68H58.47L62.95 107.4H71.1ZM64.53 103.04L62.5 106.41H58.41L56.38 103.04L58.41 99.66H62.5L64.53 103.04ZM37.6 87.18C37.52 87.05 37.38 86.98 37.21 86.97C37.05 86.97 36.91 87.06 36.83 87.19L32.52 94.43L30.6 91.14C30.52 91 30.37 90.92 30.21 90.92H26.38L28.3 87.57C28.38 87.43 28.38 87.26 28.3 87.13L26.38 83.78H34.65C34.9 83.78 35.1 83.58 35.1 83.33C35.1 83.22 35.06 83.12 35 83.05L31.01 75.81H34.85C35.01 75.81 35.16 75.72 35.24 75.58L37.09 72.37L39 75.58C39.08 75.72 39.23 75.8 39.39 75.8H43.35L39.17 83.1C39.09 83.24 39.09 83.41 39.17 83.55C39.25 83.69 39.4 83.77 39.56 83.77H48.29L46.32 87.19C46.24 87.33 46.24 87.5 46.32 87.64L48.23 90.96H44.41C44.25 90.96 44.1 91.04 44.02 91.18L42.09 94.46L37.59 87.2L37.6 87.18ZM41.58 95.31L37.22 102.03L33.04 95.31L37.22 88.28L41.58 95.31ZM25.36 106.51H21.27L19.24 103.1L21.27 99.69H25.36L27.39 103.1L25.36 106.51ZM25.89 107.41H32.23V118.12L22.98 112.91L25.89 107.41ZM14.57 95.08L12.66 91.81H16.48C16.64 91.81 16.79 91.72 16.87 91.58L18.74 88.3L20.61 91.58C20.69 91.72 20.84 91.81 21 91.81H24.82L22.91 95.08C22.83 95.22 22.83 95.39 22.91 95.53L24.82 98.8H21C20.84 98.8 20.69 98.88 20.61 99.02L18.73 102.17L16.85 99.02C16.77 98.88 16.62 98.8 16.46 98.8H12.64L14.55 95.53C14.63 95.39 14.63 95.22 14.55 95.08H14.57ZM14.43 31.83C14.43 31.83 14.41 31.77 14.4 31.74C14.4 31.72 14.4 31.7 14.38 31.69L12.49 28.41H16.29C16.45 28.41 16.6 28.32 16.68 28.18L18.52 24.86L20.43 28.19C20.51 28.33 20.66 28.42 20.82 28.42H24.64L22.73 31.7C22.65 31.84 22.65 32.01 22.73 32.15L24.64 35.42H20.82C20.66 35.42 20.52 35.5 20.43 35.64L18.52 38.84L16.67 35.65C16.59 35.51 16.44 35.43 16.28 35.43H12.46L14.37 32.16C14.37 32.16 14.38 32.12 14.39 32.11C14.4 32.08 14.41 32.05 14.42 32.02C14.42 31.99 14.42 31.96 14.42 31.94C14.42 31.92 14.42 31.89 14.42 31.86L14.43 31.83ZM36.42 39.69C36.5 39.83 36.65 39.91 36.8 39.91C36.96 39.91 37.1 39.83 37.19 39.69L41.48 32.57L43.43 35.88C43.51 36.02 43.66 36.1 43.82 36.1H47.63L45.73 39.3C45.65 39.44 45.65 39.62 45.73 39.76L47.72 43.12H39.08C38.92 43.12 38.77 43.2 38.69 43.34C38.61 43.48 38.61 43.65 38.69 43.78L42.78 51.14H39.38C39.22 51.14 39.07 51.23 38.99 51.37L37.09 54.71L35.25 51.37C35.17 51.23 35.02 51.14 34.86 51.14H30.76L34.71 43.77C34.78 43.63 34.78 43.46 34.7 43.33C34.62 43.2 34.47 43.11 34.32 43.11H26.23L28.13 39.93C28.21 39.79 28.21 39.61 28.13 39.47L26.23 36.29H30.04C30.2 36.29 30.35 36.2 30.43 36.07L32.4 32.7L36.44 39.68L36.42 39.69ZM32.76 31.57L36.81 24.87L41.03 31.57L36.81 38.58L32.76 31.57ZM59.47 31.92L61.38 35.21H57.56C57.4 35.21 57.25 35.29 57.17 35.43L55.26 38.64L53.41 35.43C53.33 35.29 53.18 35.2 53.02 35.2H49.2L51.11 31.91C51.19 31.77 51.19 31.6 51.11 31.46L49.2 28.16H53.02C53.18 28.16 53.34 28.07 53.41 27.93L55.25 24.58L57.15 27.93C57.23 28.07 57.38 28.16 57.54 28.16H61.36L59.45 31.46C59.37 31.6 59.37 31.77 59.45 31.91L59.47 31.92ZM48.74 82.87H40.34L44.39 75.8H52.91L48.75 82.87H48.74ZM49.28 83.86H53.36L55.4 87.4L53.36 90.94H49.28L47.24 87.4L49.28 83.86ZM43.73 74.9H39.64L37.61 71.48L39.64 68.05H43.73L45.77 71.48L43.73 74.9ZM32.94 63.41L31.03 60.11H34.85C35.01 60.11 35.16 60.02 35.24 59.88L37.08 56.54L38.98 59.88C39.06 60.02 39.21 60.11 39.37 60.11H43.19L41.28 63.41C41.2 63.55 41.2 63.72 41.28 63.86L43.19 67.16H39.37C39.21 67.16 39.06 67.24 38.98 67.38L37.07 70.59L35.22 67.38C35.14 67.24 34.99 67.15 34.83 67.15H31.01L32.92 63.85C33 63.71 33 63.54 32.92 63.4L32.94 63.41ZM42.21 63.64L44.25 60.12H48.33L50.37 63.64L48.33 67.16H44.25L42.21 63.64ZM43.73 59.22H39.65L37.6 55.63L39.65 52.04H43.73L45.78 55.63L43.73 59.22ZM39.85 44.01H48L52.04 51.08H43.79L39.86 44.01H39.85ZM46.64 39.53L48.67 36.1H52.76L54.73 39.53L52.76 42.96H48.67L46.64 39.53ZM52.76 27.28H48.69L46.64 23.68L48.69 20.1H52.76L54.74 23.68L52.76 27.28ZM50.2 31.69L48.16 35.21H44.08L42.04 31.74L44.08 28.17H48.16L50.2 31.69ZM29.77 35.41H25.69L23.65 31.91L25.69 28.41H29.77L31.81 31.91L29.77 35.41ZM25.17 27.51H21.09L19.05 23.94L21.09 20.37H25.17L27.21 23.94L25.17 27.51ZM21.08 36.3H25.17L27.2 39.71L25.17 43.12H21.08L19.05 39.71L21.08 36.3ZM25.74 44.01H33.56L29.77 51.08H21.84L25.74 44.01ZM30.52 52.04H34.59L36.57 55.63L34.59 59.22H30.52L28.47 55.63L30.52 52.04ZM32.04 63.64L30 67.16H25.92L23.88 63.69L25.92 60.12H30L32.04 63.64ZM30.51 68.05H34.59L36.56 71.48L34.59 74.9H30.51L28.47 71.48L30.51 68.05ZM33.89 82.87H25.82L21.81 75.8H29.99L33.89 82.87ZM27.4 87.34L25.36 90.91H21.28L19.24 87.34L21.28 83.76H25.36L27.4 87.33V87.34ZM23.84 95.31L25.88 91.81H29.96L32 95.31L29.96 98.81H25.88L23.84 95.31ZM44.67 91.84H48.76L50.8 95.31L48.76 98.78H44.67L42.63 95.31L44.67 91.84ZM49.27 99.67H53.36L55.39 103.05L53.36 106.42H49.27L47.24 103.05L49.27 99.67ZM54.01 98.99C53.93 98.86 53.78 98.77 53.62 98.77H49.8L51.7 95.53C51.78 95.39 51.78 95.22 51.7 95.08L49.79 91.84H53.61C53.77 91.84 53.92 91.75 54 91.61L55.88 88.36L57.76 91.61C57.84 91.75 57.99 91.84 58.15 91.84H61.97L60.06 95.08C59.98 95.22 59.98 95.39 60.06 95.53L61.97 98.77H58.15C57.99 98.77 57.85 98.85 57.76 98.99L55.88 102.11L54 98.99H54.01ZM67.1 91.84L69.01 95.09C68.93 95.23 68.94 95.39 69.01 95.52L67.1 98.77H63.01L60.97 95.3L63.01 91.83H67.1V91.84ZM64.53 87.4L62.49 90.94H58.41L56.37 87.4L58.41 83.86H62.49L64.53 87.4ZM68.89 82.85H62.93L59.6 77.46L68.89 72.23V82.86V82.85ZM68.89 66.4V71.19L58.75 76.9C58.64 76.96 58.57 77.06 58.54 77.18C58.51 77.3 58.53 77.42 58.59 77.53L61.95 82.97H58.15C57.99 82.97 57.84 83.06 57.76 83.2L55.88 86.45L54 83.2C53.92 83.06 53.77 82.97 53.61 82.97H49.71L54.06 75.58C54.14 75.44 54.14 75.27 54.06 75.13C53.98 74.99 53.83 74.9 53.67 74.9H44.76L46.66 71.7C46.74 71.56 46.74 71.39 46.66 71.24L44.76 68.04H48.57C48.73 68.04 48.88 67.95 48.96 67.82L50.91 64.46L54.24 70.08C54.3 70.18 54.4 70.26 54.52 70.29C54.56 70.29 54.59 70.3 54.63 70.3C54.71 70.3 54.79 70.28 54.87 70.23L65.04 64.1L68.87 66.38L68.89 66.4ZM51.46 63.59L54.81 58.03L64.17 63.6L54.81 69.24L51.46 63.59ZM69.02 60.67L65.04 63.07L54.88 57.03C54.67 56.9 54.39 56.97 54.26 57.18L50.9 62.76L48.97 59.44C48.89 59.3 48.74 59.22 48.58 59.22H44.75L46.67 55.85C46.75 55.71 46.75 55.54 46.67 55.41L44.72 51.98H52.81C53.06 51.98 53.26 51.78 53.26 51.53C53.26 51.42 53.22 51.32 53.15 51.24L48.92 43.85H53C53.16 43.85 53.31 43.76 53.39 43.63L55.24 40.42L57.15 43.63C57.23 43.77 57.38 43.85 57.54 43.85H61.66L58.55 49.77C58.44 49.98 58.52 50.25 58.73 50.37L69 56.16V60.68L69.02 60.67ZM69.02 43.84V55.13L59.57 49.81L62.7 43.84H69.02ZM63.94 39.54L62.15 42.95H57.81L55.78 39.52L57.81 36.09H61.9L63.94 39.53V39.54ZM66.5 28.17L68.54 31.69L66.5 35.21H62.42L60.38 31.69L62.42 28.17H66.5ZM63.94 23.68L61.9 27.28H57.82L55.77 23.68L57.82 20.1H61.78C61.78 20.1 61.81 20.1 61.82 20.1L63.94 23.69V23.68ZM70.79 19.18H62.33L58.45 12.61H66.64L70.79 19.18ZM67.01 4.54H70.99L73.19 8.08001L70.99 11.62H67.01L65.02 8.08001L67.01 4.54ZM42 2.77001L46.29 0.51001L56.13 6.60001C56.23 6.67001 56.36 6.68 56.48 6.65C56.6 6.62 56.7 6.55001 56.76 6.44001L60.05 0.930008L61.75 4.29C61.83 4.44 61.99 4.54 62.16 4.54H65.95L64.08 7.85001C64 7.99001 64 8.16 64.08 8.29L66 11.7H57.65C57.49 11.7 57.34 11.79 57.26 11.93C57.18 12.07 57.18 12.24 57.26 12.38L61.27 19.18H57.53C57.37 19.18 57.22 19.27 57.14 19.41L55.24 22.74L53.4 19.41C53.32 19.27 53.17 19.18 53.01 19.18H49.37L52.54 13.86C52.6 13.76 52.62 13.63 52.59 13.51C52.56 13.39 52.48 13.29 52.37 13.24L41.99 7.52001V2.76L42 2.77001ZM42 8.55001L51.54 13.81L48.34 19.19H42.01V8.55001H42ZM32.57 19.64V8.06001L36.79 5.68L41.1 8.06001V19.65C41.1 19.9 41.3 20.1 41.55 20.1H47.64L45.72 23.46C45.64 23.6 45.64 23.76 45.72 23.9L47.64 27.28H43.81C43.65 27.28 43.5 27.37 43.42 27.51L41.57 30.74L37.18 23.78C37.1 23.65 36.97 23.58 36.79 23.57C36.63 23.57 36.49 23.65 36.41 23.79L32.18 30.78L30.41 27.74C30.33 27.6 30.18 27.52 30.02 27.52H26.19L28.11 24.17C28.19 24.03 28.19 23.86 28.11 23.73L26.03 20.1H32.11C32.36 20.1 32.56 19.9 32.56 19.65L32.57 19.64ZM31.67 19.19H25.71L22.38 13.8L31.67 8.57001V19.2V19.19ZM11.31 4.72001C11.46 4.72001 11.61 4.64 11.69 4.51L14.04 0.880005L17.03 6.43C17.09 6.54 17.19 6.62 17.31 6.65C17.35 6.66 17.39 6.67001 17.43 6.67001C17.51 6.67001 17.59 6.65001 17.66 6.61001L28.25 0.520004L31.66 2.74001V7.55001L21.53 13.26C21.42 13.32 21.35 13.42 21.32 13.54C21.29 13.66 21.31 13.78 21.37 13.89L24.79 19.42C24.79 19.42 24.76 19.46 24.75 19.48H20.83C20.67 19.48 20.52 19.57 20.44 19.71L18.53 23.04L16.69 19.72C16.61 19.58 16.46 19.49 16.3 19.49H12.48L16.53 12.43C16.61 12.29 16.61 12.12 16.53 11.98C16.45 11.84 16.3 11.76 16.14 11.76H7.39L9.39 8.4C9.48 8.26 9.48 8.08001 9.39 7.94001L7.48 4.74001H11.32L11.31 4.72001ZM2.33 11.58L0.809998 8.09L2.33 4.72001H6.40999L8.45999 8.15L6.40999 11.58H2.33ZM3.00999 19.18L7.12 12.64H15.36L11.6 19.2C11.6 19.2 11.56 19.19 11.54 19.19H3.00999V19.18ZM9.90999 23.94L11.96 20.37H16.03L18.01 23.94L16.03 27.51H11.98L9.92 23.94H9.90999ZM7.34999 35.41L5.31 31.91L7.34999 28.41H11.34C11.34 28.41 11.41 28.4 11.44 28.39L13.47 31.91L11.43 35.41H7.34999ZM9.92 39.71L11.95 36.3H16.04L18.01 39.71L16.04 43.12H11.96C11.96 43.12 11.96 43.11 11.95 43.1L9.92999 39.71H9.92ZM5.22 44.02H11.42L14.32 49.83L5.20999 55.01V44.03L5.22 44.02ZM5.22 60.75V56.03L15.14 50.39C15.35 50.27 15.43 50.01 15.32 49.8L12.42 44.01H16.29C16.45 44.01 16.6 43.92 16.68 43.78L18.53 40.59L20.44 43.79C20.52 43.93 20.67 44.01 20.82 44.01H24.71L20.68 51.31C20.6 51.45 20.61 51.62 20.68 51.75C20.76 51.89 20.91 51.97 21.07 51.97H29.5L27.55 55.4C27.47 55.54 27.47 55.7 27.55 55.84L29.47 59.21H25.64C25.48 59.21 25.33 59.3 25.25 59.44L23.33 62.79L19.96 57.2C19.83 56.99 19.56 56.92 19.34 57.05L9.09999 63.08L5.2 60.74L5.22 60.75ZM22.79 63.63L19.43 69.26L9.98999 63.61L19.43 58.05L22.79 63.63ZM5.22 66.43L9.11 64.14L19.36 70.28C19.43 70.32 19.51 70.34 19.59 70.34C19.63 70.34 19.66 70.34 19.7 70.33C19.82 70.3 19.92 70.23 19.98 70.12L23.32 64.52L25.27 67.83C25.35 67.97 25.5 68.05 25.66 68.05H29.47L27.57 71.25C27.49 71.39 27.49 71.57 27.57 71.71L29.47 74.91H21.04C20.88 74.91 20.73 74.99 20.65 75.13C20.57 75.27 20.57 75.44 20.65 75.58L24.79 82.88H21.02C20.86 82.88 20.71 82.97 20.63 83.11L18.76 86.39L16.89 83.11C16.81 82.97 16.66 82.88 16.5 82.88H12.61L15.78 77.55C15.84 77.45 15.86 77.32 15.83 77.21C15.8 77.09 15.72 76.99 15.61 76.93L5.23 71.21V66.43H5.22ZM5.22 82.87V72.23L14.76 77.49L11.56 82.87H5.23H5.22ZM10.1 87.34L12.14 83.77H16.22L18.26 87.34L16.22 90.92H12.14L10.1 87.35V87.34ZM7.53999 98.81L5.5 95.31L7.53999 91.81H11.62L13.66 95.31L11.62 98.81H7.53999ZM10.11 103.11L12.14 99.7H16.23L18.26 103.11L16.23 106.52H12.14L10.11 103.11ZM3.17999 107.41H11.53L15.38 114.69H7.33L3.17 107.41H3.17999ZM6.81 122.66H2.64999L0.539993 119.12L2.64999 115.58H6.81L8.89 119.12L6.81 122.66ZM32.26 123.94L28.26 126.47L18.08 120.26C17.98 120.2 17.85 120.18 17.73 120.21C17.61 120.24 17.51 120.31 17.45 120.42L14.08 126.12L12.13 122.88C12.05 122.74 11.9 122.66 11.74 122.66H7.84999L9.78999 119.35C9.86999 119.21 9.86999 119.04 9.78999 118.89L7.84999 115.58H16.13C16.29 115.58 16.43 115.5 16.52 115.36C16.6 115.23 16.61 115.06 16.53 114.92L12.55 107.4H16.48C16.64 107.4 16.78 107.32 16.87 107.18L18.75 104.03L20.63 107.18C20.71 107.32 20.86 107.4 21.02 107.4H24.88L21.99 112.87C21.88 113.08 21.96 113.35 22.17 113.47L32.27 119.16V123.93L32.26 123.94ZM41.42 106.96L41.38 118.87L37.42 121.05L33.12 118.63V106.97C33.12 106.72 32.92 106.52 32.67 106.52H26.4L28.3 103.34C28.38 103.2 28.38 103.02 28.3 102.88L26.4 99.7H30.21C30.37 99.7 30.52 99.62 30.6 99.48L32.52 96.18L36.83 103.1C36.91 103.23 37.05 103.31 37.21 103.31C37.36 103.31 37.5 103.23 37.59 103.1L42.09 96.16L44.02 99.44C44.1 99.58 44.25 99.66 44.41 99.66H48.22L46.33 102.81C46.25 102.95 46.25 103.13 46.33 103.27L48.28 106.51H41.87C41.62 106.51 41.42 106.71 41.42 106.96ZM42.32 107.41H48.96L52.17 112.92L42.28 118.37L42.32 107.41ZM57.19 120.44C57.13 120.33 57.03 120.25 56.91 120.21C56.79 120.18 56.66 120.19 56.55 120.26L46.33 126.47L42.42 123.99V119.32L53.01 113.48C53.12 113.42 53.19 113.32 53.23 113.21C53.26 113.09 53.25 112.97 53.19 112.87L49.95 107.32H53.62C53.78 107.32 53.92 107.24 54.01 107.1L55.89 103.98L57.77 107.1C57.85 107.23 58 107.32 58.16 107.32H61.96L57.3 114.88C57.22 115.02 57.21 115.19 57.3 115.33C57.38 115.47 57.53 115.56 57.69 115.56H66.71L64.77 118.88C64.69 119.02 64.69 119.2 64.77 119.34L66.71 122.65H62.82C62.67 122.65 62.53 122.72 62.45 122.85L60.18 126.13L57.22 120.44H57.19Z" fill="white"/>
</svg>
