<svg width="72" height="81" viewBox="0 0 72 81" fill="none" xmlns="http://www.w3.org/2000/svg">
<path d="M36.17 80.58C36.17 80.39 36.07 80.22 35.91 80.13L28.88 76.18C28.72 76.09 28.53 76.09 28.37 76.18C28.21 76.27 28.12 76.44 28.12 76.62V80.86H29.14V77.5L35.13 80.86H36.17V80.57V80.58Z" fill="white"/>
<path d="M57.46 77.08C57.62 76.99 57.72 76.82 57.72 76.64V69.31L64.22 72.91C64.38 73 64.56 73 64.72 72.91L71.07 69.43V76.35C71.07 76.35 71.07 76.36 71.07 76.37V59.75L64.59 56.17C64.43 56.08 64.24 56.08 64.08 56.17C63.93 56.26 63.83 56.43 63.83 56.61V63.66L58.33 60.62L57.75 60.3V52.92L64.22 49.32L71.07 53.17V44.02C71.07 44.02 71.07 44.03 71.07 44.04V51.99L64.48 48.28C64.32 48.19 64.13 48.19 63.98 48.28L57.76 51.74V44.41C57.76 44.22 57.66 44.05 57.5 43.96L51.05 40.34L57.48 36.76C57.64 36.67 57.74 36.5 57.74 36.31V28.84L64.3 32.46C64.46 32.55 64.65 32.54 64.8 32.46L71.08 28.81V36.05C71.08 36.05 71.08 36.06 71.08 36.07V19.67L64.81 15.73C64.65 15.63 64.45 15.62 64.29 15.72C64.13 15.81 64.02 15.98 64.02 16.17V23.23L57.92 19.87V12.89L64.54 8.70999L71.07 12.65V4.00999C71.07 4.00999 71.07 4.02 71.07 4.03V11.45L64.8 7.67C64.63 7.57 64.42 7.57 64.26 7.67L57.92 11.67V3.97C57.92 3.79 57.82 3.61999 57.66 3.51999L51.9 0.25H48.67L42.59 3.50999C42.42 3.59999 42.32 3.76999 42.32 3.95999V12.51C42.32 12.69 42.42 12.86 42.58 12.96C42.74 13.05 42.93 13.05 43.09 12.96L49.55 9.14V15.86L42.78 19.55L36.01 15.78L36.16 0.23999H35.12H35.13L35.05 8.34999L29.01 11.55L22.69 7.81999C22.69 7.81999 22.69 7.81999 22.68 7.81999L15.03 3.76999C14.87 3.68999 14.68 3.69 14.53 3.78L7.48 7.90999C7.32 7.99999 7.22 8.17 7.23 8.36C7.23 8.54 7.34 8.70999 7.5 8.79999L13.81 12.25L7.64 16.08L1.05 12.2V4.31L8.36 0.23999H6.26L0.29 3.56C0.13 3.65 0.03 3.81999 0.03 4.00999V11.6H0.02V12.78L7.4 17.12C7.56 17.22 7.77 17.22 7.93 17.12L15.11 12.66C15.26 12.56 15.36 12.39 15.35 12.21C15.35 12.03 15.24 11.86 15.08 11.77L8.79 8.33L14.81 4.79999L21.93 8.56999V15.95L14.34 19.88C14.34 19.88 14.28 19.9 14.24 19.92L7.12 23.92C6.96 24.01 6.86 24.18 6.86 24.37V32.87C6.86 33.05 6.96 33.22 7.12 33.32C7.28 33.41 7.48 33.41 7.63 33.32L13.97 29.53V36.2L7.57 39.66L1.04 35.77V20.61C1.04 20.42 0.94 20.25 0.78 20.16L0 19.72V20.9H0.01V27.64H0V28.84H0.01L0.03 36.05C0.03 36.23 0.13 36.4 0.28 36.49L6.54 40.21L0.3 43.58C0.13 43.67 0.03 43.84 0.03 44.03V51.82H0.02V53L7.06 57.14C7.22 57.24 7.43 57.23 7.59 57.14L14.77 52.68C14.92 52.59 15.02 52.41 15.01 52.23C15.01 52.05 14.9 51.88 14.74 51.8L8.45 48.36L14.46 44.84L21.08 48.59V56.41L14.52 60.06C14.42 60.06 14.33 60.07 14.24 60.12L7.12 64.12C6.96 64.21 6.86 64.38 6.86 64.57V73.07C6.86 73.25 6.96 73.42 7.12 73.52C7.28 73.61 7.48 73.61 7.63 73.52L13.97 69.73V76.41L7.4 80.25L1.04 76.09V60.64C1.04 60.45 0.94 60.28 0.77 60.19L0 59.77V60.94H0.01V68.17H0V69.37H0.01L0.03 76.34C0.03 76.51 0.12 76.67 0.26 76.77L6.42 80.81L6.3 80.88H8.33L14.75 77.13C14.91 77.04 15 76.87 15 76.69V68.82C15 68.63 14.9 68.47 14.74 68.37C14.58 68.28 14.38 68.28 14.22 68.37L7.88 72.16V64.92L14.56 61.2L21.02 64.87L21.07 72.38L21.34 80.58C21.34 80.69 21.39 80.79 21.46 80.87H23.25L22.36 80.28L22.11 72.66L28.61 69L35.39 72.9L42.58 77.23C42.66 77.28 42.75 77.3 42.85 77.3C42.95 77.3 43.03 77.28 43.11 77.23L50.31 72.89C50.46 72.79 50.56 72.62 50.56 72.44C50.56 72.26 50.45 72.09 50.29 72L43.9 68.54L50.05 65.05L56.68 68.73V76.33L50.06 80.12L48.67 80.86H51.81L51.32 80.57L57.44 77.06L57.46 77.08ZM56.69 36.02L42.67 43.82C42.58 43.87 42.52 43.95 42.47 44.03C42.37 44.13 42.3 44.26 42.3 44.41V52.96C42.3 53.14 42.4 53.31 42.56 53.4C42.72 53.49 42.91 53.49 43.07 53.4L49.53 49.58V56.3L42.8 59.97L36.31 56.29V40.22C36.31 40.03 36.21 39.86 36.04 39.77L28.85 35.8C28.69 35.71 28.5 35.71 28.34 35.8C28.18 35.89 28.09 36.06 28.09 36.24V43.37L22.08 39.92V32.47L28.6 28.82L40.53 35.56L42.57 36.79C42.65 36.84 42.74 36.86 42.84 36.86C42.94 36.86 43.02 36.83 43.1 36.79L43.15 36.76C43.15 36.76 43.15 36.76 43.16 36.76L50.3 32.63C50.46 32.54 50.56 32.37 50.56 32.18C50.56 32.14 50.56 32.11 50.54 32.07C50.54 32.05 50.54 32.03 50.54 32C50.54 31.82 50.43 31.65 50.27 31.56L43.99 28.16L46.68 26.51L50.02 24.61L52.62 26.04L56.65 28.52V36.01L56.69 36.02ZM50.3 16.62C50.46 16.53 50.57 16.36 50.57 16.17V8.25C50.57 8.07 50.47 7.9 50.31 7.81C50.15 7.72 49.95 7.72 49.8 7.81L43.34 11.63V4.28L50.31 0.529999L56.89 4.26999V20.17C56.89 20.36 56.99 20.53 57.16 20.62L64.28 24.55C64.44 24.64 64.63 24.63 64.79 24.55C64.95 24.46 65.04 24.29 65.04 24.11V17.11L71.06 20.9V27.64L64.52 31.44L53.18 25.18L50.34 23.43C50.17 23.33 49.97 23.33 49.8 23.43L46.21 25.64L42.61 27.68C42.45 27.77 42.35 27.94 42.35 28.13C42.35 28.24 42.39 28.34 42.45 28.43C42.49 28.54 42.57 28.64 42.68 28.7L48.89 32.13L42.91 35.73L41.07 34.69L36.16 31.73V24.34L50.29 16.62H50.3ZM22.68 16.73C22.85 16.64 22.96 16.47 22.96 16.27V9.17L28.75 12.59C28.83 12.64 28.92 12.66 29.01 12.66C29.09 12.66 29.17 12.64 29.25 12.6L35.05 9.51999L34.99 16.08C34.99 16.27 35.09 16.44 35.25 16.53L41.72 20.13L35.42 23.57C35.25 23.66 35.15 23.83 35.15 24.02V31.32L28.89 27.78C28.73 27.69 28.54 27.69 28.39 27.78L22.12 31.3L22.08 24.36C22.08 24.18 21.98 24.01 21.82 23.92L15.6 20.39L22.7 16.72L22.68 16.73ZM14.71 43.8C14.55 43.71 14.36 43.71 14.2 43.8L7.16 47.93C7 48.02 6.91 48.19 6.91 48.38C6.91 48.56 7.01 48.73 7.18 48.82L13.49 52.27L7.32 56.1L1.07 52.42V44.33L14.75 36.94C14.91 36.85 15.02 36.68 15.02 36.49V28.62C15.02 28.44 14.92 28.26 14.76 28.17C14.6 28.08 14.4 28.08 14.24 28.17L7.9 31.96V24.66L14.49 20.95L21.03 24.66L21.08 32.17V40.21C21.08 40.39 21.18 40.56 21.34 40.65L28.37 44.69C28.53 44.78 28.73 44.78 28.88 44.69C29.03 44.6 29.13 44.43 29.13 44.25V37.11L35.3 40.52V47.97L28.62 51.65L21.84 47.83L14.7 43.78L14.71 43.8ZM35.14 64.47V71.57L28.88 67.97C28.73 67.88 28.53 67.88 28.37 67.97L22.1 71.5L22.06 64.56C22.06 64.38 21.96 64.21 21.8 64.12L15.62 60.62L21.84 57.16C22 57.07 22.1 56.9 22.1 56.71V49.17L28.37 52.7C28.45 52.74 28.54 52.77 28.62 52.77C28.7 52.77 28.79 52.75 28.87 52.71L35.3 49.17V56.62C35.3 56.8 35.4 56.97 35.56 57.07L41.76 60.58L35.41 64.05C35.24 64.14 35.14 64.31 35.14 64.5V64.47ZM50.31 64.02C50.15 63.93 49.96 63.94 49.81 64.02L42.61 68.11C42.45 68.2 42.35 68.37 42.35 68.56C42.35 68.75 42.45 68.92 42.62 69.01L49.03 72.48L42.86 76.2L36.17 72.17V64.78L50.3 57.06C50.46 56.97 50.57 56.8 50.57 56.61V48.69C50.57 48.51 50.47 48.34 50.31 48.25C50.15 48.16 49.95 48.16 49.8 48.25L43.34 52.07V44.72L50.06 40.98L56.72 44.72V52.49C56.72 52.49 56.69 52.59 56.69 52.64V60.6C56.69 60.75 56.76 60.89 56.87 60.98C56.9 61.01 56.94 61.04 56.98 61.07L57.91 61.58L64.09 65.04C64.25 65.13 64.44 65.13 64.6 65.04C64.75 64.95 64.85 64.78 64.85 64.6V57.5L71.06 60.94V68.28L64.47 71.9L50.31 64.05V64.02Z" fill="white"/>
<path d="M21.6 0.369995L28.35 4.83C28.51 4.93 28.71 4.93999 28.88 4.84999C29.05 4.75999 29.15 4.58999 29.15 4.39999V0.25H28.13V3.45L23.29 0.25H21.5C21.5 0.25 21.56 0.339995 21.61 0.369995H21.6Z" fill="white"/>
</svg>
