<svg width="88" height="100" viewBox="0 0 88 100" fill="none" xmlns="http://www.w3.org/2000/svg">
<path d="M87.03 8.67999V7.84L80.77 5.23999L78.73 0H78.03V0.350006L79.79 4.82999L74.57 2.66L74.47 2.63H74.42C74.35 2.63 74.29 2.64999 74.23 2.67999C74.13 2.73999 74.06 2.83999 74.04 2.95999L73.1 9.07999L69.64 5.07999C69.58 4.99999 69.48 4.96001 69.38 4.95001L64.03 4.48001L69.22 0.570007C69.32 0.500007 69.38 0.380011 69.37 0.230011L69.35 0H68.09L68.37 0.25L62.89 4.37L58.56 3.70999L56.47 0.26001L56.59 0.0100098H55.4L55.57 0.269989L53.57 3.44L50.28 3.39001L48.32 0.230011L48.41 0H47.51V0.25C47.51 0.33 47.51 0.400001 47.56 0.470001L49.38 3.39999H45.52C45.37 3.39999 45.24 3.47999 45.18 3.60999L43.64 6.64999L42.18 3.62C42.12 3.49 41.98 3.39999 41.83 3.39999H37.98L39.8 0.470001C39.84 0.410001 39.86 0.34001 39.86 0.26001V0.0100098H38.91L39.03 0.25L37.06 3.42001H33.7L31.51 0.0100098H30.93L28.7 3.67999L24.22 4.26001L18.6 0.0100098H17.91V0.269989C17.91 0.389989 17.97 0.509987 18.06 0.579987L23.07 4.37L17.71 4.82999C17.6 4.82999 17.5 4.89001 17.44 4.98001L14.15 9.26001L13.33 2.97C13.32 2.85 13.24 2.74 13.15 2.69C13.09 2.65 13.02 2.63 12.95 2.63H12.85L7.13 4.95999L8.92999 0.410004L8.95999 0.320007V0.0100098H8.26001L6.13998 5.35999L0.0100098 7.85001V8.59L0.299988 8.56L5.67001 6.39001L3.94 10.14C3.89 10.26 3.88999 10.39 3.95999 10.5L5.82001 13.6H2.14999C2.01999 13.6 1.89001 13.67 1.82001 13.79L0.0100098 16.9V17.54L1.79999 21.36C1.85999 21.49 1.99999 21.58 2.14999 21.58H6.01999L4.17999 24.75C4.10999 24.87 4.10999 25.03 4.17999 25.15L6 28.08H2.13998C1.98998 28.08 1.85999 28.16 1.79999 28.29L0.0100098 31.82V32.55L1.82001 35.72C1.89001 35.84 2.01999 35.92 2.14999 35.92H5.82999L3.87 39.17C3.81 39.28 3.80001 39.41 3.85001 39.52L5.42999 43.25L0.389984 41.17L0.0100098 41.11V41.85L5.85001 44.26L7.95999 49.84L6.07001 55.2L0 57.66V58.49L5.60999 56.21L3.88 59.97C3.83 60.09 3.82999 60.22 3.89999 60.33L5.76001 63.43H2.09C1.95 63.43 1.83001 63.5 1.76001 63.62L0 66.65V67.48L1.73999 71.2C1.79999 71.33 1.94 71.42 2.09 71.42H5.95999L4.12 74.59C4.04999 74.71 4.04999 74.87 4.12 74.99L5.92999 77.92H2.07001C1.92001 77.92 1.79001 78 1.73001 78.13L0 81.57V82.48L1.76001 85.56C1.83001 85.68 1.96 85.76 2.09 85.76H5.76999L3.81 89.01C3.75 89.11 3.74 89.23 3.78 89.34L5.09 92.97L0 90.87V91.71L5.45001 93.96L7.79001 99.96H8.48999V99.61L6.44 94.37L13 97.08L13.1 97.11H13.15C13.22 97.11 13.29 97.09 13.35 97.06C13.45 97 13.52 96.89 13.53 96.77L14.14 90.36L17.02 94.61C17.08 94.7 17.18 94.76 17.29 94.78L22.86 95.51L17.75 99.41C17.66 99.48 17.6 99.6 17.6 99.72V99.98H18.96L18.62 99.72L23.95 95.65L28.56 96.02L30.47 99.71L30.31 99.99H31.54L31.36 99.71L33.24 96.36L36.73 96.32L38.71 99.72L38.54 99.99H39.54V99.74C39.54 99.67 39.53 99.59 39.49 99.53L37.65 96.36H41.53C41.68 96.36 41.82 96.27 41.88 96.13L43.33 92.9L44.87 96.14C44.93 96.27 45.07 96.36 45.22 96.36H49.09L47.25 99.53C47.21 99.59 47.2 99.66 47.2 99.74V99.99H48.23L48.04 99.72L49.98 96.38H53.35L55.28 99.73L55.11 100H56.36L56.18 99.73L58.39 96.02L62.51 95.52L68.02 99.71L67.52 100H69.04L69.08 99.79V99.74C69.08 99.62 69.03 99.5 68.93 99.43L63.64 95.41L68.74 94.91C68.84 94.9 68.93 94.85 69 94.77L72.77 90.21L73.47 96.8C73.48 96.92 73.55 97.03 73.66 97.09C73.72 97.13 73.79 97.14 73.86 97.14H73.96L80.03 94.62L77.92 99.58C77.92 99.58 77.89 99.68 77.89 99.73V99.99H78.58L81.04 94.2L86.77 91.83L87.04 91.96V91.03H86.8C86.8 91.03 86.78 91.03 86.77 91.03H86.67L81.45 93.2L82.96 89.56C83.01 89.45 83 89.33 82.94 89.22L81.07 85.8H84.97C85.11 85.8 85.24 85.72 85.31 85.6L86.78 82.87L87.02 83.26V80.78L86.77 81.23L85.3 78.18C85.24 78.05 85.1 77.96 84.95 77.96H81.1L82.92 75.03C82.99 74.91 83 74.76 82.92 74.63L81.08 71.46H84.96C85.11 71.46 85.25 71.37 85.31 71.23L86.76 67.99L87.01 68.49V65.93L86.76 66.34L85.3 63.66C85.23 63.54 85.1 63.46 84.96 63.46H81.12L83.16 60.37C83.24 60.25 83.24 60.1 83.18 59.98L81.23 56.15L86.6 58.38C86.6 58.38 86.7 58.41 86.79 58.41L87.02 58.39V57.55L86.77 57.62L80.71 55.1L78.7 49.86L81.06 44.34L87.01 41.88V41.09L86.71 41.18L81.48 43.34L82.99 39.69C83.03 39.58 83.03 39.46 82.97 39.36L81.1 35.94H85C85.14 35.94 85.27 35.86 85.34 35.74L87 32.65V31.8L85.33 28.34C85.26 28.21 85.13 28.12 84.98 28.12H81.13L82.95 25.19C83.02 25.07 83.03 24.91 82.95 24.79L81.11 21.62H84.99C85.14 21.62 85.28 21.53 85.34 21.39L86.97 17.75L86.99 16.87L85.33 13.82C85.26 13.7 85.13 13.62 84.99 13.62H81.15L83.19 10.53C83.27 10.41 83.28 10.26 83.21 10.14L81.26 6.31L86.63 8.54001L86.99 8.70001L87.03 8.67999ZM74.17 96.2L73.45 89.37L76.17 85.79H80.2L82.18 89.42L80.44 93.61L74.17 96.21V96.2ZM62.74 94.72L58.17 91.25L57.34 84.86L60.81 80.43L67.09 79.59L72.04 83.33L72.65 89.13L68.51 94.15L62.74 94.72ZM57.84 95.45L55.75 98.97L53.92 95.78C53.85 95.66 53.72 95.58 53.59 95.58H50.51L52.07 92.96C52.14 92.84 52.14 92.69 52.07 92.58L50.22 89.15L54.14 89.13C54.26 89.13 54.38 89.06 54.45 88.96L56.68 85.77L57.42 91.5C57.43 91.6 57.48 91.69 57.57 91.76L61.63 94.84L58.12 95.26C58 95.27 57.9 95.34 57.83 95.45H57.84ZM45.48 95.6L43.78 92.04L45.45 89.16H49.35L51.29 92.77L49.61 95.61H45.48V95.6ZM37.23 95.6L35.5 92.68L37.24 89.15H41.33L42.9 92.03L41.31 95.59H37.23V95.6ZM32.7 95.79L30.94 98.92L29.16 95.48C29.1 95.36 28.98 95.28 28.85 95.27L24.89 94.95L29.08 91.75C29.08 91.75 29.13 91.7 29.16 91.67L30.12 85.94L32.51 88.99C32.58 89.08 32.7 89.14 32.81 89.14H36.37L34.7 92.51C34.64 92.63 34.65 92.77 34.71 92.88L36.29 95.54L33.02 95.58C32.88 95.58 32.75 95.66 32.69 95.78L32.7 95.79ZM17.58 94.05L14.32 89.25L14.83 83.4L19.7 79.73L25.51 80.34L29.44 85.04L28.49 91.25L23.75 94.87L17.58 94.06V94.05ZM14.11 83.05L13.6 88.26L11.27 85.17C11.2 85.07 11.09 85.01 10.96 85.01H7.13L8.87 81.77C8.93 81.65 8.93 81.51 8.87 81.39L7.32001 78.72L10.38 78.76C10.51 78.76 10.64 78.69 10.7 78.58L12.62 75.54L14.6 78.81C14.66 78.91 14.76 78.98 14.87 78.99L18.63 79.57L14.25 82.87C14.25 82.87 14.16 82.95 14.16 82.97C14.13 83.01 14.12 83.05 14.12 83.05H14.11ZM6.07999 93.41L4.59 89.29L6.70001 85.79H10.77L13.49 89.4L12.84 96.2L6.09 93.41H6.07999ZM12.64 3.56L13.49 10.12L10.87 13.58L6.72 13.6L4.73001 10.28L6.72 5.95999L12.63 3.56H12.64ZM23.99 5.07001L28.9 8.78L29.52 14.59L25.97 19.18L19.66 19.94L15.09 16.47L14.29 10.34L17.95 5.59L23.99 5.07001ZM41.6 4.17001L43.21 7.51001L41.63 10.46H37.54L35.79 7.04999L37.49 4.17001H41.6ZM49.84 4.17001L51.5 7.04001L49.67 10.46H45.76L44.08 7.51001L45.76 4.17001H49.84ZM54.11 4.03L56.03 0.98999L58.01 4.25C58.07 4.35 58.17 4.41999 58.28 4.42999L62.04 5.01001L57.65 8.32001C57.65 8.32001 57.57 8.4 57.57 8.41C57.54 8.45 57.53 8.48999 57.53 8.48999L57.02 13.7L54.69 10.61C54.62 10.51 54.5 10.46 54.38 10.46H50.54L52.28 7.22C52.35 7.1 52.34 6.95 52.28 6.84L50.73 4.17001L53.8 4.20999C53.92 4.20999 54.05 4.14 54.11 4.03ZM69.16 5.70001L72.95 10.07L71.97 16.46L67.22 20.08L61.16 19.46L57.74 14.67L58.25 8.82001L63.12 5.16L69.17 5.69L69.16 5.70001ZM77.95 50L79.75 54.7L74.53 52.53C74.42 52.48 74.29 52.49 74.19 52.55C74.09 52.61 74.02 52.71 74 52.83L73.04 59.07L69.4 54.8C69.34 54.72 69.25 54.68 69.14 54.66L63.72 54.1L68.93 50.18C69.02 50.11 69.08 49.99 69.08 49.87C69.08 49.75 69.02 49.63 68.93 49.56L63.62 45.53L69.21 44.91C69.31 44.9 69.4 44.85 69.46 44.77L72.83 40.53L73.51 46.95C73.52 47.07 73.59 47.18 73.69 47.24C73.75 47.28 73.82 47.3 73.89 47.3H73.99L80.06 44.78L77.95 49.72C77.91 49.81 77.91 49.92 77.95 50.01V50ZM8.75 49.72L6.84 44.68L13.07 47.25L13.16 47.28H13.21C13.28 47.28 13.35 47.26 13.41 47.22C13.51 47.16 13.58 47.05 13.6 46.93L14.21 40.59L17.41 44.75C17.47 44.83 17.56 44.89 17.66 44.9L22.89 45.64L17.77 49.55C17.68 49.62 17.62 49.74 17.62 49.86C17.62 49.98 17.68 50.1 17.77 50.17L22.83 54L17.41 54.68C17.31 54.69 17.22 54.74 17.16 54.82L14.06 58.69L13.3 52.82C13.28 52.7 13.22 52.6 13.12 52.54C13.06 52.5 12.99 52.49 12.92 52.49H12.82L7.06 54.84L8.76999 49.99C8.79999 49.9 8.79999 49.81 8.76999 49.72H8.75ZM78.19 31.53C78.12 31.65 78.12 31.79 78.18 31.91L79.85 35.16H76.04C75.92 35.16 75.81 35.22 75.73 35.31L73.39 38.39L72.84 33.22C72.84 33.15 72.8 33.08 72.76 33.02L68.29 29.62L72.17 29.12C72.29 29.1 72.39 29.04 72.45 28.94L74.42 25.69L76.36 28.73C76.43 28.84 76.55 28.91 76.68 28.91H79.75L78.19 31.53ZM78.14 67.61C78.08 67.73 78.09 67.87 78.15 67.98L79.73 70.65L76.45 70.69C76.31 70.69 76.19 70.77 76.12 70.89L74.36 74.02L72.58 70.58C72.52 70.46 72.4 70.38 72.27 70.37L68.31 70.05L72.5 66.85C72.5 66.85 72.57 66.78 72.57 66.77L73.56 60.83L75.92 64.08C75.99 64.18 76.11 64.24 76.23 64.24H79.79L78.12 67.61H78.14ZM8.95001 68.05C9.02001 67.93 9.02001 67.79 8.95001 67.67L7.10001 64.24L11.01 64.22C11.13 64.22 11.25 64.16 11.32 64.05L13.55 60.87L14.3 66.6C14.31 66.7 14.37 66.8 14.45 66.86L18.51 69.94L15 70.36C14.88 70.38 14.78 70.44 14.72 70.55L12.63 74.07L10.8 70.88C10.73 70.76 10.6 70.69 10.47 70.69H7.39999L8.95999 68.07L8.95001 68.05ZM8.92001 31.92C8.98001 31.8 8.98001 31.66 8.92001 31.54L7.37 28.87L10.38 28.91H10.43C10.55 28.91 10.67 28.84 10.74 28.73L12.66 25.69L14.64 28.96C14.7 29.06 14.79 29.12 14.91 29.14L18.67 29.72L14.28 33.02C14.28 33.02 14.2 33.1 14.18 33.13C14.16 33.16 14.15 33.19 14.15 33.19L13.64 38.4L11.31 35.31C11.24 35.21 11.12 35.16 11 35.16H7.17001L8.91 31.92H8.92001ZM71.88 28.38L67.4 28.96L62.12 24.96L67.45 20.89L72.06 21.26L73.97 24.94L71.89 28.37L71.88 28.38ZM57.36 57.91C57.36 57.91 57.28 57.98 57.24 58.04C57.22 58.07 57.22 58.09 57.22 58.08L56.66 63.24L54.38 60.21C54.31 60.11 54.19 60.05 54.07 60.05H50.24L51.98 56.8C52.04 56.68 52.04 56.54 51.98 56.42L50.43 53.75L53.44 53.79H53.49C53.61 53.79 53.74 53.72 53.8 53.61L55.72 50.57L57.7 53.84C57.76 53.94 57.86 54 57.97 54.02L61.73 54.6L57.35 57.9L57.36 57.91ZM45.24 46.5H49.11L47.27 49.67C47.2 49.79 47.2 49.95 47.27 50.07L49.09 53H45.23C45.08 53 44.95 53.08 44.89 53.21L43.35 56.25L41.89 53.22C41.82 53.09 41.69 53 41.54 53H37.69L39.51 50.07C39.59 49.95 39.59 49.8 39.51 49.67L37.67 46.5H41.55C41.7 46.5 41.84 46.41 41.9 46.27L43.35 43.04L44.89 46.28C44.95 46.41 45.09 46.5 45.24 46.5ZM37.23 45.72L35.5 42.8L37.24 39.27H41.33L42.9 42.15L41.31 45.71H37.23V45.72ZM41.3 53.77L42.91 57.11L41.33 60.06H37.24L35.49 56.65L37.2 53.77H41.31H41.3ZM49.54 53.77L51.2 56.64L49.37 60.06H45.46L43.78 57.1L45.46 53.76H49.54V53.77ZM45.48 45.72L43.78 42.16L45.45 39.28H49.35L51.29 42.89L49.61 45.73H45.48V45.72ZM38.73 49.85L36.77 53.02H33.41L31.38 49.85L33.26 46.49L36.75 46.45L38.73 49.85ZM48.05 49.85L50 46.5H53.37L55.3 49.85L53.29 53.03L50 52.98L48.06 49.85H48.05ZM36.8 38.5H33.02L30.3 34.75L31.27 28.46L36.74 30.73L39 35.17L36.81 38.5H36.8ZM32.75 60.83H36.78L38.76 64.46L37.02 68.65L30.75 71.25L30.03 64.42L32.76 60.84L32.75 60.83ZM39.54 64.58C39.59 64.47 39.58 64.35 39.52 64.24L37.65 60.82H41.55C41.69 60.82 41.82 60.74 41.89 60.62L43.35 57.91L44.9 60.64C44.97 60.76 45.1 60.83 45.23 60.83H48.91L46.95 64.08C46.89 64.19 46.88 64.32 46.93 64.43L48.51 68.16L43.47 66.08L43.38 66.06H43.24L38.03 68.23L39.54 64.59V64.58ZM53.94 38.48L49.8 38.5L47.81 35.18L49.8 30.86L55.71 28.46L56.53 34.76L53.94 38.47V38.48ZM47.03 35.04C46.98 35.16 46.98 35.29 47.05 35.4L48.91 38.5H45.24C45.1 38.5 44.97 38.57 44.91 38.69L43.35 41.37L41.89 38.7C41.82 38.58 41.69 38.5 41.55 38.5H37.71L39.74 35.41C39.82 35.29 39.83 35.14 39.76 35.02L37.81 31.19L43.18 33.42C43.18 33.42 43.28 33.45 43.33 33.45H43.43L48.75 31.28L47.02 35.03L47.03 35.04ZM29.09 41.88C29.09 41.88 29.16 41.81 29.2 41.73L30.14 35.87L32.5 39.12C32.57 39.22 32.69 39.28 32.81 39.28H36.37L34.7 42.65C34.64 42.77 34.65 42.91 34.71 43.02L36.29 45.68L33.02 45.72C32.88 45.72 32.75 45.79 32.69 45.92L30.93 49.05L29.15 45.61C29.09 45.49 28.97 45.42 28.84 45.4L24.88 45.08L29.08 41.88H29.09ZM28.69 54.02C28.81 54 28.91 53.94 28.97 53.84L30.94 50.59L32.88 53.63C32.95 53.74 33.07 53.8 33.2 53.8H36.27L34.71 56.42C34.64 56.54 34.64 56.68 34.7 56.8L36.37 60.05H32.56C32.44 60.05 32.32 60.11 32.25 60.2L29.91 63.28L29.36 58.12C29.36 58.05 29.32 57.98 29.28 57.92L24.81 54.52L28.7 54.02H28.69ZM47.72 64.32L49.82 60.83H53.89L56.55 64.37L55.83 71.24L49.55 68.62L47.72 64.32ZM58.12 45.39C58 45.4 57.9 45.47 57.83 45.58L55.74 49.1L53.91 45.91C53.84 45.79 53.71 45.72 53.58 45.72H50.5L52.06 43.1C52.13 42.98 52.13 42.83 52.06 42.72L50.21 39.29L54.13 39.27C54.25 39.27 54.37 39.21 54.44 39.11L56.67 35.92L57.41 41.65C57.42 41.75 57.48 41.85 57.56 41.91L61.62 44.99L58.11 45.41L58.12 45.39ZM14.36 39.53L14.88 33.54L19.66 29.94L26.05 30.45L29.47 34.96L28.49 41.37L23.75 44.99L17.92 44.16L14.36 39.53ZM28.58 46.16L30.49 49.84L28.41 53.27L23.93 53.85L18.65 49.85L23.98 45.78L28.59 46.15L28.58 46.16ZM29.23 64.2L25.86 69.16L19.58 69.77L15.05 66.33L14.19 59.75L17.65 55.42L23.7 54.66L28.61 58.37L29.23 64.2ZM71.92 66.33L67.18 69.95L60.91 69.14L57.45 64.29L57.96 58.44L62.83 54.78L68.92 55.41L72.89 60.07L71.93 66.33H71.92ZM58.27 53.3L56.19 49.86L58.4 46.14L62.51 45.64L68.06 49.85L62.6 53.96L58.27 53.3ZM57.33 34.98L60.88 30.45L67.21 29.8L72.08 33.48L72.71 39.43L68.96 44.16L62.73 44.85L58.16 41.38L57.33 34.99V34.98ZM49.22 30.26L43.34 32.65L37.3 30.14L35.32 25.03L37.66 19.75L43.64 17.27L48.87 19.43L51.25 25.02L49.22 30.26ZM30.72 22.59H30.82L36.63 20.17L34.55 24.86C34.51 24.95 34.51 25.06 34.55 25.16L36.32 29.73L31.1 27.56C30.99 27.52 30.87 27.52 30.76 27.58C30.66 27.64 30.59 27.74 30.57 27.86L29.64 33.9L26.56 29.85C26.5 29.76 26.4 29.71 26.28 29.7L20.59 29.24L25.85 25.28C25.95 25.21 26.01 25.09 26.01 24.97C26.01 24.85 25.95 24.73 25.86 24.66L20.54 20.62L26.22 19.93C26.32 19.92 26.42 19.86 26.48 19.78L29.64 15.69L30.33 22.24C30.34 22.36 30.41 22.47 30.52 22.53C30.58 22.57 30.65 22.58 30.72 22.58V22.59ZM19.54 29.07L15.21 28.41L13.12 24.97L15.33 21.25L19.44 20.75L24.99 24.97L19.53 29.08L19.54 29.07ZM15.28 71.1L19.39 70.61L24.94 74.82L19.48 78.93L15.15 78.27L13.07 74.83L15.28 71.11V71.1ZM25.81 75.13C25.91 75.06 25.97 74.94 25.97 74.82C25.97 74.7 25.91 74.58 25.82 74.51L20.49 70.46L26.12 69.91C26.23 69.9 26.33 69.84 26.4 69.74L29.36 65.38L30.04 71.84C30.05 71.96 30.12 72.07 30.23 72.13C30.33 72.19 30.45 72.2 30.57 72.15L36.6 69.65L34.49 74.63C34.45 74.72 34.45 74.83 34.49 74.92L36.32 79.59L31.11 77.42C31 77.37 30.88 77.38 30.77 77.44C30.67 77.5 30.6 77.6 30.58 77.72L29.61 84.01L26.01 79.71C25.95 79.63 25.86 79.59 25.76 79.58L20.63 79.04L25.83 75.13H25.81ZM37.6 69.24L43.34 66.86L48.96 69.21L51.17 74.8L49.23 80.14L43.35 82.52L37.31 80.01L35.26 74.8L37.62 69.24H37.6ZM67.4 70.75L72.01 71.12L73.92 74.8L71.84 78.23L67.36 78.81L62.08 74.81L67.41 70.74L67.4 70.75ZM66.32 20.78L61.24 24.66C61.14 24.73 61.09 24.85 61.09 24.97C61.09 25.09 61.15 25.2 61.24 25.28L66.31 29.12L60.63 29.7C60.53 29.71 60.43 29.76 60.37 29.85L57.19 33.92L56.4 27.88C56.38 27.76 56.31 27.65 56.21 27.6C56.15 27.56 56.08 27.54 56.01 27.54H55.91L50.18 29.88L52 25.17C52.04 25.08 52.03 24.97 52 24.88L49.86 19.87L56.41 22.58L56.51 22.61H56.56C56.63 22.61 56.7 22.59 56.76 22.55C56.86 22.49 56.93 22.38 56.94 22.26L57.56 15.81L60.62 20.09C60.68 20.18 60.78 20.24 60.89 20.25L66.3 20.8L66.32 20.78ZM56.25 21.64L49.83 18.99L48.01 14.72L50.11 11.23H54.18L56.9 14.84L56.25 21.64ZM37.6 18.37C37.48 18.4 37.38 18.48 37.33 18.59L37.08 19.15L31.04 21.65L30.32 14.81L33.04 11.23H37.07L39.05 14.86L37.6 18.37ZM30.25 84.86L31.25 78.34L36.72 80.61L38.98 85.05L36.79 88.38H33L30.25 84.88C30.25 84.88 30.25 84.86 30.25 84.85V84.86ZM49.81 80.73L55.72 78.33L56.54 84.63L53.95 88.34L49.81 88.36L47.82 85.04L49.81 80.72V80.73ZM56.23 77.46C56.17 77.42 56.1 77.4 56.03 77.4H55.93L50.18 79.74L51.93 74.92C51.96 74.83 51.96 74.73 51.93 74.64L49.95 69.61L56.01 72.14L56.11 72.17H56.16C56.23 72.17 56.29 72.15 56.36 72.12C56.46 72.06 56.53 71.95 56.54 71.83L57.23 65.29L60.38 69.71C60.44 69.8 60.54 69.86 60.65 69.87L66.31 70.6L61.2 74.5C61.1 74.57 61.05 74.69 61.05 74.81C61.05 74.93 61.11 75.05 61.2 75.12L66.22 78.92L60.56 79.67C60.46 79.68 60.37 79.73 60.31 79.81L57.2 83.77L56.41 77.73C56.39 77.61 56.32 77.51 56.23 77.45V77.46ZM75.98 14.22C76.05 14.32 76.17 14.38 76.29 14.38H79.85L78.18 17.76C78.12 17.88 78.13 18.02 78.2 18.13L79.78 20.79L76.5 20.83C76.36 20.83 76.24 20.91 76.17 21.03L74.41 24.16L72.63 20.72C72.57 20.6 72.45 20.52 72.32 20.51L68.36 20.19L72.55 16.99C72.55 16.99 72.62 16.92 72.66 16.85L73.61 10.97L75.97 14.22H75.98ZM45.2 11.04C45.27 11.16 45.4 11.24 45.53 11.24H49.21L47.25 14.49C47.19 14.6 47.18 14.73 47.22 14.84L48.75 18.44C48.75 18.44 48.7 18.49 48.68 18.52L43.78 16.5C43.78 16.5 43.68 16.47 43.63 16.47H43.53L38.32 18.64L39.83 15C39.88 14.89 39.87 14.77 39.81 14.66L37.94 11.24H41.84C41.98 11.24 42.11 11.16 42.18 11.04L43.64 8.32999L45.19 11.05L45.2 11.04ZM35.01 6.82999C34.94 6.93999 34.94 7.08999 35 7.20999L36.67 10.46H32.86C32.74 10.46 32.62 10.52 32.56 10.61L30.22 13.69L29.67 8.53C29.67 8.46 29.63 8.39 29.59 8.34L25.12 4.92999L29 4.42999C29.12 4.40999 29.22 4.35 29.28 4.25L31.25 1L33.19 4.04001C33.26 4.15001 33.38 4.20999 33.51 4.20999H36.58L35.02 6.82999H35.01ZM18.56 20.07L15.05 20.49C14.93 20.5 14.83 20.57 14.77 20.67L12.68 24.19L10.85 21C10.78 20.88 10.65 20.81 10.52 20.81H7.44L9 18.19C9.07 18.07 9.07 17.93 9 17.81L7.14999 14.38L11.06 14.36C11.18 14.36 11.3 14.3 11.37 14.21L13.63 11.22L14.35 16.74C14.36 16.84 14.42 16.94 14.5 17L18.55 20.08L18.56 20.07ZM6.29001 14.38L8.23001 17.99L6.54999 20.83H2.42001L0.720001 17.27L2.38998 14.39H6.29001V14.38ZM6.92999 21.6H10.3L12.23 24.95L10.22 28.13L6.92999 28.08L4.98999 24.95L6.94 21.6H6.92999ZM6.47 28.87L8.13 31.74L6.29999 35.16H2.38998L0.709991 32.21L2.38998 28.87H6.47ZM6.75 35.93H10.82L13.28 39.2C13.27 39.3 13.29 39.4 13.36 39.48L13.52 39.69L12.89 46.34L6.47 43.69L4.66 39.42L6.76001 35.93H6.75ZM12.59 53.42L13.38 59.53L13.35 59.56C13.27 59.66 13.25 59.79 13.28 59.9L10.81 63.43L6.67001 63.45L4.67999 60.13L6.67001 55.81L12.58 53.41L12.59 53.42ZM6.23999 64.24L8.17999 67.85L6.5 70.69H2.37L0.670013 67.13L2.34 64.25H6.23999V64.24ZM6.88 71.46H10.25L12.18 74.81L10.17 77.99L6.88 77.94L4.94 74.81L6.88998 71.46H6.88ZM6.42001 78.73L8.07999 81.6L6.25 85.02H2.34L0.660004 82.07L2.35001 78.73H6.42999H6.42001ZM41.56 88.38H37.72L39.75 85.29C39.83 85.17 39.84 85.02 39.77 84.9L37.82 81.07L43.19 83.3C43.19 83.3 43.29 83.33 43.34 83.33H43.44L48.76 81.16L47.03 84.91C46.98 85.03 46.98 85.16 47.05 85.27L48.91 88.37H45.24C45.1 88.37 44.98 88.44 44.91 88.56L43.35 91.24L41.89 88.57C41.82 88.45 41.69 88.37 41.55 88.37L41.56 88.38ZM68.23 79.48L72.11 78.98C72.23 78.97 72.33 78.9 72.39 78.8L74.36 75.55L76.3 78.59C76.37 78.7 76.48 78.77 76.63 78.77H79.7L78.14 81.39C78.07 81.51 78.07 81.65 78.13 81.77L79.8 85.02H75.99C75.87 85.02 75.76 85.08 75.69 85.17L73.35 88.25L72.8 83.08C72.8 83.01 72.76 82.95 72.71 82.87L68.25 79.48H68.23ZM80.66 85.01L78.91 81.6L80.61 78.72H84.73L86.34 82.06L84.76 85.01H80.67H80.66ZM80.2 77.98H76.83L74.8 74.81L76.68 71.45L80.17 71.41L82.15 74.81L80.19 77.97L80.2 77.98ZM80.65 70.68L78.92 67.76L80.66 64.23H84.75L86.32 67.11L84.72 70.67H80.64L80.65 70.68ZM80.22 63.46H76.44L73.72 59.71L74.68 53.42L80.15 55.69L82.41 60.13L80.22 63.46ZM74.22 46.34L73.51 39.65C73.55 39.58 73.57 39.5 73.56 39.42L76.22 35.92H80.25L82.23 39.55L80.49 43.74L74.22 46.34ZM80.71 35.15L78.96 31.74L80.67 28.86H84.79L86.4 32.2L84.82 35.15H80.73H80.71ZM80.25 28.12H76.89L74.86 24.95L76.74 21.59L80.23 21.55L82.21 24.95L80.25 28.11V28.12ZM80.7 20.82L78.97 17.9L80.71 14.37H84.8L86.37 17.25L84.78 20.81H80.7V20.82ZM80.27 13.6H76.49L73.76 9.85001L74.73 3.56L80.2 5.82999L82.46 10.27L80.27 13.6Z" fill="white"/>
</svg>
