<svg width="56" height="57" viewBox="0 0 56 57" fill="none" xmlns="http://www.w3.org/2000/svg">
<path d="M45.96 52.36C46.05 52.27 46.09 52.15 46.09 52.03V46.75H51.37C51.49 46.75 51.61 46.7 51.7 46.62L55.43 42.89V41.58L51.7 37.85C51.61 37.77 51.5 37.72 51.37 37.72H46.09V32.44C46.09 32.32 46.04 32.2 45.96 32.11L42.23 28.38L45.96 24.65C46.05 24.56 46.09 24.44 46.09 24.32V19.04H51.37C51.49 19.04 51.61 18.99 51.7 18.91L55.43 15.18V13.87L51.7 10.14C51.61 10.05 51.5 10 51.37 10H46.09V4.72C46.09 4.6 46.04 4.47998 45.96 4.38998L42.23 0.660004H40.92L37.19 4.38998C37.1 4.47998 37.06 4.59 37.06 4.72V10H31.78C31.66 10 31.54 10.05 31.45 10.14L27.72 13.87L23.99 10.14C23.9 10.05 23.79 10 23.66 10H18.38V4.72C18.38 4.6 18.33 4.47998 18.24 4.38998L14.51 0.660004H13.2L9.47 4.38998C9.38 4.47998 9.34 4.59 9.34 4.72V10H4.06C3.94 10 3.82 10.05 3.73 10.14L0 13.87V15.18L3.73 18.91C3.82 19 3.94 19.04 4.06 19.04H9.34V24.32C9.34 24.44 9.39 24.56 9.47 24.65L13.2 28.38L9.47 32.11C9.38 32.2 9.34 32.32 9.34 32.44V37.72H4.06C3.94 37.72 3.82 37.77 3.73 37.85L0 41.58V42.89L3.73 46.62C3.82 46.71 3.94 46.75 4.06 46.75H9.34V52.03C9.34 52.15 9.39 52.27 9.47 52.36L13.2 56.09H14.51L18.24 52.36C18.33 52.27 18.38 52.15 18.38 52.03V46.75H23.66C23.78 46.75 23.9 46.7 23.99 46.62L27.72 42.89L31.45 46.62C31.54 46.71 31.65 46.75 31.78 46.75H37.06V52.03C37.06 52.15 37.11 52.27 37.19 52.36L40.92 56.09H42.23L45.96 52.36ZM31.98 10.93H37.53C37.79 10.93 37.99 10.72 37.99 10.47V4.91998L41.59 1.32001L45.19 4.91998V10.47C45.19 10.72 45.4 10.93 45.65 10.93H51.2L54.8 14.52L51.2 18.12H45.65C45.39 18.12 45.19 18.33 45.19 18.58V24.13L41.59 27.73L37.99 24.13V18.58C37.99 18.33 37.78 18.12 37.53 18.12H31.98L28.38 14.52L31.98 10.93ZM10.28 24.13V18.58C10.28 18.33 10.07 18.12 9.82 18.12H4.27L0.67 14.52L4.27 10.93H9.82C10.08 10.93 10.28 10.72 10.28 10.47V4.91998L13.88 1.32001L17.48 4.91998V10.47C17.48 10.72 17.69 10.93 17.94 10.93H23.49L27.09 14.52L23.49 18.12H17.94C17.69 18.12 17.48 18.33 17.48 18.58V24.13L13.88 27.73L10.28 24.13ZM23.48 45.83H17.93C17.68 45.83 17.47 46.03 17.47 46.29V51.84L13.87 55.44L10.27 51.84V46.29C10.27 46.03 10.06 45.83 9.81 45.83H4.26L0.66 42.23L4.26 38.63H9.81C10.07 38.63 10.27 38.42 10.27 38.17V32.62L13.87 29.02L17.47 32.62V38.17C17.47 38.42 17.68 38.63 17.93 38.63H23.48L27.08 42.23L23.48 45.83ZM27.73 41.58L24 37.85C23.91 37.77 23.8 37.72 23.67 37.72H18.39V32.44C18.39 32.32 18.34 32.2 18.25 32.11L14.52 28.38L18.25 24.65C18.34 24.56 18.39 24.44 18.39 24.32V19.04H23.67C23.79 19.04 23.91 18.99 24 18.91L27.73 15.18L31.46 18.91C31.55 19 31.66 19.04 31.79 19.04H37.07V24.32C37.07 24.44 37.12 24.56 37.2 24.65L40.93 28.38L37.2 32.11C37.11 32.2 37.07 32.32 37.07 32.44V37.72H31.79C31.67 37.72 31.55 37.77 31.46 37.85L27.73 41.58ZM37.98 51.84V46.29C37.98 46.03 37.77 45.83 37.52 45.83H31.97L28.37 42.23L31.97 38.63H37.52C37.78 38.63 37.98 38.42 37.98 38.17V32.62L41.58 29.02L45.18 32.62V38.17C45.18 38.42 45.39 38.63 45.64 38.63H51.19L54.79 42.23L51.19 45.83H45.64C45.38 45.83 45.18 46.03 45.18 46.29V51.84L41.58 55.44L37.98 51.84Z" fill="white"/>
</svg>
