<svg width="60" height="60" viewBox="0 0 60 60" fill="none" xmlns="http://www.w3.org/2000/svg">
<path d="M59.08 47.25C58.97 47.25 58.87 47.29 58.79 47.36L55.48 50.67H51.21V45.8L55.01 41.95C55.09 41.87 55.13 41.77 55.13 41.66V34.18C55.13 33.95 54.95 33.77 54.72 33.77H47.25C47.14 33.77 47.04 33.81 46.96 33.89L43.11 37.7H38.24V33.43L41.55 30.12C41.71 29.96 41.71 29.7 41.55 29.54L38.24 26.23V21.96H43.11L46.96 25.77C47.04 25.85 47.14 25.89 47.25 25.89H54.72C54.95 25.89 55.13 25.71 55.13 25.48V18.01C55.13 17.9 55.09 17.8 55.01 17.72L51.21 13.87V9H55.48L58.79 12.31C58.87 12.39 58.97 12.43 59.08 12.43V11.44L55.94 8.29999C55.86 8.21999 55.76 8.17999 55.65 8.17999H51.2V3.73001C51.2 3.62001 51.16 3.52 51.08 3.44L47.94 0.299988H46.95C46.95 0.409988 46.99 0.509996 47.07 0.589996L50.38 3.89999V8.17001H45.51L41.66 4.35999C41.58 4.27999 41.48 4.23999 41.37 4.23999H33.9C33.67 4.23999 33.49 4.41999 33.49 4.64999V12.13C33.49 12.24 33.53 12.34 33.61 12.42L37.42 16.27V21.14H33.15L29.84 17.83C29.68 17.67 29.42 17.67 29.26 17.83L25.95 21.14H21.68V16.27L25.48 12.42C25.56 12.34 25.6 12.24 25.6 12.13V4.64999C25.6 4.41999 25.42 4.23999 25.19 4.23999H17.71C17.6 4.23999 17.5 4.27999 17.42 4.35999L13.57 8.17001H8.7V3.89999L12.01 0.589996C12.09 0.509996 12.13 0.409988 12.13 0.299988H11.14L8 3.44C7.92 3.52 7.88 3.62001 7.88 3.73001V8.17999H3.42999C3.31999 8.17999 3.22 8.21999 3.14 8.29999L0 11.44V12.42C0.11 12.42 0.209993 12.38 0.289993 12.3L3.60001 8.98999H7.87V13.86L4.06 17.71C3.98 17.79 3.94 17.89 3.94 18V25.47C3.94 25.7 4.12001 25.88 4.35001 25.88H11.83C11.94 25.88 12.04 25.84 12.12 25.76L15.97 21.95H20.84V26.22L17.53 29.53C17.37 29.69 17.37 29.95 17.53 30.11L20.84 33.42V37.69H15.97L12.12 33.88C12.04 33.8 11.94 33.76 11.83 33.76H4.35001C4.12001 33.76 3.94 33.94 3.94 34.17V41.65C3.94 41.76 3.98 41.86 4.06 41.94L7.87 45.79V50.66H3.60001L0.289993 47.35C0.209993 47.27 0.11 47.23 0 47.23V48.22L3.14 51.36C3.22 51.44 3.31999 51.48 3.42999 51.48H7.88V55.93C7.88 56.04 7.92 56.14 8 56.22L11.14 59.36H12.13C12.13 59.26 12.09 59.15 12.01 59.07L8.7 55.76V51.49H13.57L17.42 55.3C17.5 55.38 17.6 55.42 17.71 55.42H25.19C25.41 55.42 25.6 55.24 25.6 55.01V47.53C25.6 47.42 25.56 47.32 25.48 47.24L21.68 43.39V38.52H25.95L29.26 41.83C29.42 41.99 29.68 41.99 29.84 41.83L33.15 38.52H37.42V43.39L33.61 47.24C33.53 47.32 33.49 47.42 33.49 47.53V55.01C33.49 55.23 33.67 55.42 33.9 55.42H41.37C41.48 55.42 41.58 55.38 41.66 55.3L45.51 51.49H50.38V55.76L47.07 59.07C46.99 59.15 46.95 59.25 46.95 59.36H47.94L51.08 56.22C51.16 56.14 51.2 56.04 51.2 55.93V51.48H55.65C55.76 51.48 55.86 51.44 55.94 51.36L59.08 48.22V47.24V47.25ZM34.31 11.97V5.07001H41.21L45.06 8.88C45.14 8.96 45.24 9 45.35 9H50.4V14.05C50.4 14.16 50.44 14.26 50.52 14.34L54.33 18.19V25.09H47.43L43.58 21.28C43.5 21.21 43.4 21.16 43.29 21.16H38.24V16.11C38.24 16 38.2 15.9 38.12 15.82L34.31 11.97ZM15.8 21.15C15.69 21.15 15.59 21.19 15.51 21.27L11.66 25.08H4.75999V18.18L8.56999 14.33C8.64999 14.25 8.69 14.15 8.69 14.04V8.98999H13.74C13.85 8.98999 13.95 8.95 14.03 8.87L17.88 5.06H24.78V11.96L20.98 15.81C20.9 15.89 20.86 15.99 20.86 16.1V21.15H15.82H15.8ZM24.77 47.71V54.61H17.87L14.02 50.8C13.94 50.72 13.84 50.68 13.73 50.68H8.67999V45.63C8.67999 45.52 8.64 45.42 8.56 45.34L4.75 41.49V34.59H11.65L15.5 38.4C15.58 38.48 15.68 38.52 15.79 38.52H20.83V43.57C20.83 43.68 20.87 43.78 20.95 43.86L24.75 47.71H24.77ZM32.97 37.72C32.86 37.72 32.76 37.76 32.68 37.84L29.54 40.98L26.4 37.84C26.4 37.84 26.3 37.76 26.24 37.74C26.2 37.73 26.15 37.72 26.11 37.72H21.66V33.27C21.66 33.16 21.62 33.06 21.54 32.98L18.4 29.84L21.54 26.7C21.54 26.7 21.6 26.63 21.62 26.59C21.65 26.53 21.66 26.47 21.66 26.41V21.96H26.11C26.22 21.96 26.32 21.92 26.4 21.84L29.54 18.7L32.68 21.84C32.68 21.84 32.75 21.9 32.79 21.92C32.85 21.95 32.91 21.96 32.97 21.96H37.42V26.41C37.42 26.52 37.46 26.62 37.54 26.7L40.68 29.84L37.54 32.98C37.54 32.98 37.48 33.05 37.46 33.09C37.43 33.15 37.42 33.21 37.42 33.27V37.72H32.97ZM45.34 50.68C45.23 50.68 45.13 50.72 45.05 50.8L41.2 54.61H34.3V47.71L38.11 43.86C38.19 43.78 38.23 43.68 38.23 43.57V38.52H43.28C43.39 38.52 43.49 38.48 43.57 38.4L47.42 34.59H54.32V41.49L50.51 45.34C50.43 45.42 50.39 45.52 50.39 45.63V50.68H45.34Z" fill="white"/>
</svg>
