<svg width="63" height="65" viewBox="0 0 63 65" fill="none" xmlns="http://www.w3.org/2000/svg">
<path d="M47.56 63.71L52.56 58.48C52.65 58.38 52.7 58.25 52.7 58.12C52.7 57.99 52.64 57.86 52.54 57.77L47.91 53.55H57.54C57.67 53.55 57.79 53.5 57.89 53.41L62.51 48.87V47.46L57.9 42.74C57.81 42.64 57.68 42.59 57.55 42.59H47.81L52.57 37.67C52.76 37.48 52.76 37.17 52.57 36.98L47.58 31.97L52.22 27.11L57.2 32.15C57.34 32.29 57.55 32.34 57.74 32.26C57.93 32.18 58.05 32 58.05 31.8V21.52L62.52 17.12V15.71L58.05 11.13V1.05C58.05 0.860003 57.94 0.680006 57.76 0.600006C57.58 0.520006 57.38 0.549998 57.23 0.669998L52.24 4.89999L47.9 0.539993H45.87L41.21 5.22C41.02 5.41 41.02 5.72 41.21 5.92L45.97 10.84H36.23C36.1 10.84 35.97 10.89 35.87 10.99L31.26 15.71L26.65 10.99C26.56 10.9 26.43 10.84 26.3 10.84H16.56L21.32 5.92C21.51 5.72 21.51 5.42 21.32 5.22L16.66 0.539993H14.62L10.28 4.89999L5.29 0.669998C5.14 0.549998 4.94 0.520006 4.76 0.600006C4.58 0.680006 4.47 0.860003 4.47 1.05V11.13L0 15.71V17.12L4.47 21.52V31.8C4.47 32 4.59 32.18 4.78 32.26C4.97 32.34 5.18 32.29 5.32 32.15L10.27 27.11L14.94 31.98L9.95 36.99C9.76 37.18 9.76 37.49 9.95 37.68L14.71 42.6H4.97C4.84 42.6 4.71 42.65 4.61 42.75L0 47.47V48.88L4.62 53.42C4.71 53.51 4.84 53.56 4.97 53.56H14.6L9.95 57.78C9.85 57.87 9.79 57.99 9.79 58.13C9.79 58.26 9.84 58.39 9.93 58.49L14.95 63.72L14.62 64.05H16.66L16.33 63.72L20.97 58.86L25.95 63.9C26.09 64.04 26.31 64.09 26.49 64.01C26.68 63.93 26.8 63.75 26.8 63.55V53.27L31.27 48.87L35.74 53.27V63.55C35.74 63.75 35.86 63.93 36.05 64.01C36.24 64.09 36.45 64.04 36.59 63.9L41.54 58.86L46.21 63.72L45.88 64.05H47.91L47.58 63.72L47.56 63.71ZM36.43 11.82H47.14C47.42 11.82 47.64 11.6 47.64 11.32C47.64 11.16 47.57 11.02 47.45 10.93L42.26 5.57001L46.88 0.919998L51.85 5.91C52.03 6.09 52.33 6.11 52.52 5.94L57.04 2.11V11.32C57.04 11.45 57.09 11.57 57.18 11.67L61.8 16.4L57.19 20.94C57.1 21.03 57.04 21.16 57.04 21.29V30.57L52.55 26.03C52.46 25.94 52.32 25.89 52.19 25.88C52.06 25.88 51.93 25.94 51.84 26.03L46.88 31.23L42.24 26.4L47.47 21.66C47.62 21.52 47.67 21.3 47.6 21.12C47.53 20.93 47.34 20.8 47.14 20.8H36.43L31.96 16.4L36.43 11.82ZM10.63 26.03C10.54 25.93 10.41 25.88 10.28 25.88C10.14 25.88 10.02 25.93 9.92 26.03L5.46 30.57V21.3C5.46 21.17 5.41 21.04 5.31 20.95L0.700001 16.41L5.32 11.68C5.41 11.59 5.46 11.46 5.46 11.33V2.12L9.98 5.95C10.18 6.12 10.47 6.11 10.65 5.92L15.63 0.919998L20.26 5.58L15.02 10.99C14.88 11.13 14.84 11.35 14.92 11.53C15 11.71 15.18 11.83 15.38 11.83H26.08L30.55 16.41L26.08 20.81H15.37C15.17 20.81 14.98 20.94 14.91 21.13C14.84 21.32 14.89 21.54 15.04 21.68L20.24 26.42L15.62 31.26L10.62 26.05L10.63 26.03ZM25.95 52.69C25.85 52.78 25.8 52.91 25.8 53.04V62.32L21.31 57.78C21.22 57.68 21.09 57.64 20.95 57.63C20.82 57.63 20.69 57.69 20.6 57.78L15.63 62.99L10.99 58.15L16.22 53.41C16.37 53.27 16.42 53.06 16.35 52.86C16.28 52.67 16.09 52.54 15.89 52.54H5.18L0.709999 48.14L5.18 43.56H15.89C16.16 43.56 16.39 43.34 16.39 43.06C16.39 42.9 16.31 42.76 16.2 42.67L11.01 37.31L15.64 32.66L20.62 37.66C20.8 37.84 21.09 37.86 21.29 37.69L25.81 33.86V43.07C25.81 43.2 25.86 43.32 25.95 43.42L30.57 48.15L25.96 52.69H25.95ZM26.79 42.87V32.79C26.79 32.6 26.68 32.42 26.5 32.34C26.32 32.26 26.12 32.29 25.97 32.41L20.98 36.64L16.31 31.95L21.31 26.72C21.4 26.62 21.45 26.49 21.45 26.36C21.45 26.23 21.39 26.1 21.29 26.01L16.66 21.79H26.29C26.42 21.79 26.54 21.74 26.64 21.65L31.26 17.11L35.88 21.65C35.97 21.74 36.1 21.79 36.23 21.79H45.86L41.21 26.01C41.11 26.1 41.05 26.23 41.05 26.36C41.05 26.49 41.09 26.62 41.19 26.72L46.21 31.95L41.54 36.64L36.55 32.41C36.4 32.28 36.2 32.26 36.02 32.34C35.84 32.42 35.73 32.6 35.73 32.79V42.87L31.26 47.45L26.79 42.87ZM41.89 57.79C41.8 57.69 41.67 57.64 41.53 57.64C41.4 57.64 41.27 57.69 41.18 57.79L36.72 62.33V53.06C36.72 52.93 36.67 52.8 36.57 52.71L31.96 48.17L36.58 43.44C36.67 43.35 36.72 43.22 36.72 43.09V33.88L41.24 37.71C41.44 37.88 41.73 37.86 41.91 37.68L46.88 32.69L51.5 37.34L46.26 42.75C46.12 42.89 46.08 43.1 46.16 43.29C46.24 43.47 46.42 43.59 46.62 43.59H57.32L61.79 48.17L57.32 52.57H46.61C46.41 52.57 46.22 52.7 46.15 52.89C46.07 53.08 46.13 53.3 46.28 53.44L51.48 58.18L46.87 63.01L41.88 57.81L41.89 57.79Z" fill="white"/>
</svg>