<svg width="63" height="74" viewBox="0 0 63 74" fill="none" xmlns="http://www.w3.org/2000/svg">
<path d="M63 60.44L57.43 54.73L63 49.15V48.4L58.74 44.13C58.74 44.13 58.67 44.07 58.62 44.06L52.86 42.65L54.46 36.85C54.46 36.85 54.47 36.76 54.46 36.71L52.8 30.71L58.54 29.23C58.54 29.23 58.63 29.19 58.66 29.16L63.01 24.7V23.93L57.44 18.22L63.01 12.64V11.88L58.75 7.60999C58.75 7.60999 58.68 7.55001 58.63 7.54001L52.87 6.13L54.47 0.329987C54.47 0.329987 54.48 0.240002 54.47 0.190002L54.42 0H53.89L53.96 0.26001L52.37 6L44.3 4.03C44.17 4 44.03 4.07999 43.99 4.20999L41.84 12L36.19 10.54L31.87 6.10001L37.64 0.179993C37.64 0.179993 37.71 0.07 37.71 0H37.09L31.51 5.73001L25.93 0H25.32C25.32 0.06 25.34 0.129993 25.39 0.179993L31.16 6.10001L26.84 10.54L21.19 12L19.04 4.20999C19 4.07999 18.87 4 18.73 4.03L10.66 6L9.07001 0.26001L9.14001 0H8.60999L8.56 0.190002C8.56 0.190002 8.55 0.279987 8.56 0.329987L10.16 6.13L4.39999 7.54001C4.39999 7.54001 4.31 7.56999 4.28 7.60999L0 11.9V12.62L5.57999 18.21L0 23.94V24.67L4.35999 29.15C4.35999 29.15 4.43001 29.21 4.48001 29.22L10.22 30.7L8.56 36.7C8.56 36.7 8.55 36.79 8.56 36.84L10.16 42.64L4.39999 44.05C4.39999 44.05 4.31 44.08 4.28 44.12L0 48.41V49.13L5.57999 54.72L0 60.45V61.18L4.35999 65.66C4.35999 65.66 4.43001 65.72 4.48001 65.73L10.22 67.21L8.60999 73.02H9.14001L10.71 67.34L18.72 69.41C18.72 69.41 18.76 69.41 18.78 69.41C18.89 69.41 18.99 69.34 19.03 69.22L21.19 61.42L26.92 62.82L31.15 67.06L25.39 72.83C25.34 72.88 25.31 72.95 25.31 73.01H25.92L31.5 67.42L37.08 73.01H37.69C37.69 72.94 37.67 72.88 37.62 72.83L31.86 67.06L36.09 62.82L41.82 61.42L43.98 69.22C44.01 69.33 44.11 69.41 44.23 69.41C44.25 69.41 44.27 69.41 44.29 69.41L52.3 67.34L53.87 73.02H54.4L52.79 67.21L58.53 65.73C58.53 65.73 58.62 65.69 58.65 65.66L63 61.2V60.43V60.44ZM53.95 36.78L52.36 42.52L44.29 40.55C44.16 40.52 44.02 40.6 43.98 40.73L41.83 48.52L36.18 47.06L31.86 42.62L37.63 36.7C37.73 36.6 37.73 36.44 37.63 36.34L31.87 30.57L36.1 26.33L41.83 24.93L43.99 32.73C44.02 32.84 44.12 32.92 44.24 32.92C44.26 32.92 44.28 32.92 44.3 32.92L52.31 30.85L53.95 36.79V36.78ZM52.22 43.02L50.11 50.66L42.33 48.65L44.41 41.11L52.22 43.02ZM31.51 42.26L25.93 36.53L31.51 30.94L37.09 36.53L31.51 42.26ZM42.33 24.82L50.11 22.92L52.17 30.36L44.41 32.36L42.33 24.82ZM44.41 4.60999L52.22 6.51999L50.11 14.16L42.33 12.15L44.41 4.60999ZM42.19 12.64L50.23 14.71C50.23 14.71 50.27 14.71 50.29 14.71C50.4 14.71 50.5 14.64 50.54 14.52L52.72 6.63L58.43 8.03L62.66 12.27L56.9 18.04C56.8 18.14 56.8 18.3 56.9 18.4L62.67 24.32L58.35 28.76L52.67 30.22L50.54 22.53C50.5 22.4 50.37 22.32 50.23 22.35L42.19 24.32L40.58 18.48L42.2 12.64H42.19ZM27.03 11.04C27.03 11.04 27.12 11 27.15 10.97L31.51 6.48999L35.87 10.97C35.87 10.97 35.94 11.03 35.99 11.04L41.7 12.51L40.07 18.41C40.07 18.41 40.06 18.5 40.07 18.55L41.7 24.44L35.91 25.86C35.91 25.86 35.82 25.89 35.79 25.93L31.51 30.22L27.23 25.93C27.23 25.93 27.16 25.87 27.11 25.86L21.32 24.44L22.95 18.55C22.95 18.55 22.96 18.46 22.95 18.41L21.32 12.51L27.03 11.04ZM18.6 4.60999L20.68 12.15L12.9 14.16L10.79 6.51999L18.6 4.60999ZM4.67999 28.76L0.359985 24.32L6.13 18.4C6.23 18.3 6.23 18.14 6.13 18.04L0.369995 12.27L4.60001 8.03L10.31 6.63L12.49 14.52C12.52 14.63 12.62 14.71 12.74 14.71C12.76 14.71 12.78 14.71 12.8 14.71L20.84 12.64L22.46 18.48L20.84 24.32L12.8 22.35C12.67 22.32 12.53 22.4 12.49 22.53L10.36 30.22L4.69 28.76H4.67999ZM20.69 24.82L18.61 32.36L10.85 30.36L12.91 22.92L20.69 24.82ZM9.07001 36.78L10.71 30.84L18.72 32.91C18.72 32.91 18.76 32.91 18.78 32.91C18.89 32.91 18.99 32.84 19.03 32.72L21.19 24.92L26.92 26.32L31.15 30.56L25.39 36.33C25.29 36.43 25.29 36.59 25.39 36.69L31.16 42.61L26.84 47.05L21.19 48.51L19.04 40.72C19 40.59 18.87 40.51 18.73 40.54L10.66 42.51L9.07001 36.77V36.78ZM20.69 48.65L12.91 50.66L10.8 43.02L18.61 41.11L20.69 48.65ZM18.61 68.86L10.85 66.86L12.91 59.42L20.69 61.33L18.61 68.87V68.86ZM20.83 60.82L12.79 58.85C12.66 58.82 12.52 58.9 12.48 59.03L10.35 66.72L4.67999 65.26L0.359985 60.82L6.13 54.9C6.23 54.8 6.23 54.64 6.13 54.54L0.369995 48.77L4.60001 44.53L10.31 43.13L12.49 51.02C12.52 51.13 12.62 51.21 12.74 51.21C12.76 51.21 12.78 51.21 12.8 51.21L20.84 49.14L22.46 54.98L20.84 60.82H20.83ZM35.91 62.36C35.91 62.36 35.82 62.39 35.79 62.43L31.51 66.72L27.23 62.43C27.23 62.43 27.16 62.37 27.11 62.36L21.32 60.94L22.95 55.05C22.95 55.05 22.96 54.96 22.95 54.91L21.32 49.01L27.03 47.54C27.03 47.54 27.12 47.5 27.15 47.47L31.51 42.99L35.87 47.47C35.87 47.47 35.94 47.53 35.99 47.54L41.7 49.01L40.07 54.91C40.07 54.91 40.06 55 40.07 55.05L41.7 60.94L35.91 62.36ZM44.41 68.86L42.33 61.32L50.11 59.41L52.17 66.85L44.41 68.85V68.86ZM58.34 65.26L52.66 66.72L50.53 59.03C50.49 58.9 50.36 58.82 50.22 58.85L42.18 60.82L40.57 54.98L42.19 49.14L50.23 51.21C50.23 51.21 50.27 51.21 50.29 51.21C50.4 51.21 50.5 51.14 50.54 51.02L52.72 43.13L58.43 44.53L62.66 48.77L56.9 54.54C56.8 54.64 56.8 54.8 56.9 54.9L62.67 60.82L58.35 65.26H58.34Z" fill="white"/>
</svg>
