<svg width="71" height="123" viewBox="0 0 71 123" fill="none" xmlns="http://www.w3.org/2000/svg">
<path d="M63.52 120.53C63.52 120.53 63.61 120.46 63.64 120.42C63.66 120.39 63.67 120.37 63.68 120.34C63.68 120.32 63.7 120.3 63.71 120.28C63.71 120.26 63.71 120.24 63.71 120.22C63.71 120.19 63.72 120.15 63.71 120.12C63.71 120.06 63.69 120.01 63.66 119.96L63.57 119.8L62.19 117.41H65.12C65.12 117.41 65.13 117.41 65.14 117.41C65.19 117.41 65.24 117.41 65.28 117.38C65.38 117.34 65.46 117.26 65.51 117.15C65.53 117.1 65.54 117.04 65.54 116.99V114.05L68.08 115.52C68.14 115.56 68.22 115.58 68.29 115.58C68.29 115.58 68.36 115.58 68.4 115.56C68.44 115.55 68.48 115.52 68.52 115.5C68.53 115.5 68.54 115.48 68.55 115.47C68.58 115.44 68.61 115.41 68.64 115.37L69.88 113.22L70.01 112.99V110.95L68.58 108.47L66.25 104.42L65.53 103.16V96.03L68.2 97.81C68.3 97.87 68.41 97.9 68.53 97.87C68.64 97.85 68.74 97.78 68.8 97.68L70.02 95.65V94.08C70.02 94.08 69.94 94.15 69.91 94.19L68.3 96.87L65.53 95.03V92.07H69.01C69.18 92.07 69.33 91.97 69.39 91.82C69.41 91.78 69.42 91.74 69.42 91.7C69.44 91.58 69.4 91.46 69.32 91.36L68.3 90.22L67.52 89.34L70.01 87.54V86.14L67.66 84.42L69.32 82.44C69.42 82.32 69.44 82.15 69.37 82.01C69.3 81.87 69.17 81.78 69 81.78L65.79 81.82L65.75 78.83L68.02 77.16L69.51 79.7C69.58 79.82 69.71 79.89 69.86 79.9C69.91 79.9 69.95 79.89 70 79.87V78.44L69.85 78.71L68.48 76.38C68.42 76.28 68.33 76.21 68.22 76.19C68.11 76.17 68 76.19 67.9 76.26L65.7 77.88L65.55 76.5L65.34 74.56V74.53C65.34 74.53 65.32 74.46 65.31 74.43C65.31 74.41 65.31 74.39 65.29 74.37C65.26 74.32 65.22 74.27 65.17 74.24C65.12 74.2 65.07 74.18 65.01 74.17C64.96 74.17 64.9 74.16 64.84 74.17L62.67 74.6L62.95 74.11L63.06 73.91L64.13 72.06C64.13 72.06 64.14 72.02 64.15 71.99C64.16 71.96 64.18 71.93 64.18 71.9C64.19 71.79 64.16 71.68 64.1 71.59C64.08 71.56 64.05 71.55 64.03 71.53C64.01 71.51 64 71.5 63.98 71.49L61.53 70.07L63.43 69.12C63.43 69.12 63.46 69.1 63.47 69.09C63.54 69.09 63.6 69.06 63.66 69.02C63.85 68.89 63.9 68.63 63.77 68.43L62.41 66.46H65.33C65.56 66.46 65.75 66.27 65.75 66.04C65.75 66.01 65.75 65.99 65.75 65.96V63.11L67.42 64.57C67.42 64.57 67.49 64.61 67.52 64.63C67.54 64.63 67.55 64.65 67.57 64.65C67.62 64.67 67.68 64.68 67.74 64.67C67.74 64.67 67.77 64.66 67.78 64.66C67.82 64.66 67.86 64.64 67.9 64.62C67.9 64.62 67.9 64.62 67.91 64.62C67.95 64.59 67.99 64.56 68.03 64.52L69.44 62.6L70.01 61.82V60.26L69.19 59.15L68.04 57.58V57.56H68.03C68.01 57.53 67.97 57.51 67.94 57.48C67.93 57.48 67.92 57.46 67.9 57.45C67.85 57.42 67.79 57.4 67.73 57.39C67.61 57.38 67.5 57.42 67.41 57.49L66.25 58.51L65.74 58.95V56.01C65.74 55.96 65.73 55.9 65.71 55.85C65.67 55.75 65.59 55.67 65.48 55.62C65.43 55.6 65.37 55.59 65.32 55.59H62.49L63.66 53.81C63.66 53.81 63.67 53.78 63.68 53.77C63.73 53.73 63.78 53.68 63.81 53.61C63.91 53.4 63.81 53.15 63.61 53.05L61.45 52.02L63.97 50.56C64.07 50.5 64.14 50.41 64.17 50.3C64.18 50.25 64.19 50.19 64.18 50.14C64.18 50.09 64.16 50.03 64.13 49.98L63.37 48.66L62.66 47.43L64.83 47.86C64.83 47.86 64.92 47.86 64.97 47.86C64.97 47.86 64.99 47.86 65 47.86C65.06 47.85 65.11 47.82 65.16 47.79C65.16 47.79 65.2 47.74 65.22 47.72C65.24 47.7 65.26 47.68 65.27 47.66C65.28 47.63 65.29 47.6 65.3 47.57C65.3 47.55 65.32 47.53 65.32 47.51V47.47L65.66 44.42L67.8 45.9C67.87 45.95 67.95 45.97 68.04 45.97C68.07 45.97 68.1 45.97 68.13 45.97C68.24 45.95 68.34 45.87 68.4 45.77L69.86 43.32L69.99 43.53V42.1C69.99 42.1 69.91 42.08 69.86 42.08C69.72 42.08 69.57 42.16 69.5 42.29L67.91 44.96L65.75 43.47C65.75 43.41 65.72 43.36 65.69 43.31C65.69 43.31 65.69 43.3 65.68 43.29C65.64 43.2 65.57 43.14 65.48 43.1L65.43 43.08V40.17H68.91C69.08 40.17 69.23 40.07 69.29 39.92C69.36 39.77 69.33 39.59 69.22 39.46L67.42 37.44L69.96 35.6C69.96 35.6 69.98 35.6 69.99 35.6V34.57L67.5 32.77L69.3 30.75C69.38 30.66 69.42 30.53 69.4 30.41C69.4 30.37 69.38 30.33 69.37 30.29C69.32 30.18 69.22 30.09 69.11 30.06C69.07 30.05 69.03 30.04 68.99 30.04H65.51V26.96L67.99 25.24L69.57 27.91C69.65 28.04 69.78 28.12 69.93 28.12C69.93 28.12 69.97 28.12 69.98 28.12V26.8L69.93 26.89L68.47 24.44C68.41 24.34 68.31 24.27 68.2 24.24C68.09 24.22 67.97 24.24 67.87 24.31L65.5 25.95V18.95L68.33 14.03L69.98 11.16V9.11998L68.61 6.74998C68.61 6.74998 68.55 6.65999 68.5 6.62999C68.41 6.55999 68.3 6.52999 68.19 6.54999C68.14 6.54999 68.08 6.56999 68.03 6.59999L65.49 8.06999V5.12998C65.49 5.06998 65.48 5.01999 65.46 4.96999C65.46 4.96999 65.43 4.92999 65.41 4.89999C65.4 4.87999 65.38 4.84999 65.37 4.82999C65.37 4.82999 65.35 4.81998 65.34 4.80998C65.31 4.77998 65.27 4.74998 65.23 4.73998C65.18 4.71998 65.12 4.70998 65.07 4.70998H62.14L63.61 2.15999C63.61 2.15999 63.66 2.05998 63.66 1.99998C63.66 1.99998 63.66 1.99998 63.66 1.98998C63.66 1.96998 63.66 1.94999 63.66 1.93999C63.66 1.89999 63.66 1.86998 63.66 1.83998C63.66 1.79998 63.63 1.76998 63.61 1.73998C63.61 1.71998 63.6 1.70999 63.59 1.68999C63.59 1.68999 63.51 1.60999 63.47 1.57999L62.76 1.16998L60.93 0.109985H59.25L58.13 0.759987L51.31 4.70998H44.21L45.97 2.03999C46.03 1.93999 46.05 1.82998 46.03 1.70998C46 1.59998 45.94 1.49999 45.84 1.43999L43.65 0.109985H42.19C42.22 0.199985 42.28 0.269984 42.36 0.319984L45.03 1.93999L43.2 4.70998H40.23V1.26998V1.23998C40.23 1.23998 40.23 1.15999 40.21 1.11999C40.17 0.999987 40.09 0.909983 39.98 0.849983C39.83 0.779983 39.65 0.809983 39.53 0.919983L38.49 1.84998L37.51 2.71999L37.32 2.45998L36.03 0.669983L35.64 0.129982H34.56L32.69 2.72999L31.18 1.37998L30.85 1.07999L30.67 0.919983C30.55 0.809983 30.37 0.779983 30.22 0.849983C30.07 0.919983 29.97 1.06999 29.97 1.22999V4.71999H26.9L25.19 2.22999L27.85 0.639984C27.98 0.559984 28.05 0.429984 28.05 0.279984C28.05 0.219984 28.04 0.169987 28.02 0.119987H26.56L26.81 0.269981L24.37 1.72999C24.27 1.78999 24.2 1.88998 24.17 1.99998C24.15 2.11998 24.17 2.22999 24.24 2.32999L25.88 4.70998H18.9L15.82 2.92999L10.96 0.119987H9.27L6.73 1.58998C6.73 1.58998 6.72001 1.59999 6.71001 1.60999C6.67001 1.63999 6.63 1.65998 6.61 1.69998C6.58 1.73998 6.57 1.77998 6.55 1.81998C6.55 1.81998 6.55001 1.83998 6.54001 1.84998C6.54001 1.84998 6.54001 1.85999 6.54001 1.86999C6.54001 1.91999 6.52001 1.95999 6.54001 2.00999C6.54001 2.00999 6.56001 2.07999 6.57001 2.10999C6.57001 2.12999 6.57 2.14998 6.59 2.16998L6.66 2.28999L8.06 4.71999H5.13C5.07 4.71999 5.02 4.72998 4.97 4.74998C4.87 4.78998 4.79001 4.86999 4.74001 4.97999C4.72001 5.02999 4.71001 5.08998 4.71001 5.13998V8.07999L3.08 7.13998L2.16 6.60999C2.16 6.60999 2.06 6.55998 2 6.55998C1.89 6.54998 1.78 6.57998 1.69 6.63998C1.65 6.66998 1.61 6.71998 1.58 6.75998L0.660004 8.34999L0.130005 9.26999L0.110001 9.30998L0.0100098 9.12999V11.17L0.110001 11L4.69 18.96V26.08L2.02 24.31C1.92 24.25 1.81 24.23 1.69 24.25C1.58 24.28 1.48 24.34 1.42 24.44L0 26.81V28.13C0.13 28.12 0.239998 28.04 0.309998 27.93L1.92 25.25L4.69 27.08V30.05H1.25H1.21001C1.04001 30.05 0.890002 30.15 0.830002 30.3C0.760002 30.45 0.790009 30.63 0.900009 30.76L1.56 31.5L2.7 32.79L0.160004 34.63C0.160004 34.63 0.0800085 34.62 0.0400085 34.63L0.0100098 34.6V35.63C0.0100098 35.63 0.0600018 35.64 0.0800018 35.64C0.0800018 35.64 0.0900061 35.64 0.100006 35.64C0.100006 35.64 0.100001 35.64 0.110001 35.64C0.110001 35.64 0.11001 35.64 0.12001 35.64C0.12001 35.64 0.129999 35.64 0.139999 35.64C0.139999 35.64 0.140004 35.64 0.160004 35.64L2.64 37.46L0.87001 39.49C0.76001 39.61 0.740003 39.79 0.800003 39.94C0.870003 40.09 1.02001 40.19 1.18001 40.19H4.62001V43.1L4.57001 43.12C4.48001 43.16 4.41001 43.23 4.37001 43.31C4.37001 43.31 4.37 43.33 4.36 43.34L1.86 44.99L0.25 42.31C0.2 42.22 0.110004 42.16 0.0200043 42.13V43.56L1.37001 45.8C1.43001 45.9 1.52 45.97 1.64 45.99C1.75 46.02 1.87001 45.99 1.96001 45.93L4.38 44.33L4.44 44.91L4.73 47.5V47.53C4.73 47.53 4.75001 47.59 4.76001 47.62C4.76001 47.65 4.77001 47.67 4.79001 47.7C4.82001 47.75 4.86 47.79 4.91 47.83C4.91 47.83 4.92001 47.83 4.93001 47.83C4.97001 47.86 5.02001 47.88 5.07001 47.89C5.07001 47.89 5.08 47.89 5.09 47.89C5.14 47.89 5.19001 47.9 5.24001 47.89L5.34 47.87L7.42 47.46L6.71001 48.69L5.96001 50C5.96001 50 5.91 50.1 5.91 50.16C5.91 50.19 5.91 50.22 5.91 50.25C5.91 50.27 5.91 50.3 5.91 50.33C5.91 50.35 5.93 50.36 5.94 50.38C5.95 50.41 5.96001 50.45 5.99001 50.48C5.99001 50.48 6.07 50.56 6.11 50.59L8.56 52.01L6.66 52.96C6.66 52.96 6.63001 52.98 6.62001 52.99C6.55001 52.99 6.49001 53.02 6.43001 53.06C6.24001 53.19 6.19001 53.45 6.32001 53.65L7.68001 55.62H4.77C4.66 55.62 4.55 55.67 4.47 55.74C4.44 55.77 4.42001 55.8 4.40001 55.84C4.37001 55.9 4.34 55.97 4.34 56.04V58.98L2.67 57.52C2.63 57.49 2.58 57.46 2.53 57.44C2.53 57.44 2.53 57.44 2.52 57.44C2.46 57.42 2.41001 57.41 2.35001 57.42C2.29001 57.42 2.23001 57.45 2.18001 57.48C2.13001 57.51 2.09 57.54 2.06 57.59L0.0599976 60.33L0.0299988 60.29V61.85L0.0599976 61.81L0.37001 62.23L2.07001 64.54C2.07001 64.54 2.13 64.6 2.16 64.63C2.17 64.63 2.18 64.65 2.19 64.66C2.19 64.66 2.3 64.71 2.36 64.72C2.36 64.72 2.36001 64.72 2.37001 64.72C2.42001 64.72 2.48 64.72 2.53 64.7C2.53 64.7 2.54 64.7 2.55 64.7C2.6 64.68 2.64001 64.66 2.68001 64.62L3.23 64.13L4.34 63.16V66.1C4.34 66.16 4.35001 66.21 4.37001 66.26C4.37001 66.26 4.42 66.34 4.45 66.38C4.45 66.38 4.45001 66.39 4.46001 66.4C4.50001 66.44 4.54 66.47 4.59 66.49C4.59 66.49 4.65 66.5 4.69 66.51C4.71 66.51 4.73001 66.52 4.76001 66.52H7.59L6.42 68.3C6.42 68.3 6.41001 68.33 6.40001 68.35C6.35001 68.39 6.3 68.44 6.27 68.5C6.17 68.71 6.27 68.96 6.47 69.06L8.63 70.09L6.11 71.55C6.01 71.6 5.94 71.7 5.91 71.81C5.9 71.86 5.89 71.92 5.91 71.97C5.91 71.99 5.92 72 5.92 72.02C5.92 72.06 5.94001 72.1 5.96001 72.13L6.29001 72.71L7.42 74.68L5.25 74.25C5.25 74.25 5.15 74.25 5.11 74.25C5.11 74.25 5.09 74.25 5.08 74.25C5.02 74.26 4.97 74.29 4.92 74.32C4.88 74.36 4.84 74.4 4.81 74.44C4.81 74.44 4.81 74.46 4.8 74.47C4.78 74.51 4.76001 74.56 4.76001 74.6L4.54001 76.57L4.38 78.01L1.8 76.28C1.71 76.22 1.59001 76.2 1.49001 76.22C1.38001 76.25 1.29001 76.32 1.24001 76.41L0.0500031 78.53V79.95C0.140003 79.92 0.220004 79.86 0.270004 79.77L1.73 77.18L4.3 78.91L4.34 81.79L1.16 81.83C1.01 81.83 0.870003 81.92 0.800003 82.06C0.740003 82.2 0.760001 82.37 0.860001 82.48L2.53 84.43L0.169998 86.28L0.0500031 86.19V87.6L0.150009 87.53L2.74001 89.41L0.940002 91.43C0.880002 91.49 0.849996 91.57 0.839996 91.65C0.839996 91.67 0.839996 91.69 0.839996 91.72C0.839996 91.74 0.839996 91.76 0.839996 91.77C0.839996 91.77 0.86001 91.85 0.87001 91.89C0.94001 92.04 1.09 92.14 1.25 92.14H4.73V95.23L2.25 96.94L0.660004 94.27C0.580004 94.14 0.450003 94.06 0.300003 94.06C0.210003 94.06 0.120003 94.09 0.0500031 94.15V95.72L0.300003 95.3L1.76001 97.75C1.82001 97.85 1.92 97.92 2.03 97.94C2.06 97.94 2.09001 97.94 2.12001 97.94C2.20001 97.94 2.29 97.92 2.36 97.87L4.73 96.23V103.23L4.31 103.95L0.139999 111.19L0.0400085 111.02V113.06L0.139999 112.88L1.40001 115.07L1.61 115.43C1.61 115.43 1.65001 115.49 1.68001 115.52C1.68001 115.52 1.70001 115.53 1.71001 115.54C1.71001 115.54 1.73001 115.55 1.74001 115.56C1.78001 115.59 1.82001 115.61 1.87001 115.62C1.87001 115.62 1.94 115.63 1.97 115.63C1.97 115.63 2.04 115.63 2.08 115.61C2.12 115.61 2.15001 115.59 2.18001 115.57L3.77 114.65L4.72 114.1V116.12V117.04C4.72 117.1 4.73 117.15 4.75 117.2C4.75 117.2 4.79 117.26 4.81 117.29C4.82 117.31 4.83 117.33 4.84 117.34C4.84 117.34 4.92 117.41 4.97 117.43C4.98 117.43 4.99001 117.43 5.01001 117.43C5.05001 117.44 5.09 117.46 5.13 117.46H8.06L7.05 119.21L6.59 120.01C6.59 120.01 6.55001 120.11 6.54001 120.17C6.54001 120.19 6.54001 120.21 6.54001 120.23C6.54001 120.26 6.54001 120.29 6.54001 120.32C6.54001 120.34 6.56001 120.36 6.57001 120.38C6.58001 120.41 6.59 120.44 6.61 120.47C6.61 120.47 6.68 120.55 6.73 120.58L8.2 121.43L9.27 122.05H10.96L18.9 117.45H26L24.24 120.12C24.18 120.22 24.16 120.34 24.18 120.45C24.21 120.56 24.27 120.66 24.37 120.72L26.56 122.05H28.02C27.99 121.97 27.93 121.89 27.85 121.84L25.18 120.23L27.01 117.45H29.98V120.94C29.98 121.11 30.08 121.26 30.23 121.33C30.38 121.4 30.56 121.37 30.68 121.26L31.87 120.2L32.7 119.46L34.57 122.06H35.65L37.52 119.46L39.54 121.26C39.54 121.26 39.61 121.31 39.64 121.33C39.75 121.38 39.88 121.38 39.99 121.33C39.99 121.33 40.04 121.3 40.07 121.28C40.07 121.28 40.09 121.28 40.1 121.26C40.19 121.18 40.25 121.06 40.25 120.94V117.45H43.32L45.03 119.94L42.37 121.53C42.24 121.61 42.16 121.74 42.16 121.89C42.16 121.94 42.17 122 42.19 122.04H43.65L43.4 121.89L45.84 120.43C45.94 120.37 46.01 120.27 46.04 120.16C46.07 120.05 46.04 119.93 45.98 119.83L44.34 117.45H51.32L59.26 122.05H60.95L61.99 121.44L63.49 120.57L63.52 120.53ZM65.57 8.93999L68.17 7.43999L69.67 10.04L65.57 17.16V8.93999ZM4.73 113.06L2.13 114.56L0.630005 111.95L1.57001 110.32L3.19 107.5L4.72 104.84V113.06H4.73ZM64.72 116.56H61.72L60.88 115.1L57.63 109.45L64.73 113.56V116.57L64.72 116.56ZM46.02 108.27L47.53 111.01L44.56 112.5L41.99 111.01L43.44 108.49L43.71 108.03L43.73 107.99C43.81 107.85 43.81 107.67 43.71 107.53C43.68 107.5 43.66 107.47 43.62 107.44C43.62 107.44 43.62 107.44 43.61 107.44C43.58 107.42 43.55 107.4 43.52 107.39C43.45 107.36 43.36 107.35 43.28 107.37L41.94 107.65L40.63 107.92L40.49 106.58L40.3 104.73L43.22 103.42L44.07 105.99C44.12 106.15 44.26 106.26 44.43 106.28C44.56 106.29 44.69 106.24 44.78 106.15C44.8 106.13 44.82 106.1 44.84 106.07L44.86 106.04L45.39 105.12L46.58 103.06L49.24 104.6L49.48 107.61L46.38 107.65C46.23 107.65 46.1 107.73 46.02 107.86C45.95 107.99 45.94 108.15 46.02 108.28V108.27ZM49.35 100.71C49.12 100.73 48.95 100.93 48.96 101.17L49.15 103.56L47.51 102.61L46.63 102.1C46.63 102.1 46.53 102.05 46.47 102.05C46.42 102.05 46.36 102.05 46.3 102.05C46.19 102.08 46.1 102.15 46.05 102.25L45.75 102.76L44.58 104.79L43.92 102.84L43.87 102.69C43.87 102.69 43.83 102.62 43.82 102.59C43.81 102.57 43.8 102.55 43.79 102.54C43.79 102.54 43.79 102.54 43.78 102.54C43.74 102.5 43.7 102.47 43.65 102.45C43.61 102.43 43.56 102.43 43.52 102.42C43.51 102.42 43.5 102.42 43.49 102.42C43.43 102.42 43.37 102.43 43.32 102.46L40.59 103.66V100.7C40.59 100.47 40.4 100.28 40.17 100.28H37.24L38.7 98.61C38.78 98.52 38.81 98.4 38.8 98.29C38.79 98.17 38.73 98.07 38.63 98L35.94 96.02L36.96 95.27L38.55 94.1C38.55 94.1 38.62 94.03 38.65 93.98C38.65 93.98 38.65 93.98 38.66 93.97C38.69 93.92 38.71 93.86 38.72 93.8C38.72 93.8 38.72 93.75 38.72 93.73C38.72 93.7 38.72 93.66 38.72 93.63C38.72 93.62 38.71 93.61 38.7 93.6C38.68 93.56 38.66 93.52 38.63 93.48L37.17 91.81H40.1C40.1 91.81 40.12 91.81 40.13 91.81C40.17 91.81 40.22 91.81 40.26 91.78C40.36 91.74 40.44 91.66 40.49 91.55C40.51 91.5 40.52 91.44 40.52 91.39V88.55L42.29 89.72C42.29 89.72 42.32 89.73 42.34 89.74C42.38 89.79 42.43 89.84 42.49 89.87C42.55 89.9 42.61 89.91 42.67 89.91C42.83 89.91 42.98 89.82 43.05 89.67L44.08 87.5L45.54 90.03C45.6 90.13 45.69 90.2 45.8 90.23C45.91 90.26 46.02 90.24 46.12 90.19L48.66 88.72L48.23 90.9C48.23 90.9 48.23 90.98 48.23 91.01C48.23 91.03 48.23 91.05 48.23 91.07C48.23 91.11 48.26 91.15 48.28 91.18C48.28 91.2 48.29 91.21 48.3 91.23C48.3 91.23 48.34 91.26 48.36 91.28C48.38 91.3 48.4 91.33 48.43 91.34C48.43 91.34 48.44 91.34 48.45 91.34C48.47 91.35 48.5 91.36 48.53 91.37C48.55 91.37 48.57 91.39 48.6 91.39H48.64L52.14 91.78L50.7 95.07V95.1H50.69C50.68 95.13 50.68 95.16 50.67 95.19C50.67 95.22 50.65 95.24 50.65 95.26C50.65 95.32 50.66 95.38 50.69 95.43C50.69 95.43 50.72 95.47 50.73 95.49C50.75 95.52 50.76 95.55 50.79 95.57C50.79 95.57 50.82 95.59 50.84 95.6C50.87 95.62 50.9 95.64 50.94 95.66L53.04 96.38L51.71 97.15L50.51 97.85C50.51 97.85 50.42 97.92 50.39 97.96C50.39 97.96 50.37 98.01 50.35 98.03C50.34 98.05 50.32 98.08 50.31 98.1C50.31 98.1 50.31 98.1 50.31 98.11C50.3 98.16 50.29 98.21 50.31 98.26C50.31 98.31 50.34 98.37 50.36 98.42L51.78 100.88L49.66 100.75C49.66 100.75 49.63 100.75 49.61 100.75C49.55 100.72 49.48 100.71 49.41 100.71H49.35ZM26.57 107.98L26.59 108.02L26.78 108.35L27.2 109.09L28.3 111L25.64 112.54L22.92 111.24L24.43 108.53C24.5 108.4 24.5 108.24 24.43 108.11C24.36 107.98 24.22 107.9 24.07 107.9L20.95 107.84L21.15 104.52L23.72 103.03L25.46 106.05C25.54 106.19 25.7 106.28 25.87 106.26C26.03 106.24 26.18 106.13 26.23 105.97L26.66 104.68L27.08 103.4L29.79 104.62C29.79 104.62 29.86 104.71 29.91 104.75L29.99 104.8L29.68 107.9L28.54 107.66L27.04 107.35C27.04 107.35 27.01 107.35 26.99 107.35C26.96 107.35 26.94 107.35 26.91 107.35C26.89 107.35 26.87 107.35 26.85 107.36C26.83 107.36 26.81 107.36 26.8 107.37C26.79 107.37 26.77 107.39 26.76 107.39C26.7 107.42 26.65 107.46 26.61 107.51C26.56 107.58 26.53 107.66 26.53 107.74C26.53 107.82 26.54 107.9 26.59 107.97L26.57 107.98ZM29.85 100.38C29.77 100.46 29.73 100.57 29.73 100.68V103.64L29.21 103.41L27.03 102.45H27.01C26.98 102.44 26.95 102.44 26.93 102.43C26.9 102.43 26.88 102.41 26.85 102.41C26.79 102.41 26.73 102.42 26.68 102.45C26.57 102.5 26.49 102.59 26.45 102.7L25.74 104.8L25.36 104.14L25.1 103.69L24.28 102.26C24.28 102.26 24.21 102.17 24.17 102.14C24.08 102.07 23.97 102.04 23.86 102.06C23.81 102.06 23.75 102.08 23.7 102.11L21.25 103.53L21.38 101.4C21.38 101.4 21.38 101.36 21.38 101.35C21.41 101.29 21.42 101.22 21.42 101.15C21.4 100.92 21.2 100.74 20.97 100.76L18.58 100.95L20.04 98.42C20.04 98.42 20.09 98.32 20.09 98.26C20.09 98.21 20.09 98.15 20.08 98.09C20.05 97.98 19.98 97.89 19.88 97.83L18.19 96.85L17.34 96.36L19.44 95.64C19.44 95.64 19.52 95.6 19.56 95.57C19.56 95.57 19.58 95.56 19.59 95.55C19.59 95.55 19.6 95.53 19.61 95.52C19.64 95.49 19.67 95.45 19.69 95.41C19.69 95.41 19.69 95.36 19.7 95.34C19.7 95.31 19.72 95.27 19.72 95.24C19.72 95.21 19.71 95.18 19.7 95.15C19.7 95.12 19.7 95.09 19.68 95.07V95.06L18.23 91.73L19.3 91.61L21.61 91.35C21.61 91.35 21.7 91.33 21.75 91.31C21.75 91.31 21.77 91.31 21.78 91.31C21.83 91.28 21.88 91.24 21.91 91.19C21.95 91.14 21.97 91.09 21.98 91.03C21.98 91.01 21.98 90.98 21.98 90.96C21.98 90.93 21.98 90.9 21.98 90.86L21.55 88.68L22.38 89.16L24.09 90.15C24.09 90.15 24.19 90.2 24.25 90.2C24.36 90.21 24.47 90.18 24.56 90.11C24.56 90.11 24.64 90.04 24.67 89.99L26.08 87.53L27.03 89.44C27.03 89.44 27.05 89.47 27.06 89.49C27.06 89.55 27.09 89.62 27.13 89.68C27.21 89.8 27.34 89.86 27.48 89.86C27.56 89.86 27.65 89.84 27.72 89.79L29.69 88.43V91.35C29.69 91.46 29.73 91.57 29.81 91.65C29.89 91.73 30 91.77 30.11 91.77H33.04L31.59 93.43H31.58V93.44C31.56 93.47 31.55 93.5 31.53 93.53C31.52 93.55 31.5 93.57 31.49 93.59C31.49 93.59 31.49 93.62 31.49 93.63C31.49 93.67 31.47 93.72 31.48 93.76C31.48 93.76 31.48 93.78 31.48 93.79C31.48 93.84 31.5 93.89 31.53 93.93C31.53 93.93 31.55 93.95 31.56 93.97C31.58 94 31.61 94.04 31.64 94.06L33.65 95.54L34.35 96.06L31.71 97.97C31.61 98.04 31.55 98.15 31.54 98.27C31.53 98.39 31.56 98.51 31.64 98.6L33.13 100.27H30.17C30.06 100.27 29.95 100.31 29.87 100.39L29.85 100.38ZM6.62001 101.57L9.12001 97.22L10.56 100.08C10.61 100.18 10.7 100.26 10.81 100.29C10.92 100.32 11.04 100.31 11.14 100.25L13.64 98.87L13.68 101.72C13.68 101.84 13.73 101.95 13.82 102.03C13.9 102.1 14 102.14 14.1 102.14C14.11 102.14 14.12 102.14 14.13 102.14L17.01 101.91L16.22 103.29L13.52 107.97L5.58 112.57V110.27V103.37L6.62001 101.56V101.57ZM5.58 101.69V95.57L7.60001 94.18L8.67 96.32L5.58 101.69ZM14.75 95.05L14.38 93.27L14.2 92.4L17.38 92.08L18.22 93.95L18.69 95L17.84 95.28L16.12 95.85C16.04 95.88 15.97 95.92 15.92 95.99C15.87 96.05 15.84 96.13 15.83 96.21C15.81 96.37 15.89 96.54 16.04 96.62L16.07 96.64L16.56 96.92L16.97 97.16L19.05 98.36L17.51 101.03L14.5 101.27L14.46 98.16C14.46 98.01 14.38 97.87 14.25 97.8C14.12 97.73 13.96 97.72 13.84 97.8L11.11 99.31L9.62001 96.35L11.11 93.76L13.79 95.31L14.09 95.48L14.13 95.5C14.2 95.54 14.28 95.56 14.36 95.55C14.44 95.55 14.52 95.52 14.59 95.47C14.72 95.37 14.79 95.21 14.75 95.04V95.05ZM19.3 86.47C19.3 86.47 19.29 86.45 19.28 86.44C19.25 86.41 19.22 86.38 19.18 86.36L18.76 86.12L16.17 84.62L17.71 81.95L20.72 81.71L20.76 84.82C20.76 84.97 20.84 85.1 20.97 85.18C21.1 85.25 21.25 85.26 21.38 85.18L24.11 83.67L25.59 86.64L24.11 89.22L21.38 87.64L21.13 87.5L21.1 87.48C21.03 87.44 20.95 87.42 20.87 87.42C20.79 87.42 20.71 87.45 20.65 87.5C20.55 87.57 20.49 87.69 20.48 87.81C20.48 87.85 20.48 87.89 20.48 87.93L20.87 89.81L21.03 90.59L17.85 90.91L16.54 87.99L19.11 87.14C19.27 87.09 19.38 86.95 19.4 86.78C19.41 86.67 19.38 86.57 19.31 86.48L19.3 86.47ZM13.29 71.41C13.25 71.3 13.17 71.21 13.07 71.16L10.46 69.92L16.51 66.42H25.68L22.7 71.59L21.09 74.38L17.27 76.59L14.94 77.94L15.13 74.74C15.13 74.63 15.1 74.51 15.02 74.43C14.94 74.35 14.83 74.3 14.72 74.29L11.87 74.24L13.26 71.75C13.32 71.65 13.33 71.53 13.29 71.42V71.41ZM11 62.56C10.97 62.45 10.9 62.35 10.81 62.29L8.37001 60.81L10.81 59.35C10.91 59.29 10.98 59.19 11.01 59.08C11.03 58.97 11.01 58.85 10.94 58.75L9.3 56.37H16.28L24.22 60.97L23.1 61.62L16.28 65.57H9.18001L10.94 62.89C11 62.79 11.02 62.68 11 62.56ZM13.4 49.95L12.02 47.44L14.86 47.4C14.98 47.4 15.09 47.35 15.17 47.26C15.25 47.17 15.29 47.06 15.28 46.94L15.05 44.06L18.29 45.94L21.09 47.56L22.87 50.65L25.41 55.07L25.67 55.52H16.5L12.45 53.17L10.42 52L10.35 51.96L13.21 50.53C13.31 50.48 13.39 50.39 13.42 50.28C13.45 50.17 13.44 50.05 13.39 49.95H13.4ZM19.39 35.17C19.37 35 19.26 34.86 19.1 34.81L18.28 34.54L16.54 33.96L16.77 33.45L17.85 31.04L21.03 31.36L20.48 34.01C20.46 34.09 20.48 34.17 20.5 34.25C20.53 34.32 20.58 34.39 20.65 34.44C20.78 34.54 20.96 34.55 21.11 34.46L21.14 34.44L21.9 34L24.11 32.72L25.65 35.39L24.36 38.12L21.66 36.61C21.53 36.54 21.37 36.54 21.25 36.61C21.12 36.68 21.04 36.82 21.04 36.97L20.98 40.09L17.67 39.89L17.29 39.24L16.18 37.32L18.58 35.93L19.19 35.58C19.33 35.5 19.41 35.34 19.4 35.17H19.39ZM14.58 26.52C14.45 26.42 14.27 26.41 14.12 26.5L11.11 28.24L9.57001 25.57L10.86 22.84L13.56 24.35C13.69 24.42 13.85 24.42 13.97 24.35C14.1 24.28 14.18 24.14 14.18 23.99L14.24 20.86L17.55 21.06L19.03 23.64L16.79 24.94L16.2 25.28L16.02 25.38C15.88 25.46 15.79 25.62 15.81 25.79C15.83 25.96 15.94 26.1 16.1 26.15L16.61 26.32L18.66 27L17.35 29.92L14.17 29.6L14.72 26.94C14.72 26.94 14.73 26.86 14.72 26.82C14.72 26.7 14.65 26.59 14.55 26.51L14.58 26.52ZM24.28 13.73L22.77 10.99L25.74 9.49998L28.31 10.99L27.23 12.87L26.83 13.57L26.58 14.01C26.5 14.16 26.51 14.33 26.6 14.47C26.67 14.57 26.78 14.63 26.9 14.64C26.94 14.64 26.98 14.64 27.02 14.64L28.65 14.3L29.66 14.09L29.98 17.28L27.06 18.59L26.21 16.02C26.16 15.86 26.02 15.75 25.85 15.73C25.69 15.71 25.53 15.79 25.44 15.94L25.42 15.98L25.38 16.04L23.7 18.96L21.41 17.64L21.04 17.42L20.8 14.41L23.9 14.36C24.05 14.36 24.18 14.28 24.26 14.15C24.33 14.02 24.34 13.86 24.26 13.73H24.28ZM20.92 21.29C20.92 21.29 20.94 21.29 20.95 21.29C21.18 21.27 21.35 21.07 21.34 20.83L21.15 18.44L23.67 19.9C23.73 19.94 23.81 19.96 23.88 19.96C23.92 19.96 23.95 19.96 23.99 19.95C23.99 19.95 23.99 19.95 24 19.95C24.04 19.94 24.08 19.92 24.11 19.89C24.12 19.89 24.13 19.87 24.15 19.86C24.17 19.84 24.19 19.83 24.2 19.81C24.21 19.8 24.22 19.78 24.23 19.77C24.23 19.77 24.23 19.77 24.23 19.76L25.62 17.34L25.69 17.21L25.98 18.06L26.4 19.31C26.4 19.31 26.44 19.39 26.47 19.42C26.47 19.42 26.48 19.45 26.49 19.46C26.49 19.46 26.51 19.47 26.52 19.48C26.55 19.5 26.57 19.52 26.61 19.54C26.61 19.54 26.63 19.55 26.63 19.56C26.63 19.56 26.66 19.56 26.68 19.56C26.71 19.56 26.75 19.58 26.78 19.58C26.78 19.58 26.79 19.58 26.8 19.58C26.83 19.58 26.85 19.57 26.88 19.56C26.91 19.56 26.94 19.56 26.97 19.54L26.99 19.53L28.78 18.74L30.08 18.17L30.12 21.22C30.12 21.33 30.16 21.43 30.24 21.5C30.32 21.57 30.42 21.63 30.52 21.61L33.27 21.57L31.9 23.22C31.83 23.3 31.8 23.41 31.81 23.52C31.82 23.63 31.88 23.73 31.97 23.79L34.54 25.67L31.62 27.82H31.6V27.83C31.6 27.83 31.55 27.89 31.52 27.92C31.51 27.94 31.49 27.95 31.48 27.96C31.45 28.01 31.43 28.07 31.43 28.13C31.43 28.19 31.43 28.25 31.45 28.3C31.45 28.31 31.46 28.32 31.47 28.33C31.49 28.37 31.51 28.41 31.54 28.45L31.64 28.56L33 30.12H30.07C30.01 30.12 29.96 30.13 29.91 30.15C29.86 30.17 29.82 30.2 29.78 30.24C29.74 30.28 29.71 30.32 29.69 30.37C29.67 30.42 29.66 30.48 29.66 30.53V33.35L27.74 32.07C27.74 32.07 27.72 32.07 27.71 32.06C27.71 32.06 27.7 32.05 27.69 32.04C27.67 32.04 27.66 32.04 27.64 32.03C27.61 32.03 27.59 32.01 27.56 32.01C27.53 32.01 27.51 32.01 27.48 32.01C27.45 32.01 27.43 32.01 27.4 32.02C27.37 32.02 27.35 32.04 27.32 32.05C27.3 32.06 27.27 32.07 27.25 32.09C27.23 32.11 27.21 32.13 27.19 32.15C27.18 32.16 27.16 32.17 27.15 32.19C27.15 32.19 27.15 32.21 27.14 32.22C27.14 32.22 27.13 32.24 27.12 32.24L26.09 34.41L24.63 31.88C24.63 31.88 24.56 31.79 24.52 31.76C24.52 31.76 24.5 31.76 24.49 31.75C24.45 31.73 24.41 31.7 24.37 31.69C24.34 31.69 24.32 31.69 24.29 31.69C24.26 31.69 24.24 31.69 24.21 31.69C24.21 31.69 24.17 31.7 24.15 31.71C24.12 31.71 24.08 31.73 24.05 31.74L23.3 32.18L21.52 33.21L21.95 31.03C21.97 30.91 21.95 30.79 21.88 30.7C21.81 30.6 21.7 30.54 21.59 30.53L18.23 30.16L18.61 29.28L19.66 26.88C19.66 26.88 19.69 26.79 19.69 26.74C19.69 26.74 19.69 26.72 19.69 26.71C19.69 26.65 19.68 26.59 19.65 26.54C19.63 26.49 19.59 26.44 19.55 26.4C19.55 26.4 19.55 26.4 19.54 26.4C19.5 26.37 19.46 26.34 19.41 26.32L17.31 25.6L18.27 25.05L19.85 24.14C19.85 24.14 19.94 24.07 19.97 24.03C19.97 24.03 19.97 24.01 19.98 24C20 23.96 20.03 23.92 20.04 23.88C20.04 23.85 20.04 23.81 20.04 23.78C20.04 23.76 20.04 23.74 20.04 23.72C20.04 23.66 20.01 23.61 19.99 23.56L18.58 21.1L20.7 21.23C20.7 21.23 20.73 21.23 20.75 21.23C20.8 21.25 20.86 21.27 20.92 21.27V21.29ZM40.17 18.18L41.96 18.97L43.29 19.56H43.3C43.3 19.56 43.37 19.58 43.41 19.58C43.43 19.58 43.44 19.59 43.46 19.59C43.57 19.59 43.67 19.55 43.75 19.48C43.76 19.47 43.77 19.45 43.78 19.44C43.8 19.41 43.83 19.39 43.84 19.35L44.02 18.97L44.91 17.1L45.96 19.56L46.02 19.69C46.04 19.74 46.08 19.79 46.12 19.83C46.14 19.85 46.17 19.86 46.2 19.88C46.22 19.89 46.24 19.92 46.27 19.92C46.31 19.93 46.36 19.94 46.4 19.94C46.47 19.94 46.54 19.92 46.61 19.88L49.06 18.46L48.93 20.59C48.93 20.59 48.93 20.63 48.93 20.64C48.9 20.7 48.89 20.76 48.89 20.84C48.91 21.07 49.11 21.25 49.34 21.23L51.72 21.04L50.26 23.57C50.2 23.67 50.19 23.78 50.22 23.89C50.23 23.94 50.26 24 50.29 24.04C50.32 24.08 50.36 24.12 50.41 24.15L51.6 24.84L52.95 25.62L50.85 26.34C50.85 26.34 50.82 26.36 50.8 26.37C50.78 26.37 50.77 26.39 50.75 26.4C50.74 26.41 50.72 26.42 50.71 26.43C50.71 26.43 50.71 26.43 50.71 26.44C50.67 26.48 50.64 26.52 50.62 26.57C50.62 26.57 50.62 26.62 50.6 26.64C50.6 26.67 50.58 26.7 50.58 26.74C50.58 26.74 50.59 26.79 50.59 26.81C50.59 26.84 50.59 26.88 50.61 26.91L51.09 28.02L52.03 30.17L48.56 30.56H48.53C48.5 30.56 48.47 30.58 48.44 30.59C48.42 30.59 48.39 30.59 48.37 30.61C48.32 30.64 48.27 30.68 48.24 30.73C48.17 30.82 48.14 30.95 48.17 31.06L48.6 33.24L47.54 32.63L46.06 31.77C46.06 31.77 45.96 31.72 45.9 31.72C45.85 31.72 45.79 31.72 45.74 31.73C45.63 31.76 45.54 31.83 45.49 31.93L44.64 33.42L44.07 34.41L43.03 32.34C43.03 32.34 43.02 32.33 43.01 32.32C43.01 32.32 43.01 32.3 43 32.29C42.99 32.28 42.97 32.26 42.96 32.25C42.94 32.23 42.92 32.21 42.9 32.19C42.88 32.17 42.86 32.16 42.83 32.15C42.81 32.14 42.78 32.13 42.75 32.12C42.72 32.12 42.7 32.12 42.67 32.11C42.64 32.11 42.62 32.11 42.59 32.11C42.56 32.11 42.54 32.12 42.51 32.13C42.49 32.13 42.47 32.13 42.46 32.14C42.46 32.14 42.45 32.15 42.44 32.16C42.44 32.16 42.42 32.16 42.41 32.17L40.47 33.51V30.58C40.47 30.58 40.47 30.57 40.47 30.56C40.47 30.51 40.46 30.46 40.44 30.41C40.43 30.38 40.4 30.35 40.38 30.32C40.37 30.3 40.36 30.28 40.35 30.27C40.32 30.24 40.29 30.22 40.26 30.21C40.25 30.21 40.24 30.19 40.22 30.18C40.17 30.16 40.11 30.15 40.06 30.15H37.13L38.59 28.48C38.59 28.48 38.66 28.38 38.67 28.33C38.69 28.27 38.69 28.22 38.69 28.16C38.68 28.04 38.62 27.94 38.52 27.87L35.74 25.82L38.4 23.73C38.48 23.66 38.54 23.57 38.55 23.46C38.56 23.35 38.53 23.24 38.46 23.16L37.07 21.54L39.79 21.51C39.9 21.51 40 21.46 40.07 21.39C40.14 21.31 40.19 21.21 40.18 21.1L40.14 18.16L40.17 18.18ZM43.73 14.02L43.51 13.64L41.99 11L44.65 9.45999L47.37 10.76L45.86 13.47C45.79 13.6 45.79 13.76 45.86 13.89C45.93 14.02 46.07 14.1 46.22 14.1L49.34 14.16L49.14 17.48L46.62 18.94L45.34 15.92C45.34 15.92 45.33 15.9 45.32 15.89C45.32 15.89 45.3 15.86 45.29 15.85C45.29 15.85 45.28 15.83 45.27 15.82C45.27 15.81 45.26 15.79 45.25 15.78C45.17 15.69 45.06 15.63 44.93 15.63C44.77 15.63 44.62 15.73 44.55 15.87L43.59 17.92L43.31 18.53L43.27 18.62L40.31 17.28L40.63 14.09L43.28 14.64C43.44 14.67 43.61 14.61 43.71 14.47C43.81 14.34 43.82 14.16 43.73 14.01V14.02ZM55.55 26.95L55.94 28.83L56.1 29.61L52.92 29.93L51.61 27.01L54.18 26.16C54.34 26.11 54.45 25.97 54.47 25.8C54.48 25.69 54.45 25.59 54.38 25.5C54.38 25.5 54.37 25.48 54.36 25.47C54.33 25.44 54.3 25.42 54.26 25.39L53.84 25.15L51.24 23.65L52.78 20.98L55.79 20.74L55.83 23.84C55.83 23.99 55.91 24.13 56.04 24.2C56.17 24.28 56.32 24.28 56.45 24.2L59.18 22.69L60.66 25.66L59.18 28.24L56.45 26.66L56.2 26.51L56.17 26.49C56.03 26.41 55.85 26.42 55.71 26.51C55.61 26.58 55.55 26.69 55.54 26.82C55.54 26.86 55.54 26.9 55.54 26.94L55.55 26.95ZM50.97 35.58L51.01 35.6L51.33 35.78L52.04 36.19L53.98 37.31L52.44 39.98L49.43 40.22L49.39 37.11C49.39 36.96 49.31 36.82 49.18 36.75C49.05 36.68 48.89 36.68 48.77 36.75L46.04 38.26L44.55 35.3L46.04 32.71L49.01 34.43L49.05 34.45C49.12 34.49 49.2 34.51 49.28 34.51C49.36 34.51 49.44 34.48 49.51 34.43C49.64 34.33 49.71 34.17 49.68 34L49.37 32.5L49.13 31.35L52.31 31.03L53.62 33.95L52.77 34.23L51.05 34.8C51.05 34.8 51.02 34.82 51 34.83C50.94 34.86 50.89 34.89 50.85 34.94C50.8 35 50.77 35.08 50.76 35.16C50.74 35.33 50.82 35.49 50.97 35.57V35.58ZM56.86 50.53C56.9 50.64 56.98 50.73 57.08 50.78L59.69 52.02L53.64 55.52H44.47L45.96 52.94L48.01 49.38L49.06 47.56L55.21 44L55.02 47.2C55.02 47.32 55.05 47.43 55.13 47.51C55.21 47.59 55.32 47.64 55.43 47.65L58.28 47.71L56.89 50.2C56.83 50.3 56.82 50.42 56.86 50.53ZM59.15 59.37C59.18 59.48 59.24 59.58 59.34 59.64L61.78 61.12L59.34 62.58C59.24 62.64 59.17 62.74 59.14 62.85C59.11 62.96 59.14 63.08 59.2 63.18L60.84 65.56H57.5H53.85L50.77 63.78L45.91 60.97L53.85 56.37H60.95L59.19 59.05C59.13 59.15 59.11 59.26 59.13 59.38L59.15 59.37ZM56.75 71.99L58.13 74.5L55.29 74.54C55.17 74.54 55.06 74.59 54.98 74.68C54.9 74.77 54.86 74.88 54.87 75L55.1 77.88L49.05 74.38L44.47 66.42H53.64L56.99 68.36L59.79 69.98L56.93 71.41C56.83 71.46 56.75 71.55 56.72 71.66C56.69 71.77 56.7 71.89 56.75 71.99ZM51.05 87.12L51.56 87.29L53.61 87.97L52.3 90.89L49.12 90.57L49.67 87.92C49.67 87.92 49.68 87.84 49.67 87.8C49.66 87.68 49.6 87.57 49.5 87.49C49.37 87.39 49.19 87.38 49.04 87.47L46.03 89.21L44.49 86.54L45.78 83.81L48.48 85.32C48.61 85.39 48.77 85.39 48.89 85.32C49.02 85.25 49.1 85.11 49.1 84.96L49.16 81.83L52.47 82.03L53.95 84.61L51.71 85.91L51.12 86.25L50.94 86.35C50.8 86.43 50.71 86.6 50.73 86.76C50.75 86.93 50.86 87.07 51.02 87.12H51.05ZM55.57 95.29C55.6 95.36 55.65 95.43 55.72 95.48C55.85 95.58 56.03 95.59 56.18 95.5L56.22 95.48L56.72 95.19L59.2 93.75L60.74 96.42L59.45 99.15L56.75 97.64C56.62 97.57 56.46 97.57 56.34 97.64C56.21 97.71 56.13 97.85 56.13 98L56.07 101.13L52.76 100.93L51.28 98.35L53.8 96.89L54.29 96.61C54.43 96.53 54.52 96.37 54.5 96.2C54.5 96.16 54.49 96.12 54.47 96.08C54.42 95.97 54.33 95.88 54.21 95.84L53.42 95.58L51.64 94.99L51.92 94.37L52.95 92.06L56.13 92.38L55.58 95.03C55.56 95.11 55.58 95.2 55.6 95.27L55.57 95.29ZM35.87 91.63L36.53 92.37L37.67 93.66L35.08 95.54L32.49 93.66L34.29 91.64C34.37 91.55 34.41 91.42 34.39 91.3C34.39 91.26 34.37 91.22 34.36 91.18C34.31 91.07 34.21 90.98 34.1 90.95C34.06 90.94 34.02 90.93 33.98 90.93H30.5V87.85L32.98 86.13L34.57 88.8C34.65 88.93 34.78 89.01 34.93 89.01C35.07 89.02 35.22 88.93 35.29 88.81L36.9 86.13L39.67 87.96V90.93H36.23H36.19C36.02 90.93 35.87 91.03 35.81 91.18C35.74 91.33 35.77 91.51 35.88 91.63H35.87ZM36.99 85.17C36.89 85.11 36.78 85.09 36.67 85.11C36.56 85.14 36.46 85.21 36.4 85.3L34.93 87.75L33.47 85.3C33.41 85.2 33.31 85.13 33.2 85.1C33.09 85.07 32.97 85.1 32.87 85.16L30.5 86.8V79.8L33.33 74.88L35.08 71.83L39.66 79.79V86.91L36.99 85.14V85.17ZM30.49 78.12V69.9L33.09 68.4L34.59 71.01L30.49 78.13V78.12ZM35.56 71.01L36.49 69.39L37.06 68.4L39.66 69.9V78.12L35.56 71V71.01ZM38.03 67.99L37.12 67.46C37.12 67.46 37.02 67.41 36.96 67.41C36.85 67.4 36.74 67.43 36.65 67.49C36.61 67.53 36.57 67.57 36.54 67.62L35.62 69.21L35.09 70.13L35.07 70.17L33.6 67.62C33.6 67.62 33.53 67.53 33.49 67.49C33.4 67.42 33.29 67.39 33.18 67.41C33.13 67.41 33.07 67.44 33.02 67.46L30.48 68.93V65.99C30.48 65.94 30.47 65.88 30.45 65.83C30.45 65.83 30.42 65.79 30.41 65.76C30.39 65.74 30.38 65.71 30.37 65.69C30.37 65.69 30.35 65.68 30.34 65.67C30.31 65.64 30.27 65.61 30.23 65.6C30.18 65.58 30.12 65.57 30.07 65.57H27.14L28.61 63.02C28.64 62.97 28.66 62.92 28.66 62.86C28.66 62.84 28.66 62.82 28.66 62.81C28.66 62.78 28.66 62.74 28.66 62.71C28.66 62.67 28.63 62.65 28.61 62.61C28.61 62.59 28.6 62.58 28.59 62.56C28.59 62.56 28.51 62.48 28.47 62.45L27.76 62.04L25.93 60.98L26.96 60.39L28.47 59.51C28.47 59.51 28.56 59.45 28.59 59.4C28.61 59.38 28.62 59.35 28.63 59.32C28.64 59.3 28.66 59.28 28.66 59.25C28.66 59.23 28.66 59.21 28.66 59.18C28.66 59.15 28.66 59.12 28.66 59.08C28.66 59.03 28.64 58.97 28.61 58.92L28.12 58.07L27.84 57.58L27.15 56.38H30.08C30.08 56.38 30.09 56.38 30.1 56.38C30.15 56.38 30.2 56.37 30.24 56.35C30.34 56.31 30.42 56.23 30.47 56.12C30.49 56.07 30.5 56.01 30.5 55.96V53.02L32.81 54.36L33.04 54.49C33.1 54.53 33.18 54.55 33.25 54.55C33.25 54.55 33.32 54.55 33.36 54.54C33.4 54.53 33.44 54.51 33.48 54.48C33.49 54.48 33.5 54.46 33.51 54.46C33.54 54.43 33.58 54.4 33.6 54.36L34.99 51.94L35.07 51.81L36.33 54L36.54 54.36C36.54 54.36 36.58 54.43 36.61 54.45C36.61 54.45 36.63 54.46 36.64 54.47C36.64 54.47 36.66 54.48 36.67 54.49C36.71 54.52 36.75 54.54 36.8 54.55C36.8 54.55 36.87 54.56 36.9 54.56C36.9 54.56 36.97 54.56 37.01 54.55C37.05 54.54 37.08 54.53 37.11 54.51L38.7 53.59L39.34 53.22L39.65 53.04V55.06V55.98C39.65 56.04 39.66 56.09 39.68 56.14C39.68 56.14 39.72 56.2 39.74 56.23C39.75 56.24 39.76 56.26 39.77 56.27C39.77 56.27 39.85 56.34 39.91 56.36C39.92 56.36 39.94 56.36 39.95 56.36C39.99 56.37 40.03 56.39 40.07 56.39H43L41.76 58.54L41.53 58.94C41.53 58.94 41.48 59.04 41.48 59.1C41.48 59.1 41.48 59.14 41.48 59.15C41.48 59.19 41.48 59.22 41.48 59.26C41.48 59.29 41.5 59.31 41.52 59.34C41.53 59.36 41.54 59.39 41.56 59.41C41.56 59.41 41.64 59.49 41.68 59.52L42.73 60.13L44.23 60.99L41.69 62.46C41.69 62.46 41.68 62.47 41.67 62.48C41.63 62.51 41.6 62.53 41.57 62.57C41.54 62.61 41.53 62.65 41.51 62.69C41.51 62.69 41.5 62.71 41.5 62.72C41.5 62.72 41.5 62.73 41.5 62.74C41.49 62.79 41.48 62.84 41.49 62.88C41.49 62.88 41.51 62.95 41.52 62.98C41.52 63 41.52 63.02 41.54 63.04L41.61 63.16L43.01 65.59H40.08C40.02 65.59 39.97 65.6 39.92 65.62C39.82 65.66 39.74 65.74 39.69 65.85C39.67 65.9 39.66 65.96 39.66 66.01V68.95L38.03 68.01V67.99ZM27.35 38.36L29.64 42.34V51.53L27.96 50.56L21.7 46.94L19.36 42.87L18.15 40.77L21.34 40.96C21.34 40.96 21.36 40.96 21.37 40.96C21.48 40.96 21.58 40.92 21.66 40.85C21.74 40.77 21.79 40.66 21.79 40.55L21.84 37.69L24.32 39.08C24.42 39.14 24.54 39.15 24.65 39.11C24.76 39.07 24.85 38.99 24.9 38.89L26.14 36.28L27.34 38.36H27.35ZM26.6 35.36L27.67 33.11L29.66 34.43V40.66L26.61 35.36H26.6ZM29.53 52.45L29.65 52.52V55.53H26.65L25.78 54.03L22.55 48.42L29.53 52.46V52.45ZM26.16 56.37L27.66 58.98L25.06 60.48L22.33 58.9L21.74 58.56L17.97 56.38H26.17L26.16 56.37ZM25.07 61.46L27.67 62.97L26.8 64.47L26.17 65.57H19.74H17.98L25.08 61.46H25.07ZM26.65 66.41H29.65V69.42L29.48 69.52L23.29 73.1L22.55 73.53L26.65 66.41ZM24.99 73.09L29.65 70.39V79.59L27.31 83.66L26.1 85.76L24.67 82.89C24.62 82.79 24.53 82.71 24.42 82.68C24.31 82.64 24.19 82.66 24.09 82.71L21.59 84.09L21.55 81.24C21.55 81.12 21.5 81.01 21.41 80.94C21.32 80.86 21.21 80.82 21.09 80.83L18.21 81.06L21.7 75L24.98 73.1L24.99 73.09ZM29.65 81.28V87.4L27.62 88.81L26.55 86.67L29.65 81.29V81.28ZM30.49 34.99L33.16 36.77C33.25 36.83 33.37 36.85 33.48 36.83C33.59 36.81 33.69 36.74 33.75 36.64L35.22 34.19L36.68 36.64C36.74 36.74 36.84 36.81 36.95 36.84C36.98 36.84 37.01 36.85 37.04 36.85C37.12 36.85 37.21 36.82 37.28 36.78L39.66 35.14V42.14L39.08 43.15L38.2 44.69L35.08 50.11L33.85 47.98L30.49 42.15V35.02V34.99ZM34.28 30.31L33.43 29.35L32.48 28.29L35.07 26.41L37.66 28.29L35.86 30.31C35.8 30.37 35.77 30.45 35.76 30.53C35.76 30.57 35.76 30.61 35.76 30.65C35.76 30.69 35.78 30.73 35.79 30.77C35.86 30.92 36.01 31.02 36.17 31.02H37.91H39.65V34.11L37.17 35.82L35.58 33.15C35.5 33.02 35.37 32.95 35.22 32.95C35.07 32.95 34.94 33.03 34.86 33.15L33.25 35.83L30.48 33.99V31.03H33.96C34.13 31.03 34.28 30.93 34.34 30.78C34.36 30.74 34.37 30.7 34.37 30.66C34.39 30.54 34.35 30.42 34.27 30.32L34.28 30.31ZM39.66 43.81V52.03L37.06 53.53L35.56 50.92L36.5 49.29L38.13 46.47L39.66 43.81ZM34.59 50.93L33.09 53.53L30.49 52.03V43.81L34.59 50.93ZM41.24 41.06L44.04 36.19L45.48 39.05C45.53 39.15 45.62 39.23 45.73 39.26C45.84 39.29 45.96 39.28 46.06 39.23L48.56 37.85L48.6 40.7C48.6 40.82 48.65 40.93 48.74 41.01C48.82 41.08 48.92 41.12 49.02 41.12C49.02 41.12 49.04 41.12 49.05 41.12L51.92 40.89L51.46 41.68L48.43 46.95L40.49 51.55V42.36L41.23 41.07L41.24 41.06ZM40.5 40.66V34.54L42.52 33.15L43.59 35.28L40.5 40.65V40.66ZM40.5 52.52L41.92 51.7L47.6 48.41L46.97 49.51L43.51 55.53H40.51V52.52H40.5ZM43.84 65.3L42.49 62.95L45.09 61.45L52.19 65.56H44L43.85 65.3H43.84ZM47.6 73.53L40.5 69.42V66.41H43.5L47.6 73.53ZM45.09 60.48L42.49 58.98L43.99 56.37H52.18L45.08 60.48H45.09ZM40.5 81.61V81.28L43.55 86.58L42.49 88.81L40.5 87.49V85.26V81.61ZM40.5 79.59V70.39L48.44 74.99L51.99 81.16L48.8 80.97C48.68 80.97 48.57 81 48.49 81.08C48.41 81.16 48.36 81.27 48.35 81.38L48.3 84.24L45.82 82.85C45.72 82.79 45.6 82.78 45.49 82.82C45.38 82.86 45.29 82.94 45.24 83.04L44 85.65L40.51 79.59H40.5ZM51.57 78.73L49.9 75.83L55.19 78.89L55.39 81.36L53.01 81.22L51.58 78.73H51.57ZM55.27 42.99L49.9 46.1L52.47 41.64L52.95 40.8L55.41 40.6L55.27 42.99ZM59.74 21.92C59.69 21.82 59.6 21.74 59.49 21.71C59.38 21.68 59.26 21.69 59.16 21.75L56.66 23.13L56.62 20.28C56.62 20.16 56.57 20.05 56.48 19.98C56.39 19.9 56.28 19.86 56.16 19.87L53.29 20.1L56.78 14.04L60.06 12.14L64.72 9.43999V18.63L62.38 22.7L61.17 24.8L59.74 21.93V21.92ZM52.27 20.17L49.81 20.37L49.95 17.98L52.07 16.75L55.32 14.87L52.27 20.17ZM36.23 20.76C36.08 20.76 35.94 20.85 35.87 21C35.81 21.14 35.83 21.31 35.93 21.42L37.6 23.37L35.24 25.22L32.79 23.42L34.45 21.44C34.55 21.32 34.57 21.15 34.5 21.01C34.43 20.87 34.29 20.8 34.14 20.78L30.93 20.82L30.89 17.83L33.16 16.16L34.66 18.7C34.73 18.82 34.86 18.88 35.01 18.9C35.15 18.9 35.28 18.82 35.35 18.7L36.8 16.11L39.37 17.83L39.41 20.71L36.23 20.75V20.76ZM18.07 20.25L16.64 17.76L14.97 14.86L20.26 17.92L20.46 20.39L18.08 20.25H18.07ZM19.69 45.12L20.25 46.09L14.96 43.03L14.76 40.56L17.14 40.7L19.68 45.11L19.69 45.12ZM14.88 78.94L17 77.71L20.25 75.83L17.2 81.13L14.74 81.33L14.88 78.94ZM18.03 101.83L20.49 101.63L20.35 104.02L14.98 107.13L18.03 101.83ZM34.04 101.11C34.21 101.11 34.36 101.01 34.42 100.86C34.49 100.71 34.46 100.53 34.35 100.41L32.55 98.39L35.17 96.49L37.74 98.39L35.97 100.42C35.86 100.54 35.84 100.72 35.9 100.87C35.97 101.02 36.12 101.12 36.28 101.12H39.72V104.03L39.67 104.05C39.58 104.09 39.51 104.16 39.47 104.24C39.47 104.24 39.46 104.26 39.45 104.27L36.95 105.92L35.34 103.24C35.26 103.11 35.13 103.03 34.98 103.03C34.85 103.03 34.69 103.11 34.62 103.24L33.03 105.91L30.87 104.42C30.87 104.36 30.84 104.31 30.81 104.26C30.81 104.26 30.81 104.25 30.8 104.24C30.76 104.16 30.69 104.09 30.6 104.05L30.55 104.03V101.12H34.03L34.04 101.11ZM52.23 101.75L55.33 107.13L50.04 104.07L49.84 101.6L52.22 101.74L52.23 101.75ZM54.01 103.17L53.23 101.81L56.42 102H56.44C56.55 102 56.65 101.96 56.73 101.89C56.81 101.81 56.86 101.7 56.86 101.59L56.91 98.73L59.39 100.12C59.49 100.18 59.61 100.19 59.72 100.16C59.83 100.12 59.92 100.04 59.97 99.94L61.21 97.33L62.67 99.87L64.7 103.39V112.58L63.18 111.7L56.76 107.98L53.99 103.17H54.01ZM61.67 96.39L62.74 94.14L64.72 95.46V101.69L61.67 96.39ZM69.66 111.96L68.16 114.56L65.56 113.06V104.84L69.66 111.96ZM65.05 82.21C65.05 82.32 65.09 82.42 65.17 82.49C65.25 82.56 65.35 82.62 65.45 82.6L68.2 82.56L66.83 84.2C66.76 84.28 66.73 84.4 66.74 84.5C66.75 84.61 66.81 84.71 66.9 84.77L69.6 86.75L66.72 88.88H66.7V88.89C66.7 88.89 66.65 88.95 66.62 88.98C66.61 88.99 66.59 89 66.58 89.02C66.55 89.07 66.53 89.13 66.52 89.19C66.52 89.25 66.52 89.31 66.54 89.36C66.54 89.36 66.54 89.38 66.55 89.38C66.57 89.42 66.59 89.47 66.62 89.51L66.72 89.62L68.08 91.18H65.15C65.09 91.18 65.04 91.19 64.99 91.21C64.94 91.23 64.9 91.26 64.86 91.3C64.82 91.34 64.79 91.38 64.77 91.44C64.75 91.49 64.74 91.55 64.74 91.6V94.42L62.82 93.14C62.82 93.14 62.8 93.14 62.79 93.13C62.79 93.13 62.78 93.12 62.77 93.11C62.75 93.11 62.74 93.11 62.72 93.1C62.69 93.1 62.67 93.08 62.64 93.08C62.61 93.08 62.59 93.08 62.56 93.08C62.53 93.08 62.51 93.08 62.48 93.09C62.45 93.09 62.43 93.11 62.41 93.12C62.39 93.13 62.36 93.14 62.34 93.16C62.32 93.18 62.3 93.2 62.28 93.22C62.27 93.23 62.25 93.24 62.24 93.26C62.24 93.26 62.24 93.28 62.23 93.29C62.23 93.29 62.22 93.31 62.21 93.31L61.18 95.48L60.41 94.14L59.72 92.95C59.69 92.9 59.66 92.86 59.61 92.83C59.57 92.8 59.52 92.78 59.47 92.76C59.44 92.76 59.41 92.76 59.39 92.76C59.36 92.76 59.34 92.76 59.31 92.76C59.31 92.76 59.31 92.76 59.29 92.76C59.24 92.76 59.19 92.78 59.15 92.81L58.21 93.36L56.62 94.28L57.05 92.1C57.07 91.98 57.05 91.86 56.98 91.77C56.91 91.67 56.81 91.61 56.69 91.6L53.16 91.21L53.57 90.29L54.62 87.89C54.62 87.89 54.65 87.8 54.65 87.75V87.73C54.65 87.67 54.65 87.61 54.62 87.56C54.6 87.51 54.56 87.46 54.52 87.42C54.52 87.42 54.52 87.42 54.51 87.42C54.47 87.39 54.43 87.36 54.38 87.34L52.28 86.62L53.24 86.07L54.82 85.16C54.82 85.16 54.91 85.09 54.94 85.05C54.94 85.05 54.94 85.03 54.95 85.02C54.97 84.98 55 84.94 55.01 84.9C55.01 84.87 55.01 84.83 55.01 84.8C55.01 84.78 55.01 84.76 55.01 84.74C55.01 84.68 54.99 84.63 54.96 84.58L53.55 82.12L55.67 82.25C55.67 82.25 55.7 82.25 55.72 82.25C55.77 82.27 55.83 82.29 55.89 82.29C55.9 82.29 55.91 82.29 55.92 82.29C56.15 82.27 56.32 82.07 56.31 81.84L56.12 79.45L58.64 80.91C58.71 80.95 58.78 80.97 58.85 80.97C58.89 80.97 58.92 80.97 58.96 80.95C58.96 80.95 58.96 80.95 58.97 80.95C59.01 80.94 59.05 80.92 59.08 80.89C59.09 80.89 59.11 80.87 59.12 80.86C59.14 80.84 59.16 80.82 59.17 80.81C59.18 80.8 59.19 80.78 59.2 80.77L60.59 78.35L60.66 78.22L60.95 79.07L61.38 80.32C61.38 80.32 61.42 80.4 61.45 80.43C61.45 80.44 61.46 80.46 61.47 80.47C61.47 80.47 61.49 80.48 61.5 80.49C61.53 80.52 61.56 80.54 61.59 80.55C61.59 80.55 61.6 80.56 61.61 80.57C61.61 80.57 61.64 80.57 61.65 80.57C61.67 80.57 61.7 80.58 61.73 80.59C61.75 80.59 61.77 80.6 61.78 80.6C61.81 80.6 61.83 80.59 61.86 80.58C61.89 80.58 61.92 80.58 61.95 80.56H61.97L63.76 79.77L65.04 79.21L65.08 82.25L65.05 82.21ZM63.23 71.96L62.15 73.84L61.75 74.54L61.5 74.98C61.42 75.12 61.43 75.3 61.52 75.44C61.59 75.54 61.7 75.6 61.83 75.61C61.87 75.61 61.91 75.61 61.95 75.61L63.58 75.27L64.59 75.06L64.91 78.25L62 79.56L61.15 76.99C61.1 76.83 60.96 76.72 60.79 76.7C60.62 76.68 60.47 76.76 60.38 76.91L60.36 76.95L60.32 77.02L58.64 79.94L56.35 78.62L55.98 78.4L55.74 75.38L58.84 75.34C58.99 75.34 59.12 75.26 59.2 75.13C59.27 75 59.28 74.84 59.2 74.71L57.69 71.97L60.66 70.48L63.23 71.97V71.96ZM62.83 68.45L60.69 69.52L55.32 66.41H61.42L62.82 68.45H62.83ZM64.94 56.37V59.85C64.94 60.02 65.04 60.17 65.19 60.24C65.34 60.31 65.52 60.28 65.64 60.17L66.77 59.16L67.66 58.37L69.53 60.97L67.66 63.57L66.15 62.22L65.82 61.92L65.64 61.76C65.52 61.65 65.34 61.62 65.19 61.69C65.04 61.76 64.94 61.91 64.94 62.07V65.56H61.87L60.16 63.07L62.82 61.48C62.95 61.4 63.02 61.27 63.02 61.12C63.02 60.97 62.94 60.83 62.82 60.76L60.15 59.15L61.98 56.37H64.95H64.94ZM62.84 53.53L61.52 55.53H55.32L60.61 52.47L62.84 53.53ZM64.89 43.92L64.59 46.88L63.45 46.64L61.95 46.33C61.87 46.31 61.79 46.33 61.72 46.35C61.65 46.38 61.58 46.43 61.53 46.5C61.48 46.57 61.45 46.65 61.45 46.73C61.45 46.73 61.45 46.74 61.45 46.75C61.45 46.78 61.45 46.82 61.45 46.85C61.45 46.87 61.47 46.89 61.48 46.92C61.48 46.94 61.48 46.95 61.5 46.97L61.52 47.01L61.68 47.29L61.73 47.37L63.23 49.99L60.57 51.53L57.85 50.23L59.36 47.52C59.43 47.39 59.43 47.23 59.36 47.1C59.29 46.97 59.15 46.89 59 46.89L55.88 46.83L56.08 43.51L58.65 42.02L60.1 44.53L60.39 45.03C60.47 45.18 60.63 45.26 60.8 45.24C60.96 45.22 61.11 45.11 61.16 44.95L61.68 43.36L62 42.38L64.71 43.6C64.71 43.6 64.78 43.69 64.83 43.73L64.91 43.78V43.93L64.89 43.92ZM65.14 30.8H68.07L66.62 32.46H66.61V32.47C66.59 32.5 66.57 32.53 66.56 32.56C66.55 32.58 66.53 32.6 66.52 32.62C66.52 32.62 66.52 32.65 66.52 32.66C66.52 32.7 66.5 32.75 66.51 32.79C66.51 32.79 66.51 32.8 66.51 32.81C66.51 32.86 66.53 32.91 66.56 32.95C66.56 32.95 66.58 32.97 66.59 32.99C66.62 33.02 66.64 33.06 66.67 33.08L68.69 34.57L69.27 35L66.6 36.93C66.5 37 66.44 37.11 66.43 37.23C66.42 37.35 66.46 37.47 66.53 37.56L68.02 39.23H65.06C64.95 39.23 64.84 39.27 64.76 39.35C64.68 39.43 64.64 39.54 64.64 39.65V42.61L63.72 42.21L61.94 41.43H61.91V41.42C61.91 41.42 61.85 41.41 61.82 41.4C61.79 41.4 61.77 41.38 61.74 41.38C61.71 41.38 61.69 41.38 61.66 41.4C61.63 41.4 61.59 41.4 61.56 41.42C61.45 41.47 61.37 41.56 61.33 41.67L60.62 43.77L60.31 43.23L59.15 41.22C59.15 41.22 59.09 41.13 59.04 41.1C58.95 41.03 58.84 41 58.73 41.02C58.68 41.02 58.62 41.04 58.57 41.07L56.12 42.49L56.25 40.36C56.25 40.36 56.25 40.32 56.25 40.31C56.28 40.25 56.29 40.18 56.29 40.11C56.27 39.88 56.07 39.7 55.84 39.72L53.46 39.91L54.92 37.38C54.92 37.38 54.97 37.28 54.97 37.22C54.97 37.17 54.97 37.11 54.97 37.06C54.94 36.95 54.87 36.86 54.77 36.8L53.17 35.87L52.23 35.33L54.33 34.61C54.38 34.59 54.43 34.56 54.47 34.52C54.48 34.51 54.49 34.49 54.5 34.48C54.53 34.45 54.55 34.42 54.57 34.38C54.57 34.38 54.57 34.35 54.57 34.33C54.58 34.29 54.6 34.25 54.6 34.2C54.6 34.18 54.6 34.16 54.59 34.14C54.59 34.1 54.59 34.06 54.57 34.03V34.01L53.15 30.76L54.34 30.63L56.66 30.37C56.66 30.37 56.75 30.34 56.79 30.32C56.79 30.32 56.81 30.32 56.82 30.32C56.87 30.29 56.92 30.25 56.95 30.2C56.99 30.15 57.01 30.1 57.02 30.04C57.02 30.02 57.02 29.99 57.02 29.97C57.02 29.94 57.02 29.9 57.02 29.87L56.59 27.69L57.42 28.17L59.13 29.16C59.13 29.16 59.23 29.21 59.29 29.21C59.4 29.22 59.51 29.19 59.59 29.13C59.63 29.1 59.67 29.05 59.7 29.01L61.12 26.55L62.07 28.46C62.07 28.46 62.09 28.49 62.1 28.51C62.1 28.58 62.13 28.64 62.17 28.7C62.25 28.82 62.38 28.88 62.52 28.88C62.6 28.88 62.69 28.86 62.76 28.81L64.73 27.45V30.37C64.73 30.48 64.77 30.59 64.85 30.67C64.93 30.75 65.04 30.79 65.15 30.79L65.14 30.8ZM64.72 22.5V26.44L62.69 27.84L61.62 25.7L64.72 20.32V22.51V22.5ZM64.72 5.43999V8.44998L64.55 8.54999L58.36 12.13L57.62 12.56L61.72 5.43999H64.72ZM60.14 0.489983L62.74 1.98998L61.87 3.48998L61.24 4.58998H53.05L60.15 0.479988L60.14 0.489983ZM51.58 5.43999H60.75L57.77 10.61L56.16 13.4L52.34 15.61L50.01 16.96L50.2 13.76C50.2 13.64 50.17 13.53 50.09 13.45C50.01 13.37 49.9 13.32 49.79 13.31L46.94 13.26L48.33 10.77C48.39 10.67 48.4 10.55 48.36 10.44C48.32 10.33 48.24 10.24 48.14 10.19L45.53 8.94998L51.58 5.44998V5.43999ZM43.7 5.43999H49.9L44.61 8.49998L42.38 7.43999L43.7 5.43999ZM30.44 5.43999C30.67 5.43999 30.86 5.24998 30.86 5.01998C30.86 4.98998 30.86 4.95999 30.86 4.93999V2.08998L32.53 3.54999C32.62 3.62999 32.74 3.66999 32.85 3.64999C32.85 3.64999 32.88 3.63998 32.89 3.63998C32.93 3.62998 32.97 3.61998 33.01 3.59998C33.01 3.59998 33.01 3.59998 33.02 3.58998C33.06 3.55998 33.1 3.52998 33.14 3.48998L34.55 1.56998L35.15 0.749985L35.46 1.16998L37.15 3.47999C37.15 3.47999 37.21 3.53998 37.25 3.55998C37.26 3.55998 37.27 3.57998 37.28 3.58998C37.28 3.58998 37.39 3.63998 37.45 3.63998C37.45 3.63998 37.45 3.63998 37.47 3.63998C37.52 3.63998 37.57 3.63998 37.62 3.62998C37.62 3.62998 37.62 3.62998 37.64 3.62998C37.69 3.60998 37.73 3.58999 37.77 3.54999L38.33 3.05998L39.44 2.08998V5.02998C39.44 5.08998 39.45 5.13999 39.47 5.18999C39.49 5.22999 39.52 5.26998 39.55 5.30998C39.55 5.30998 39.55 5.31999 39.56 5.32999C39.56 5.32999 39.64 5.39998 39.69 5.41998C39.69 5.41998 39.75 5.42999 39.78 5.43999C39.8 5.43999 39.82 5.44998 39.85 5.44998H42.68L41.51 7.22998C41.51 7.22998 41.5 7.25998 41.49 7.27998C41.44 7.31998 41.39 7.36998 41.36 7.42998C41.26 7.63998 41.35 7.88999 41.56 7.98999L43.72 9.01999L41.2 10.48C41.1 10.54 41.03 10.63 41 10.74C40.99 10.79 40.98 10.85 40.99 10.91C40.99 10.93 41 10.94 41.01 10.96C41.01 11 41.03 11.03 41.05 11.07L41.38 11.65L42.51 13.62L40.34 13.19C40.34 13.19 40.25 13.19 40.2 13.19C40.2 13.19 40.18 13.19 40.17 13.19C40.11 13.2 40.06 13.23 40.01 13.26C39.97 13.29 39.93 13.33 39.9 13.38C39.9 13.38 39.9 13.4 39.89 13.41C39.87 13.45 39.85 13.49 39.85 13.54L39.63 15.51L39.47 16.95L36.89 15.22C36.8 15.16 36.69 15.14 36.58 15.17C36.47 15.2 36.38 15.26 36.33 15.36L35 17.72L33.63 15.39C33.57 15.29 33.48 15.22 33.37 15.2C33.26 15.18 33.15 15.2 33.06 15.27L30.85 16.9L30.7 15.51L30.49 13.57V13.54C30.49 13.54 30.47 13.46 30.46 13.43C30.46 13.41 30.46 13.39 30.44 13.37C30.41 13.32 30.37 13.28 30.32 13.24C30.22 13.17 30.11 13.14 29.99 13.16L27.82 13.59L28.1 13.1L28.21 12.9L29.28 11.05C29.28 11.05 29.29 11.01 29.3 10.98C29.31 10.95 29.33 10.92 29.33 10.89C29.34 10.78 29.31 10.67 29.25 10.58C29.23 10.55 29.2 10.54 29.18 10.52C29.16 10.5 29.15 10.49 29.13 10.48L26.68 9.05998L28.58 8.10999C28.58 8.10999 28.61 8.08999 28.62 8.07999C28.69 8.07999 28.75 8.04998 28.81 8.00998C29 7.87998 29.05 7.61998 28.92 7.41998L27.56 5.43999H30.47H30.44ZM22.7 5.43999H26.5L27.9 7.47998L25.77 8.54999L20.4 5.43999H22.7ZM22.07 7.37999L24.87 8.99998L22.01 10.43C21.91 10.48 21.83 10.57 21.8 10.68C21.77 10.79 21.78 10.91 21.83 11.01L23.21 13.52L20.37 13.56C20.25 13.56 20.14 13.61 20.06 13.7C19.98 13.79 19.94 13.9 19.95 14.02L20.18 16.9L14.13 13.4L9.55 5.43999H18.72L22.07 7.37999ZM7.56 1.98998L10.16 0.489983L17.26 4.59998H9.06L8.91 4.33998L7.56 1.99998V1.98998ZM5.58 5.43999H8.58L12.68 12.56L5.58 8.44998V5.43999ZM13.51 14.02L17.06 20.19L13.87 20C13.76 20 13.64 20.03 13.56 20.11C13.48 20.19 13.43 20.3 13.43 20.41L13.38 23.27L10.9 21.88C10.8 21.82 10.68 21.81 10.57 21.84C10.46 21.88 10.37 21.96 10.32 22.06L9.08 24.67L5.59 18.6V9.40999L13.53 14.01L13.51 14.02ZM5.58 20.64V20.31L8.63 25.61L7.57001 27.85L5.58 26.53V24.3V20.65V20.64ZM0.639999 10.04L1.57001 8.41998L2.14 7.42998L4.74001 8.92998V17.15L0.639999 10.03V10.04ZM5.08 39.23H2.15001L3.61 37.55C3.69 37.46 3.73001 37.34 3.71001 37.23C3.70001 37.11 3.64001 37.01 3.54001 36.94L0.970001 35.05L2.02 34.27L3.61 33.09C3.61 33.09 3.68001 33.02 3.71001 32.98C3.71001 32.98 3.71 32.98 3.72 32.97C3.75 32.92 3.77 32.86 3.77 32.8C3.77 32.8 3.77 32.75 3.77 32.73C3.77 32.7 3.77001 32.66 3.76001 32.63C3.76001 32.63 3.75001 32.61 3.74001 32.6C3.72001 32.56 3.7 32.52 3.67 32.48L2.21001 30.81H5.14C5.14 30.81 5.16 30.81 5.17 30.81C5.21 30.81 5.26 30.81 5.3 30.78C5.4 30.74 5.48 30.66 5.53 30.55C5.55 30.5 5.56 30.44 5.56 30.39V27.55L7.33 28.72C7.33 28.72 7.36 28.73 7.38 28.74C7.42 28.79 7.47 28.84 7.53 28.87C7.59 28.9 7.65001 28.91 7.71001 28.91C7.87001 28.91 8.02 28.82 8.09 28.67L9.12001 26.5L10.58 29.03C10.64 29.13 10.73 29.2 10.83 29.23C10.94 29.26 11.05 29.24 11.15 29.19L13.69 27.72L13.26 29.9C13.26 29.9 13.26 29.98 13.26 30.01C13.26 30.03 13.26 30.05 13.26 30.07C13.26 30.11 13.29 30.14 13.31 30.18C13.31 30.2 13.32 30.22 13.33 30.23C13.33 30.23 13.37 30.26 13.38 30.28C13.41 30.3 13.42 30.33 13.45 30.35C13.45 30.35 13.46 30.35 13.47 30.35C13.49 30.36 13.52 30.37 13.55 30.37C13.57 30.37 13.59 30.39 13.62 30.39H13.66L16.98 30.76L15.56 34V34.03H15.55C15.55 34.03 15.54 34.09 15.53 34.12C15.53 34.15 15.51 34.17 15.51 34.2C15.51 34.26 15.52 34.32 15.55 34.37C15.55 34.37 15.56 34.39 15.57 34.4C15.58 34.42 15.6 34.44 15.61 34.46C15.62 34.48 15.63 34.5 15.65 34.51C15.66 34.52 15.68 34.52 15.69 34.54C15.72 34.56 15.75 34.59 15.79 34.6L17.89 35.32L16.71 36L15.35 36.79C15.35 36.79 15.26 36.86 15.22 36.9C15.22 36.91 15.21 36.93 15.2 36.94C15.18 36.97 15.16 37 15.15 37.04C15.15 37.05 15.15 37.06 15.15 37.07C15.15 37.11 15.14 37.16 15.15 37.2C15.15 37.2 15.17 37.28 15.19 37.31C15.19 37.33 15.19 37.34 15.2 37.35L16.62 39.81L14.5 39.68C14.5 39.68 14.47 39.68 14.45 39.68C14.39 39.65 14.32 39.63 14.25 39.64C14.02 39.66 13.85 39.86 13.87 40.1L14.06 42.49L11.54 41.03C11.54 41.03 11.44 40.98 11.38 40.98C11.33 40.98 11.27 40.98 11.22 40.99C11.11 41.02 11.02 41.09 10.96 41.19L10.71 41.63L9.99001 42.87L9.49001 43.73L8.78 41.63C8.78 41.63 8.74 41.56 8.72 41.53C8.68 41.47 8.62 41.41 8.55 41.38C8.44 41.33 8.32001 41.33 8.21001 41.38L5.48 42.58V39.62C5.48 39.39 5.29 39.2 5.06 39.2L5.08 39.23ZM6.92 49.97L8.33 47.52L8.64 46.99L8.66 46.95C8.74 46.81 8.73 46.63 8.64 46.49C8.62 46.46 8.59 46.43 8.55 46.4C8.52 46.38 8.48 46.36 8.45 46.34C8.38 46.31 8.29001 46.3 8.21001 46.32L6.91 46.59L5.56 46.87L5.49001 46.2L5.24001 43.68L8.16 42.37L9.01001 44.94C9.06001 45.1 9.20001 45.21 9.37001 45.23C9.37001 45.23 9.4 45.23 9.41 45.23C9.56 45.23 9.7 45.15 9.78 45.02L9.8 44.99L10.26 44.19L11.52 42.01L14.18 43.55L14.42 46.57L11.32 46.61C11.17 46.61 11.04 46.69 10.96 46.82C10.89 46.95 10.88 47.11 10.96 47.24L12.47 49.98L9.5 51.47L6.93001 49.98L6.92 49.97ZM7.32001 53.49L9.46001 52.42L10.38 52.95L12.1 53.95L14.82 55.52H8.72L7.32001 53.48V53.49ZM5.21001 65.57V62.12V62.08C5.21001 62.08 5.21 62 5.19 61.96C5.16 61.84 5.07001 61.75 4.96001 61.7C4.81001 61.63 4.63001 61.66 4.51001 61.77L3.47 62.7L2.49001 63.57L2.3 63.31L1.01001 61.52L0.62001 60.97L2.49001 58.37L4.51001 60.17C4.63001 60.28 4.81001 60.31 4.96001 60.24C5.00001 60.22 5.03 60.2 5.06 60.18C5.15 60.1 5.21001 59.98 5.21001 59.86V56.37H8.28L9.99001 58.86L7.33 60.45C7.2 60.53 7.13001 60.66 7.12001 60.81C7.12001 60.96 7.2 61.1 7.33 61.17L10 62.79L8.17 65.56H5.2L5.21001 65.57ZM7.31 68.41L8.63 66.41H14.83L9.54001 69.47L7.31 68.41ZM5.56 75.06L8.21001 75.61C8.37001 75.64 8.54 75.58 8.64 75.44C8.74 75.31 8.75 75.12 8.66 74.98L8.44 74.61L6.92 71.96L9.58 70.42L12.3 71.72L10.79 74.43C10.72 74.56 10.72 74.72 10.79 74.84C10.86 74.97 11 75.05 11.15 75.05L14.27 75.11L14.07 78.43L11.55 79.89L10.27 76.87C10.27 76.87 10.26 76.85 10.25 76.83C10.25 76.83 10.23 76.8 10.23 76.79C10.23 76.79 10.22 76.77 10.21 76.76C10.21 76.75 10.2 76.74 10.19 76.72C10.11 76.63 10 76.57 9.87001 76.57C9.71001 76.57 9.56001 76.67 9.49001 76.82L8.53 78.87L8.24001 79.48L8.2 79.57L5.24001 78.23L5.56 75.04V75.06ZM5.54001 91.46C5.54001 91.46 5.51001 91.41 5.49001 91.38C5.48001 91.36 5.47 91.34 5.45 91.33C5.42 91.3 5.39 91.29 5.36 91.27C5.34 91.27 5.33001 91.25 5.32001 91.24C5.27001 91.22 5.21 91.21 5.16 91.21H3.7H2.24001L3.7 89.54C3.78 89.45 3.81 89.33 3.8 89.22C3.79 89.1 3.73 89 3.63 88.93L0.729996 86.8L3.36 84.74C3.45 84.67 3.50001 84.57 3.51001 84.47C3.52001 84.36 3.49 84.25 3.42 84.17L2.03 82.55L4.75 82.52C4.86 82.52 4.96 82.48 5.03 82.4C5.1 82.32 5.14 82.22 5.14 82.12L5.10001 79.18L6.89 79.96L8.23 80.55H8.24001C8.28001 80.57 8.33001 80.57 8.37001 80.58C8.37001 80.58 8.39001 80.58 8.40001 80.58C8.51001 80.58 8.61 80.54 8.69 80.47C8.7 80.46 8.71 80.44 8.72 80.43C8.74 80.4 8.77 80.38 8.78 80.34L8.96001 79.97L9.85001 78.1L10.89 80.56L10.95 80.69C10.97 80.75 11.01 80.8 11.05 80.84C11.07 80.86 11.1 80.87 11.13 80.89C11.15 80.91 11.17 80.92 11.2 80.93C11.24 80.94 11.29 80.95 11.33 80.95C11.4 80.95 11.48 80.93 11.54 80.89L13.99 79.47L13.86 81.6C13.86 81.6 13.86 81.64 13.86 81.65C13.83 81.71 13.82 81.78 13.82 81.85C13.84 82.08 14.04 82.26 14.27 82.24L16.65 82.05L15.19 84.58C15.14 84.68 15.12 84.79 15.15 84.9C15.16 84.95 15.19 85 15.22 85.05C15.25 85.09 15.3 85.13 15.34 85.16L16.53 85.85L17.88 86.63L15.78 87.35C15.78 87.35 15.75 87.37 15.73 87.38C15.71 87.39 15.69 87.4 15.68 87.41C15.67 87.42 15.65 87.42 15.64 87.44C15.64 87.44 15.64 87.44 15.63 87.45C15.59 87.49 15.56 87.53 15.54 87.57C15.54 87.57 15.54 87.62 15.53 87.64C15.53 87.67 15.51 87.71 15.51 87.74C15.51 87.74 15.52 87.79 15.53 87.81C15.53 87.84 15.53 87.88 15.55 87.91L16.03 89.02L17.01 91.25L13.66 91.62H13.63C13.63 91.62 13.57 91.64 13.54 91.65C13.52 91.65 13.49 91.66 13.47 91.67C13.42 91.7 13.38 91.74 13.34 91.79C13.27 91.88 13.24 92.01 13.27 92.12L13.7 94.3L12.64 93.69L11.16 92.83C11.16 92.83 11.06 92.78 11 92.78C10.95 92.78 10.89 92.78 10.84 92.79C10.8 92.8 10.76 92.82 10.72 92.85C10.72 92.85 10.7 92.85 10.7 92.86C10.65 92.89 10.62 92.94 10.59 92.99L9.17 95.46L8.13 93.39C8.13 93.39 8.12 93.38 8.11 93.37C8.11 93.37 8.11001 93.35 8.10001 93.34C8.09001 93.32 8.07 93.32 8.06 93.3C8.04 93.28 8.02 93.26 8 93.24C7.98 93.22 7.96001 93.21 7.93001 93.2C7.90001 93.19 7.88 93.18 7.86 93.17C7.83 93.17 7.81 93.17 7.78 93.17C7.75 93.17 7.73 93.17 7.7 93.17C7.67 93.17 7.65001 93.18 7.62001 93.19C7.60001 93.19 7.58001 93.19 7.57001 93.2C7.57001 93.2 7.56 93.21 7.55 93.22C7.55 93.22 7.53 93.22 7.52 93.23L5.58 94.57V91.64C5.58 91.64 5.58 91.64 5.58 91.63C5.58 91.58 5.58 91.53 5.55 91.48L5.54001 91.46ZM5.58 116.56V113.55L7.95 112.18L12.68 109.44L8.58 116.56H5.58ZM10.16 121.51L7.56 120.01L9.06 117.41H17.25L10.15 121.52L10.16 121.51ZM18.72 116.56H9.55L12.62 111.23L14.14 108.59L20.29 105.03L20.1 108.23C20.1 108.35 20.14 108.46 20.21 108.54C20.29 108.63 20.4 108.67 20.51 108.68L23.36 108.73L21.97 111.22C21.91 111.32 21.9 111.44 21.94 111.56C21.98 111.67 22.06 111.76 22.16 111.81L24.77 113.05L18.72 116.55V116.56ZM26.6 116.56H20.4L21.29 116.04L25.68 113.5L27.91 114.56L26.59 116.56H26.6ZM39.86 116.56C39.75 116.56 39.64 116.61 39.56 116.68C39.48 116.76 39.44 116.87 39.44 116.98V119.92L37.77 118.46C37.77 118.46 37.68 118.4 37.64 118.38C37.64 118.38 37.64 118.38 37.63 118.38C37.57 118.36 37.52 118.36 37.46 118.36C37.4 118.36 37.34 118.39 37.29 118.42C37.25 118.45 37.2 118.48 37.17 118.53L35.16 121.26L34.5 120.36L34.02 119.71L33.17 118.54C33.14 118.5 33.11 118.48 33.07 118.45C33.06 118.45 33.05 118.43 33.04 118.42C32.99 118.39 32.93 118.37 32.87 118.36C32.75 118.34 32.64 118.38 32.55 118.46L32.18 118.79L30.89 119.93V118.96V116.99C30.89 116.93 30.88 116.88 30.86 116.83C30.82 116.72 30.74 116.64 30.63 116.6C30.58 116.58 30.52 116.57 30.47 116.57H27.64L28.81 114.79C28.81 114.79 28.82 114.76 28.83 114.74C28.88 114.7 28.93 114.65 28.96 114.58C29.06 114.37 28.97 114.12 28.76 114.02L26.6 112.99L29.12 111.53C29.22 111.47 29.29 111.38 29.32 111.27C29.33 111.22 29.34 111.16 29.33 111.1C29.33 111.04 29.31 110.99 29.28 110.94L28.52 109.63L27.81 108.4L29.98 108.83C30.04 108.84 30.09 108.83 30.15 108.83C30.21 108.82 30.26 108.79 30.31 108.76C30.31 108.76 30.34 108.72 30.36 108.7C30.38 108.68 30.41 108.65 30.42 108.63C30.42 108.63 30.42 108.6 30.44 108.58C30.45 108.54 30.47 108.51 30.48 108.47L30.82 105.38L32.96 106.86C33.03 106.91 33.11 106.94 33.2 106.94C33.23 106.94 33.26 106.94 33.29 106.94C33.4 106.91 33.5 106.84 33.56 106.74L35.02 104.29L36.49 106.74C36.55 106.84 36.65 106.91 36.76 106.93C36.87 106.96 36.99 106.93 37.09 106.87L39.51 105.27L39.57 105.85L39.86 108.44V108.47C39.86 108.47 39.88 108.53 39.89 108.56C39.89 108.59 39.9 108.61 39.92 108.64C39.95 108.69 39.99 108.74 40.04 108.77H40.06C40.15 108.83 40.26 108.86 40.37 108.83L42.54 108.4L41.73 109.81L41.07 110.95C41.04 111 41.02 111.05 41.02 111.11C41.02 111.13 41.02 111.15 41.02 111.17C41.02 111.2 41.02 111.24 41.02 111.27C41.02 111.29 41.04 111.31 41.05 111.33C41.06 111.36 41.07 111.39 41.09 111.42C41.12 111.46 41.16 111.49 41.2 111.52L43.65 112.94L41.75 113.89C41.75 113.89 41.72 113.91 41.71 113.92C41.64 113.92 41.58 113.95 41.52 113.99C41.33 114.12 41.28 114.39 41.41 114.58L42.77 116.55H39.86V116.56ZM43.8 116.56L42.4 114.52L44.54 113.45L49.91 116.56H43.81H43.8ZM45.88 113.26L45.5 113.04L45.43 113L48.29 111.57C48.39 111.52 48.47 111.43 48.5 111.32C48.53 111.21 48.52 111.09 48.47 110.99L47.09 108.48L49.93 108.44C50.05 108.44 50.16 108.39 50.24 108.3C50.32 108.21 50.36 108.1 50.35 107.98L50.12 105.1L53.6 107.11L54.08 107.39L56.17 108.6L60.58 116.27L60.75 116.57H51.58L45.88 113.27V113.26ZM60.14 121.51L58.31 120.45L56.82 119.59L54.06 117.99L53.05 117.4H61.25L62.75 120L60.15 121.5L60.14 121.51Z" fill="white"/>
</svg>
